<ttFont>
<head>
    <!-- Most of this table will be recalculated by the compiler -->
    <tableVersion value="1.0"/>
    <fontRevision value="1.0"/>
    <checkSumAdjustment value="0x96284711"/>
    <magicNumber value="0x5f0f3cf5"/>
    <flags value="00000000 00000011"/>
    <unitsPerEm value="2048"/>
    <created value="Thu Aug 15 19:13:24 2019"/>
    <modified value="Fri Aug 16 02:19:10 2019"/>
    <xMin value="-539"/>
    <yMin value="-506"/>
    <xMax value="3811"/>
    <yMax value="2057"/>
<macStyle value="00000000 00000010"/>
    <lowestRecPPEM value="3"/>
    <fontDirectionHint value="2"/>
    <indexToLocFormat value="0"/>
    <glyphDataFormat value="0"/>
  </head>
          <CharString index="0">
            rmoveto
            -248 126 -137 172 return
          </CharString>
          <CharString index="1">
            53 callgsubr
            66 -66 124 hhcurveto
            return
          </CharString>
          <CharString index="2">
            rmoveto
            -44 callsubr
            21 callsubr
            endchar
          </CharString>
          <CharString index="3">
            rmoveto
            497 319 374 456 374 -247 296 42 callsubr
            hvcurveto
            -374 -6 252 -296 164 callsubr
            endchar
          </CharString>
          <CharString index="4">
            rmoveto
            -1157 hlineto
            -21 -99 124 -20 -55 callgsubr
            1201 0 77 callsubr
            return
          </CharString>
          <CharString index="5">
            14 callsubr
            endchar
          </CharString>
          <CharString index="6">
            37 callgsubr
            -13 120 callsubr
            return
          </CharString>
          <CharString index="7">
            141 callsubr
            endchar
          </CharString>
          <CharString index="8">
            -51 callsubr
            endchar
          </CharString>
          <CharString index="9">
            rmoveto
            50 callgsubr
            return
          </CharString>
          <CharString index="10">
            18 callsubr
            endchar
          </CharString>
          <CharString index="11">
            rmoveto
            346 227 212 373 82 hvcurveto
            135 612 29 129 23 26 128 22 rlinecurve
            21 99 -444 0 -21 -99 rlineto
            132 -24 13 -24 -25 -129 -121 -596 rcurveline
            -260 -53 -145 -132 -187 108 callsubr
            -16 callgsubr
            endchar
          </CharString>
          <CharString index="12">
            rmoveto
            -94 callgsubr
            59 callsubr
            -211 -992 49 callsubr
            116 callsubr
            endchar
          </CharString>
          <CharString index="13">
            -20 callsubr
            endchar
          </CharString>
          <CharString index="14">
            1555 rmoveto
            -218 -402 return
          </CharString>
          <CharString index="15">
            -165 -774 377 0 return
          </CharString>
          <CharString index="16">
            rmoveto
            -11 callsubr
            -519 rcurveline
            -185 -40 72 -88 155 hhcurveto
            135 127 59 80 -12 callsubr
            endchar
          </CharString>
          <CharString index="17">
            rmoveto
            630 hlineto
            39 183 rlineto
            -630 hlineto
            endchar
          </CharString>
          <CharString index="18">
            1544 rmoveto
            90 74 73 87 83 return
          </CharString>
          <CharString index="19">
            1865 rmoveto
            -235 -136 return
          </CharString>
          <CharString index="20">
            1855 220 callsubr
            return
          </CharString>
          <CharString index="21">
            rmoveto
            192 95 77 120 115 -90 70 -110 return
          </CharString>
          <CharString index="22">
            124 0 501 390 rlineto
            12 vlineto
            return
          </CharString>
          <CharString index="23">
            rmoveto
            362 99 320 -99 21 98 return
          </CharString>
          <CharString index="24">
            rmoveto
            99 80 76 94 -1 hvcurveto
            87 return
          </CharString>
          <CharString index="25">
            -173 -77 callgsubr
            return
          </CharString>
          <CharString index="26">
            rmoveto
            -469 -58 -20 -98 48 -11 58 -18 13 -16 5 -54 rlinecurve
            78 -937 -107 -85 -197 -120 -139 -73 rlinecurve
            -31 380 vlineto
            69 85 68 80 68 79 80 90 84 97 72 88 287 354 167 299 -1 150 rrcurveto
            113 -1 -82 76 -108 hhcurveto
            -104 -83 -75 -104 1 hvcurveto
            -98 1 80 -79 98 6 6 1 5 hhcurveto
            -55 -169 -122 -183 -154 -192 rrcurveto
            endchar
          </CharString>
          <CharString index="27">
            1565 rmoveto
            -265 -184 -182 184 -117 0 132 -402 259 0 297 402 rlineto
            return
          </CharString>
          <CharString index="28">
            -91 -443 rlineto
            -185 -39 71 -88 155 hhcurveto
            135 126 59 80 -12 callsubr
            82 384 rlineto
            return
          </CharString>
          <CharString index="29">
            rmoveto
            179 -541 -82 -389 -18 -86 -25 -21 -145 161 callsubr
            209 callsubr
            endchar
          </CharString>
          <CharString index="30">
            -20 -95 63 -17 rlineto
            51 -16 10 -19 -13 -58 -210 -984 rcurveline
            -31 callgsubr
            return
          </CharString>
          <CharString index="31">
            rmoveto
            -90 -74 -72 -88 -83 64 -66 87 91 74 72 90 82 -64 65 -88 hvcurveto
            endchar
          </CharString>
          <CharString index="32">
            1172 rmoveto
            107 86 85 104 97 -76 77 -101 -107 return
          </CharString>
          <CharString index="33">
            1154 rmoveto
            265 185 return
          </CharString>
          <CharString index="34">
            1502 rmoveto
            -524 -58 return
          </CharString>
          <CharString index="35">
            0 136 642 rlineto
            136 30 85 80 75 hhcurveto
            69 35 -56 -104 -22 hvcurveto
            return
          </CharString>
          <CharString index="36">
            1855 rmoveto
            -191 -312 103 0 435 303 rlineto
            9 vlineto
            return
          </CharString>
          <CharString index="37">
            -510 -61 -20 -95 63 -16 51 -17 9 -19 -12 -58 rlinecurve
            return
          </CharString>
          <CharString index="38">
            rmoveto
            72 70 -42 callgsubr
            -17 hlineto
            -72 -69 -51 -73 return
          </CharString>
          <CharString index="39">
            rmoveto
            100 79 76 94 hvcurveto
            87 -1 -71 70 -94 hhcurveto
            -100 return
          </CharString>
          <CharString index="40">
            123 0 502 390 rlineto
            12 vlineto
            return
          </CharString>
          <CharString index="41">
            -23 -19 -134 -20 -21 -99 rcurveline
            return
          </CharString>
          <CharString index="42">
            -87 -84 -106 -96 76 -77 102 hvcurveto
            return
          </CharString>
          <CharString index="43">
            -80 -76 -95 hvcurveto
            -87 1 71 -69 95 hhcurveto
            endchar
          </CharString>
          <CharString index="44">
            rmoveto
            683 hlineto
            35 163 rlineto
            -683 hlineto
            return
          </CharString>
          <CharString index="45">
            1181 rmoveto
            114 96 77 285 return
          </CharString>
          <CharString index="46">
            hvcurveto
            -112 hlineto
            -108 -19 -31 -32 return
          </CharString>
          <CharString index="47">
            1543 222 callsubr
            return
          </CharString>
          <CharString index="48">
            361 hmoveto
            80 65 65 79 return
          </CharString>
          <CharString index="49">
            -47 -28 47 111 -3 hvcurveto
            return
          </CharString>
          <CharString index="50">
            rmoveto
            -126 77 -116 169 -53 vhcurveto
            -173 -33 -94 -89 -110 vvcurveto
            -78 47 -66 96 -36 vhcurveto
            -196 -24 -106 -78 -98 vvcurveto
            -144 206 -90 310 341 247 135 218 161 -116 109 -221 35 vhcurveto
            -198 31 rlineto
            -94 15 -29 26 33 vvcurveto
            30 25 23 39 10 vhcurveto
            -6 41 45 -4 50 hhcurveto
            324 191 168 214 64 -19 62 -43 53 hvcurveto
            219 -44 29 146 -375 -12 rlineto
            30 -69 -92 18 -118 hhcurveto
            -318 -195 -152 -222 hvcurveto
            359 -46 rmoveto
            134 55 174 104 71 37 -66 -100 -139 -56 -169 -105 -70 -36 67 99 vhcurveto
            -261 -821 rmoveto
            64 42 48 75 24 vhcurveto
            2 hlineto
            195 -30 rlineto
            144 -22 43 -39 -62 vvcurveto
            -81 -104 -58 -151 -154 -92 64 92 vhcurveto
            endchar
          </CharString>
          <CharString index="51">
            rmoveto
            -522 -61 -20 -95 62 -16 51 -17 9 -19 -12 -58 rlinecurve
            -148 -701 -56 -261 -41 -99 -182 81 callgsubr
          </CharString>
          <CharString index="52">
            rmoveto
            398 211 396 284 176 98 -127 -236 7 vhcurveto
            90 -3 64 368 rlineto
            70 -100 -192 63 -215 hhcurveto
            -494 -362 -328 -492 -5 hvcurveto
            return
          </CharString>
          <CharString index="53">
            rmoveto
            211 160 110 183 33 hvcurveto
            -113 hlineto
            -65 -20 -102 -43 -130 hhcurveto
            -129 -84 44 64 7 hvcurveto
            -113 hlineto
            -183 -46 114 -110 212 hhcurveto
            return
          </CharString>
          <CharString index="54">
            rmoveto
            217 160 94 155 26 hvcurveto
            -115 hlineto
            -55 -18 -103 -37 -133 hhcurveto
            -133 -88 38 54 6 hvcurveto
            -116 hlineto
            -155 -40 121 -94 216 hhcurveto
            return
          </CharString>
          <CharString index="55">
            rmoveto
            -541 hlineto
            -21 -99 128 -14 14 -51 -23 -104 rlinecurve
            -195 -887 -30 -139 -27 -30 -126 -21 rlinecurve
            -21 -99 445 0 21 99 -132 23 return
          </CharString>
          <CharString index="56">
            -84 hlineto
            -64 -161 -35 -36 -92 -3 rrcurveto
            -163 40 callgsubr
            return
          </CharString>
          <CharString index="57">
            -16 -77 rlineto
            1 2 31 1 4 -90 callgsubr
            return
          </CharString>
          <CharString index="58">
            rmoveto
            367 84 331 -84 18 83 return
          </CharString>
          <CharString index="59">
            1561 rmoveto
            80 65 65 79 return
          </CharString>
          <CharString index="60">
            -211 -992 rcurveline
            -19 -88 return
          </CharString>
          <CharString index="61">
            rmoveto
            -470 -58 -20 -98 48 -11 rlineto
            57 -17 15 -17 3 -48 45 -795 rcurveline
            280 hlineto
            121 147 113 184 73 167 17 -498 rcurveline
            274 hlineto
            267 256 313 394 213 vvcurveto
            113 -82 76 -106 -105 -83 -73 -104 -99 78 -79 98 vhcurveto
            5 hlineto
            -57 -167 -118 -168 -143 -151 rrcurveto
            -24 832 -351 -55 5 -152 -9 -203 -100 -203 -118 -178 rlinecurve
            endchar
          </CharString>
          <CharString index="62">
            rmoveto
            -460 -5 339 -222 371 hhcurveto
            185 210 48 80 117 hvcurveto
            86 401 18 84 20 22 118 17 rlinecurve
            21 98 -630 0 -21 -98 rlineto
            126 -17 13 -21 -17 -84 -76 -365 rcurveline
            -21 -29 -49 -10 -49 hhcurveto
            -185 -124 157 282 398 212 396 284 177 99 -127 -236 7 hvcurveto
            1 callgsubr
            endchar
          </CharString>
          <CharString index="63">
            -144 1141 -324 0 -627 -1129 -96 -174 -33 -28 -113 -17 rlinecurve
            -21 -99 457 0 21 99 -136 22 -15 33 86 162 rlinecurve
            76 145 432 0 16 -153 return
          </CharString>
          <CharString index="64">
            rmoveto
            281 138 236 238 -1 hvcurveto
            190 -1 -109 170 -212 hhcurveto
            -281 -139 -236 -238 2 hvcurveto
            -191 109 -169 213 vhcurveto
            return
          </CharString>
          <CharString index="65">
            1397 1646 1444 rmoveto
            -1283 hlineto
            31 callsubr
            106 callsubr
            -95 callgsubr
            91 callsubr
            return
          </CharString>
          <CharString index="66">
            1163 rmoveto
            112 90 89 109 103 -79 80 -106 -113 -92 -88 -111 -101 80 -81 108 hvcurveto
            return
          </CharString>
          <CharString index="67">
            -480 rmoveto
            111 callsubr
            return
          </CharString>
          <CharString index="68">
            403 -313 218 -447 vhcurveto
            -599 hlineto
            -21 -99 rlineto
            124 -20 16 -19 -18 -88 return
          </CharString>
          <CharString index="69">
            116 489 rlineto
            -90 hlineto
            -128 -288 -100 -72 -208 -10 rrcurveto
            -147 -6 return
          </CharString>
          <CharString index="70">
            1547 rmoveto
            662 -101 19 93 -638 211 rlineto
            return
          </CharString>
          <CharString index="71">
            1547 rmoveto
            43 203 -728 -211 -19 -93 rlineto
            return
          </CharString>
          <CharString index="72">
            1236 rmoveto
            677 hlineto
            43 203 rlineto
            -677 hlineto
            return
          </CharString>
          <CharString index="73">
            -281 167 -66 0 -351 -167 rlineto
            return
          </CharString>
          <CharString index="74">
            97 callsubr
            2 -78 -252 -97 hhcurveto
            return
          </CharString>
          <CharString index="75">
            883 1444 -52 callsubr
            return
          </CharString>
          <CharString index="76">
            197 -64 0 -350 -197 rlineto
            return
          </CharString>
          <CharString index="77">
            rmoveto
            -91 -73 -72 -88 -83 64 -66 86 return
          </CharString>
          <CharString index="78">
            rmoveto
            246 15 callgsubr
          </CharString>
          <CharString index="79">
            1599 rmoveto
            610 hlineto
            return
          </CharString>
          <CharString index="80">
            rmoveto
            95 446 96 0 211 -672 463 0 20 94 -57 26 -27 37 -74 223 rlinecurve
            -192 591 163 143 195 168 64 40 132 23 rlinecurve
            21 99 -511 0 -21 -99 122 -17 11 -43 -122 -122 rlinecurve
            -375 -371 -94 0 91 426 18 88 23 20 121 19 rlinecurve
            21 99 -691 0 -21 -99 124 -20 16 -19 -19 -88 rlinecurve
            -210 -992 -19 -88 62 callsubr
            691 0 21 99 -112 18 -15 21 19 88 rlinecurve
            endchar
          </CharString>
          <CharString index="81">
            rmoveto
            105 -1142 310 0 499 996 75 -996 321 0 569 1125 92 182 39 25 111 16 rlinecurve
            21 99 -452 0 -20 -99 126 -13 9 -37 -76 -164 rlinecurve
            -366 -786 -49 790 -11 162 17 28 134 20 rlinecurve
            21 99 -683 0 -21 -99 125 -14 9 -52 -68 -144 rlinecurve
            -368 -791 -47 792 -9 155 18 34 137 20 rlinecurve
            21 99 -709 0 -21 -99 98 -15 28 -26 15 -165 rlinecurve
            endchar
          </CharString>
          <CharString index="82">
            -24 -19 -125 -18 -81 callgsubr
            -124 18 -17 20 19 90 rlinecurve
            211 990 19 90 24 20 133 53 callsubr
            20 callgsubr
            126 -92 callgsubr
            124 -20 17 -20 -19 -88 rlinecurve
            -211 -990 -18 -88 -25 -20 -133 -20 rlinecurve
            -21 -99 return
          </CharString>
          <CharString index="83">
            234 1105 19 88 24 18 141 22 rlinecurve
            21 98 -712 0 -21 -99 rlineto
            123 -20 16 -23 -21 -98 -207 -978 rcurveline
            -19 -87 -23 -19 -134 -21 -21 -99 rcurveline
            return
          </CharString>
          <CharString index="84">
            -69 -64 -43 -62 -14 hvcurveto
            -61 -13 46 -44 69 hhcurveto
            384 hmoveto
            68 65 44 61 1 callsubr
            -68 -65 -43 -62 return
          </CharString>
          <CharString index="85">
            rmoveto
            178 154 77 101 68 hvcurveto
            21 101 rlineto
            140 callsubr
            -310 213 -151 228 hvcurveto
            endchar
          </CharString>
          <CharString index="86">
            1715 823 rmoveto
            -39 callsubr
            -47 callsubr
            -66 callsubr
            117 callsubr
            return
          </CharString>
          <CharString index="87">
            127 128 3 callsubr
            -31 -35 -91 callgsubr
            158 744 57 callgsubr
            return
          </CharString>
          <CharString index="88">
            182 -185 117 0 -132 402 -259 0 -297 -402 rlineto
            return
          </CharString>
          <CharString index="89">
            rmoveto
            -508 122 callsubr
            -92 callsubr
            144 callsubr
            endchar
          </CharString>
          <CharString index="90">
            1166 rmoveto
            225 139 150 246 8 156 callsubr
            return
          </CharString>
          <CharString index="91">
            92 callsubr
            939 -89 callgsubr
            -9 callgsubr
            endchar
          </CharString>
          <CharString index="92">
            hvcurveto
            74 1 -57 59 -76 hhcurveto
            -80 -66 -64 -81 hvcurveto
            -74 -1 57 -58 77 hhcurveto
            return
          </CharString>
          <CharString index="93">
            1246 1186 hmoveto
            -38 callsubr
            -24 callsubr
            return
          </CharString>
          <CharString index="94">
            -462 -6 336 -221 375 hhcurveto
            182 148 callsubr
          </CharString>
          <CharString index="95">
            66 hvcurveto
            21 99 rlineto
            -21 -28 -37 -10 -33 hhcurveto
            -50 -18 33 75 15 hvcurveto
            return
          </CharString>
          <CharString index="96">
            -524 -61 -20 -95 62 -16 rlineto
            51 -17 10 -19 -13 -58 -110 return
          </CharString>
          <CharString index="97">
            -71 70 -94 -100 -81 -76 -95 1 vhcurveto
            -87 1 71 -69 95 hhcurveto
            endchar
          </CharString>
          <CharString index="98">
            rmoveto
            -131 -405 161 0 323 393 rlineto
            12 vlineto
            endchar
          </CharString>
          <CharString index="99">
            1567 rmoveto
            97 83 63 235 28 hvcurveto
            -99 hlineto
            -86 -15 return
          </CharString>
          <CharString index="100">
            1554 rmoveto
            -389 -12 hlineto
            58 callsubr
            return
          </CharString>
          <CharString index="101">
            43 -21 -40 -40 -40 -23 -69 -45 -42 14 16 -34 hvcurveto
            return
          </CharString>
          <CharString index="102">
            -28 callsubr
            38 179 rlineto
            -610 hlineto
            return
          </CharString>
          <CharString index="103">
            1323 738 1041 -98 callsubr
            return
          </CharString>
          <CharString index="104">
            -65 66 -86 -91 -74 -72 -90 -81 64 -66 88 hvcurveto
            return
          </CharString>
          <CharString index="105">
            -267 197 -65 0 -349 -197 rlineto
            return
          </CharString>
          <CharString index="106">
            1681 652 111 callgsubr
            return
          </CharString>
          <CharString index="107">
            123 hlineto
            374 88 callgsubr
            return
          </CharString>
          <CharString index="108">
            13 hvcurveto
            62 13 -46 43 -69 hhcurveto
            -16 hlineto
            return
          </CharString>
          <CharString index="109">
            rmoveto
            247 -126 137 -172 return
          </CharString>
          <CharString index="110">
            59 80 65 hvcurveto
            21 99 rlineto
            -21 return
          </CharString>
          <CharString index="111">
            -13 24 27 206 callsubr
            return
          </CharString>
          <CharString index="112">
            -43 hhcurveto
            -31 -26 13 23 -30 hvcurveto
            return
          </CharString>
          <CharString index="113">
            94 callgsubr
            -29 8 return
          </CharString>
          <CharString index="114">
            39 179 rlineto
            -610 hlineto
            return
          </CharString>
          <CharString index="115">
            1287 174 362 rmoveto
            -248 137 callsubr
            385 -8 rmoveto
            220 80 323 177 3 callgsubr
            return
          </CharString>
          <CharString index="116">
            rmoveto
            -149 -170 -48 -33 -125 -19 rrcurveto
            -21 -99 475 0 21 99 -128 22 -2 37 118 145 rlinecurve
            219 269 113 -287 51 -127 -17 -34 -129 -23 rlinecurve
            -20 -98 736 0 21 98 -93 29 -31 28 -52 131 rlinecurve
            -190 482 307 354 145 168 50 33 124 19 rlinecurve
            21 99 -472 0 -21 -99 127 -22 3 -36 -118 -146 rlinecurve
            -209 -260 -110 281 -53 129 18 33 129 21 rlinecurve
            20 99 -737 0 -21 -99 rlineto
            95 -27 31 -30 51 -130 188 -477 rcurveline
            endchar
          </CharString>
          <CharString index="117">
            rmoveto
            -598 hlineto
            -21 -99 126 -19 13 -37 -27 -115 rlinecurve
            -209 -892 -33 -133 -25 -33 -136 -17 rlinecurve
            -21 -99 454 0 20 99 -129 17 -12 30 30 137 rlinecurve
            176 849 140 -1132 215 0 260 508 339 639 -172 -926 -16 -84 -23 -21 -136 -17 rlinecurve
            -20 -99 698 0 21 99 -126 16 -14 21 16 85 rlinecurve
            189 1002 16 83 22 22 136 17 rlinecurve
            21 99 -613 0 -458 -927 rlineto
            endchar
          </CharString>
          <CharString index="118">
            rmoveto
            -374 -6 252 -296 445 hhcurveto
            -87 callgsubr
            239 -102 206 -184 116 hvcurveto
            -7 43 48 -4 50 hhcurveto
            190 144 84 144 105 -66 94 -95 48 hvcurveto
            -83 callgsubr
            -163 -111 -138 -172 vhcurveto
            -123 -84 28 -148 hhcurveto
            -43 callgsubr
            428 -141 rmoveto
            391 163 449 250 147 90 -121 -277 -88 callgsubr
            -147 -89 122 277 vhcurveto
            endchar
          </CharString>
          <CharString index="119">
            432 hlineto
            21 94 rlineto
            -61 21 -33 44 -67 181 -121 335 rcurveline
            199 65 149 126 203 vvcurveto
            242 -212 133 -412 vhcurveto
            -629 -3 callgsubr
            695 0 21 99 rlineto
            -113 18 -14 20 19 89 83 391 rcurveline
            128 hlineto
            3 4 0 3 hhcurveto
            317 448 rmoveto
            -176 -116 -146 -237 -10 vhcurveto
            -77 -2 126 597 58 -2 rlineto
            159 -6 87 -94 -161 vvcurveto
            return
          </CharString>
          <CharString index="120">
            21 99 rlineto
            -144 18 -17 23 18 84 68 317 rcurveline
            170 hlineto
            433 287 175 303 256 -178 169 -453 hvcurveto
            -628 hlineto
            -21 -99 rlineto
            129 -16 15 -23 -19 -85 -212 -998 rcurveline
            -19 -85 -23 -23 -136 -16 -21 -99 rcurveline
            843 1330 rmoveto
            54 -3 rlineto
            150 -8 95 -94 -172 vvcurveto
            -246 -152 -141 -211 -8 vhcurveto
            -79 -3 rlineto
            endchar
          </CharString>
          <CharString index="121">
            135 124 59 80 64 hvcurveto
            21 99 rlineto
            -21 -27 -37 -91 callgsubr
            156 730 -224 0 -137 -116 rlineto
            74 -32 -87 64 -142 23 callgsubr
            2 callgsubr
            return
          </CharString>
          <CharString index="122">
            rmoveto
            -471 -100 265 -200 337 hhcurveto
            347 227 213 372 81 hvcurveto
            177 805 rlineto
            -4 22 22 -2 24 hhcurveto
            174 1 116 84 141 vvcurveto
            107 -67 94 -83 45 vhcurveto
            -83 callgsubr
            194 callsubr
            endchar
          </CharString>
          <CharString index="123">
            -107 callgsubr
            9 -20 -12 -58 -89 -421 rcurveline
            -233 -49 93 -143 215 hhcurveto
            162 136 96 170 79 hvcurveto
            -3 -12 120 callsubr
            123 130 56 76 67 hvcurveto
            21 99 rlineto
            -21 -31 183 callsubr
            endchar
          </CharString>
          <CharString index="124">
            rmoveto
            -277 180 -191 297 360 265 260 336 157 -61 133 -110 84 vhcurveto
            -11 44 52 -7 52 hhcurveto
            205 135 81 146 107 -65 85 -99 43 hvcurveto
            -85 hlineto
            9 -18 6 -31 213 callsubr
            endchar
          </CharString>
          <CharString index="125">
            rmoveto
            176 152 76 102 70 hvcurveto
            21 101 rlineto
            143 callsubr
            -310 213 -150 227 vhcurveto
            153 952 rmoveto
            53 24 -40 -59 -123 -92 -114 -150 -50 hvcurveto
            -40 -14 rlineto
            226 6 83 174 116 hhcurveto
            return
          </CharString>
          <CharString index="126">
            rmoveto
            86 -89 140 158 47 -32 rlineto
            -89 131 78 -33 104 hhcurveto
            154 153 102 233 114 hvcurveto
            -67 59 -49 -73 -55 -31 -54 1 rlinecurve
            -72 -61 25 63 -106 hvcurveto
            -59 36 535 542 21 97 49 callgsubr
            endchar
          </CharString>
          <CharString index="127">
            1349 rmoveto
            -129 125 -82 163 214 120 105 126 129 -125 82 -163 -213 -121 -104 -127 vhcurveto
            220 -19 rmoveto
            88 50 66 58 46 28 -35 -61 -88 -50 -66 -58 -46 -28 35 61 vhcurveto
            return
          </CharString>
          <CharString index="128">
            15 -152 -26 -36 -144 -21 rlinecurve
            -21 -99 727 0 -40 callgsubr
            -803 279 rmoveto
            297 563 57 -563 rlineto
            return
          </CharString>
          <CharString index="129">
            -76 -133 -51 callgsubr
            30 -7 -12 37 hvcurveto
            38 -11 rlineto
            -16 return
          </CharString>
          <CharString index="130">
            rmoveto
            -90 -74 -72 -88 -83 64 -66 87 91 52 callsubr
          </CharString>
          <CharString index="131">
            1163 rmoveto
            113 90 89 109 103 -80 80 -106 -112 -92 -88 -111 -101 80 -81 107 hvcurveto
            return
          </CharString>
          <CharString index="132">
            rmoveto
            -91 -74 -72 -88 -83 65 -66 86 91 74 72 90 82 -64 65 -87 hvcurveto
            endchar
          </CharString>
          <CharString index="133">
            -32 24 rlineto
            41 -54 -57 26 -67 hhcurveto
            -114 131 callsubr
            31 31 return
          </CharString>
          <CharString index="134">
            100 81 80 98 91 -71 73 -95 -101 -82 -80 -99 -90 71 -73 97 hvcurveto
            return
          </CharString>
          <CharString index="135">
            rmoveto
            106 89 70 256 31 hvcurveto
            -104 hlineto
            -97 -17 -28 -29 -41 hhcurveto
            -28 return
          </CharString>
          <CharString index="136">
            96 450 473 0 -96 -450 -19 -90 -25 callsubr
            return
          </CharString>
          <CharString index="137">
            -21 -95 63 -17 52 -16 9 -19 -12 -58 rlinecurve
            -263 -1239 return
          </CharString>
          <CharString index="138">
            -98 -411 rlineto
            90 hlineto
            96 226 74 58 216 12 rrcurveto
            36 return
          </CharString>
          <CharString index="139">
            1734 rmoveto
            -91 -89 -37 -51 -59 hvcurveto
            -16 -72 rlineto
            16 34 return
          </CharString>
          <CharString index="140">
            1 hvcurveto
            74 -57 59 -76 -80 -66 -64 -81 -74 56 -58 77 vhcurveto
            return
          </CharString>
          <CharString index="141">
            1884 rmoveto
            37 173 -738 -180 -17 -79 rlineto
            return
          </CharString>
          <CharString index="142">
            233 49 -88 135 -215 hhcurveto
            -96 callgsubr
            return
          </CharString>
          <CharString index="143">
            1853 rmoveto
            -269 -7 hlineto
            223 -305 rlineto
            return
          </CharString>
          <CharString index="144">
            -97 callgsubr
            474 hmoveto
            101 81 80 98 91 return
          </CharString>
          <CharString index="145">
            -70 rlineto
            16 27 45 13 47 hhcurveto
            69 37 -26 -45 -48 return
          </CharString>
          <CharString index="146">
            rmoveto
            311 446 -276 0 -139 -446 rlineto
            return
          </CharString>
          <CharString index="147">
            rmoveto
            100 79 76 94 -1 hvcurveto
            87 -10 callsubr
          </CharString>
          <CharString index="148">
            1154 rmoveto
            266 185 181 -185 return
          </CharString>
          <CharString index="149">
            -444 -497 -310 -374 -456 -8 return
          </CharString>
          <CharString index="150">
            -282 167 -65 0 -352 -167 rlineto
            return
          </CharString>
          <CharString index="151">
            -70 -44 -43 14 16 -34 -45 callgsubr
          </CharString>
          <CharString index="152">
            -84 -71 -31 -46 -43 hvcurveto
            -18 -77 rlineto
            5 19 return
          </CharString>
          <CharString index="153">
            822 496 -19 81 callsubr
            return
          </CharString>
          <CharString index="154">
            92 69 102 vvcurveto
            104 -98 74 -122 vhcurveto
            return
          </CharString>
          <CharString index="155">
            -18 -83 rlineto
            -36 44 74 -25 87 hhcurveto
            endchar
          </CharString>
          <CharString index="156">
            -18 -88 -24 -19 -133 -20 rlinecurve
            -21 -99 return
          </CharString>
          <CharString index="157">
            -54 hhcurveto
            -127 -98 -89 -157 -32 hvcurveto
            return
          </CharString>
          <CharString index="158">
            -76 -95 1 hvcurveto
            -87 71 -69 96 vhcurveto
            endchar
          </CharString>
          <CharString index="159">
            74 72 90 82 -65 65 -87 hvcurveto
            endchar
          </CharString>
          <CharString index="160">
            18 rlinecurve
            21 99 -697 0 -21 -99 return
          </CharString>
          <CharString index="161">
            -15 hvcurveto
            -72 -16 158 callsubr
            return
          </CharString>
          <CharString index="162">
            1913 rmoveto
            -204 -122 return
          </CharString>
          <CharString index="163">
            1554 rmoveto
            -388 -12 hlineto
            return
          </CharString>
          <CharString index="164">
            -524 -58 30 callsubr
            return
          </CharString>
          <CharString index="165">
            354 -390 rlineto
            117 hlineto
            return
          </CharString>
          <CharString index="166">
            124 -15 16 -24 -19 -88 rlinecurve
            return
          </CharString>
          <CharString index="167">
            -13 hvcurveto
            -61 -13 46 -44 69 hhcurveto
            return
          </CharString>
          <CharString index="168">
            -16 hvcurveto
            -72 -15 48 -51 72 hhcurveto
            return
          </CharString>
          <CharString index="169">
            -23 -19 -134 -20 rlinecurve
            -21 -99 return
          </CharString>
          <CharString index="170">
            -88 rlinecurve
            -211 -992 -19 -88 return
          </CharString>
          <CharString index="171">
            hvcurveto
            -36 14 rlineto
            18 -47 -48 14 return
          </CharString>
          <CharString index="172">
            rmoveto
            -104 -78 -35 -56 -45 hvcurveto
            -15 return
          </CharString>
          <CharString index="173">
            rmoveto
            -94 66 -74 102 107 69 64 192 103 vhcurveto
            40 73 27 -76 rlineto
            -170 58 80 -82 146 hhcurveto
            123 106 59 81 47 hvcurveto
            21 99 rlineto
            -18 -27 -29 -12 -35 hhcurveto
            -57 -43 37 115 -40 hvcurveto
            -94 264 76 116 22 33 18 28 17 23 rlinecurve
            -54 27 55 -36 67 hhcurveto
            97 73 75 94 94 -66 73 -102 -107 -70 -63 -192 -102 hvcurveto
            -44 -81 -116 326 -426 -56 -20 -98 52 -10 62 -16 16 -17 22 -63 rlinecurve
            127 -362 -72 -110 -21 -32 -19 -28 -17 -23 rlinecurve
            54 -27 -55 36 -66 hhcurveto
            -98 -73 -75 -94 hvcurveto
            endchar
          </CharString>
          <CharString index="174">
            rmoveto
            359 256 197 288 167 -82 122 -189 117 hvcurveto
            -87 56 rlineto
            -126 80 -52 62 92 vvcurveto
            111 94 77 131 172 103 -118 -233 10 vhcurveto
            90 hlineto
            63 363 rlineto
            61 -79 -168 61 -210 hhcurveto
            -399 -200 -219 -246 -174 81 -115 194 -120 hvcurveto
            86 -57 rlineto
            131 -82 43 -65 -96 vvcurveto
            -121 -100 -74 -138 -176 -140 120 234 -3 vhcurveto
            -90 hlineto
            -60 -380 rlineto
            -57 92 190 -51 204 hhcurveto
            return
          </CharString>
          <CharString index="175">
            rmoveto
            316 288 258 394 62 hvcurveto
            282 43 -94 138 -163 hhcurveto
            -134 -91 -131 -161 14 hvcurveto
            190 -28 57 -137 -32 -164 rrcurveto
            -160 -31 -109 -99 -121 hhcurveto
            -127 -45 80 139 29 hvcurveto
            13 66 46 185 16 77 rrcurveto
            233 49 -77 94 -200 hhcurveto
            -106 -97 -36 -34 -59 hvcurveto
            -20 -94 rlineto
            4 11 17 3 16 hhcurveto
            67 24 -39 -108 -23 hvcurveto
            -19 -87 -46 -192 -18 -87 rrcurveto
            -244 -52 121 -152 285 hhcurveto
            endchar
          </CharString>
          <CharString index="176">
            rmoveto
            -56 69 149 -49 161 hhcurveto
            353 149 172 179 hvcurveto
            1 137 -66 91 -135 73 -91 49 rcurveline
            -89 49 -33 39 58 vvcurveto
            64 1 47 42 85 hhcurveto
            127 79 -86 -138 9 hvcurveto
            90 hlineto
            49 266 rlineto
            42 -73 -124 35 -157 hhcurveto
            -300 -189 -136 -205 -138 75 -89 137 -73 hvcurveto
            91 -49 rlineto
            85 -48 26 -39 -60 vvcurveto
            -69 -1 -55 -46 -91 hhcurveto
            -128 -104 89 171 -8 hvcurveto
            -90 hlineto
            return
          </CharString>
          <CharString index="177">
            1659 932 -28 rmoveto
            443 350 335 470 393 -306 304 -385 -446 -347 -336 -469 -394 304 -303 387 hvcurveto
            79 vmoveto
            -336 -266 269 350 424 315 300 388 334 268 -269 -349 -425 -317 -300 -386 hvcurveto
            return
          </CharString>
          <CharString index="178">
            1538 811 -29 rmoveto
            346 227 212 373 82 hvcurveto
            135 612 29 129 23 26 128 22 rlinecurve
            21 99 -444 0 -21 -99 rlineto
            132 -24 13 -24 -25 -129 -121 -596 rcurveline
            -260 -53 -145 -132 -187 108 callsubr
            -16 callgsubr
            return
          </CharString>
          <CharString index="179">
            rmoveto
            160 -121 143 -266 28 vhcurveto
            246 18 208 103 1 209 rrcurveto
            207 1 -195 127 -421 hhcurveto
            -622 hlineto
            -21 -99 rlineto
            124 -20 16 -18 -18 -90 -211 -991 rcurveline
            -19 -88 -66 callsubr
            187 callsubr
            endchar
          </CharString>
          <CharString index="180">
            rmoveto
            86 -89 140 158 48 -32 rlineto
            -89 130 78 -33 105 hhcurveto
            153 154 102 233 113 hvcurveto
            -67 59 -49 -73 -55 -31 -53 1 rlinecurve
            -72 -62 25 63 -105 hvcurveto
            -60 36 535 542 21 97 -813 0 -108 -383 rlineto
            90 hlineto
            88 return
          </CharString>
          <CharString index="181">
            -15 hvcurveto
            -72 -16 48 -51 72 hhcurveto
            403 hmoveto
            73 69 -42 callgsubr
            -17 hlineto
            -72 -69 -51 -73 61 callsubr
            endchar
          </CharString>
          <CharString index="182">
            rmoveto
            -135 -700 rlineto
            -242 -46 101 -108 207 hhcurveto
            154 143 67 84 81 hvcurveto
            20 98 rlineto
            -25 -40 -51 -10 -51 hhcurveto
            -113 -57 55 132 33 hvcurveto
            8 35 144 544 20 70 rrcurveto
            endchar
          </CharString>
          <CharString index="183">
            790 1445 rmoveto
            -103 hlineto
            -310 -121 -13 -66 134 17 -46 callgsubr
            -57 -31 -16 -109 -11 rlinecurve
            -13 -67 512 0 13 67 -102 11 -25 16 13 58 rlinecurve
            return
          </CharString>
          <CharString index="184">
            106 444 rlineto
            -90 hlineto
            -113 -260 -81 -52 -247 -11 rrcurveto
            -195 -8 119 567 162 -2 90 -2 20 -36 -5 -167 rlinecurve
            85 hlineto
            110 522 rlineto
            return
          </CharString>
          <CharString index="185">
            1993 rmoveto
            -89 -86 -31 -43 -57 hvcurveto
            -13 -61 rlineto
            13 33 57 13 48 hhcurveto
            78 33 -26 -34 -7 hvcurveto
            -8 -35 -44 -26 -91 -16 rrcurveto
            74 -48 156 25 return
          </CharString>
          <CharString index="186">
            rmoveto
            293 4 213 164 236 vvcurveto
            143 -90 84 -117 -135 -81 -113 -136 -6 vhcurveto
            92 -11 64 -102 callgsubr
            endchar
          </CharString>
          <CharString index="187">
            1555 rmoveto
            -96 -402 124 0 301 394 rlineto
            8 vlineto
            122 hmoveto
            -208 -402 137 0 432 394 rlineto
            8 vlineto
            return
          </CharString>
          <CharString index="188">
            rmoveto
            142 154 29 callgsubr
            104 494 153 callsubr
            -109 -518 rlineto
            -235 -50 97 -130 219 hhcurveto
            return
          </CharString>
          <CharString index="189">
            -89 -41 -67 -51 hvcurveto
            -18 -84 rlineto
            20 29 52 15 52 hhcurveto
            78 41 -31 -52 -57 -52 -57 -108 -62 hvcurveto
            116 hlineto
            199 67 return
          </CharString>
          <CharString index="190">
            1472 rmoveto
            128 96 6 callsubr
            14 -36 hvcurveto
            -36 14 rlineto
            17 -47 -47 14 -55 hhcurveto
            -127 -98 -89 -157 return
          </CharString>
          <CharString index="191">
            -56 hhcurveto
            -131 -96 -76 -133 -51 callgsubr
            return
          </CharString>
          <CharString index="192">
            rmoveto
            200 938 18 88 24 -75 callgsubr
            -19 -89 rlinecurve
            -197 -925 -69 88 callsubr
            endchar
          </CharString>
          <CharString index="193">
            1168 rmoveto
            198 175 108 223 60 hvcurveto
            -105 27 rlineto
            -162 -49 -118 -85 -136 hhcurveto
            return
          </CharString>
          <CharString index="194">
            -110 170 -212 -281 -139 -236 -238 2 vhcurveto
            -191 110 -169 212 vhcurveto
            return
          </CharString>
          <CharString index="195">
            -326 -96 -140 -237 -143 rlinecurve
            27 -79 456 150 245 162 78 363 rlinecurve
            return
          </CharString>
          <CharString index="196">
            12 hvcurveto
            62 14 -47 43 -68 hhcurveto
            -16 hlineto
            -23 callsubr
            -14 hvcurveto
            -61 -12 45 -44 69 hhcurveto
            endchar
          </CharString>
          <CharString index="197">
            1330 742 1040 rmoveto
            -70 callsubr
            -92 callsubr
            138 callsubr
            return
          </CharString>
          <CharString index="198">
            19 19 87 rlinecurve
            235 1106 36 -2 rlineto
            209 -12 52 -55 -229 vvcurveto
            90 hlineto
            return
          </CharString>
          <CharString index="199">
            105 444 rlineto
            -91 hlineto
            -112 -263 -95 -49 -258 -11 rrcurveto
            -214 -8 return
          </CharString>
          <CharString index="200">
            -135 -213 -5 hvcurveto
            97 hlineto
            90 16 85 52 125 hhcurveto
            106 73 -55 return
          </CharString>
          <CharString index="201">
            hvcurveto
            75 1 -57 59 -76 hhcurveto
            -80 -66 -65 -81 hvcurveto
            -73 -1 57 -59 77 hhcurveto
            return
          </CharString>
          <CharString index="202">
            hvcurveto
            -25 19 rlineto
            34 -47 -48 20 -57 hhcurveto
            -97 -100 callgsubr
            26 25 return
          </CharString>
          <CharString index="203">
            rmoveto
            77 60 55 78 78 -60 55 -77 -76 -62 -55 -78 -78 61 -55 77 hvcurveto
            return
          </CharString>
          <CharString index="204">
            252 -2 78 251 97 hhcurveto
            47 29 -48 -111 2 hvcurveto
            -250 return
          </CharString>
          <CharString index="205">
            44 hhcurveto
            30 1 26 -13 30 -23 32 -25 rcurveline
            -41 54 57 -26 68 hhcurveto
            return
          </CharString>
          <CharString index="206">
            hlineto
            -10 -26 -6 -34 -34 vvcurveto
            -143 1 115 -111 167 hhcurveto
            return
          </CharString>
          <CharString index="207">
            1865 -44 callgsubr
            -59 -282 -49 callsubr
            return
          </CharString>
          <CharString index="208">
            -26 13 23 -30 hvcurveto
            -33 24 rlineto
            41 -54 -56 26 -68 hhcurveto
            -113 return
          </CharString>
          <CharString index="209">
            -53 -44 16 18 -30 hvcurveto
            -20 -90 rlineto
            -45 50 77 -30 91 hhcurveto
            endchar
          </CharString>
          <CharString index="210">
            -71 -6 0 -6 -1 -4 hvcurveto
            97 hlineto
            10 26 217 callsubr
            return
          </CharString>
          <CharString index="211">
            1854 rmoveto
            -327 -10 hlineto
            317 -302 rlineto
            95 hlineto
            return
          </CharString>
          <CharString index="212">
            118 0 -132 402 -259 0 -298 -402 rlineto
            return
          </CharString>
          <CharString index="213">
            2 -234 -1106 -19 -86 -25 -20 -147 -21 rlinecurve
            -20 -98 return
          </CharString>
          <CharString index="214">
            -44 16 18 -29 hvcurveto
            -21 -90 rlineto
            -45 50 77 -30 91 hhcurveto
            endchar
          </CharString>
          <CharString index="215">
            hhcurveto
            -189 -119 126 306 65 hvcurveto
            128 602 return
          </CharString>
          <CharString index="216">
            1884 rmoveto
            681 -86 17 79 -662 180 rlineto
            return
          </CharString>
          <CharString index="217">
            1565 rmoveto
            204 122 134 214 5 hvcurveto
            return
          </CharString>
          <CharString index="218">
            187 114 83 123 107 -88 72 -134 7 hvcurveto
            return
          </CharString>
          <CharString index="219">
            22 -10 -18 24 hvcurveto
            26 -19 rlineto
            -33 46 48 -21 57 hhcurveto
            return
          </CharString>
          <CharString index="220">
            -16 hlineto
            -73 -69 -51 -73 -15 hvcurveto
            -72 -15 47 -51 72 hhcurveto
            return
          </CharString>
          <CharString index="221">
            rmoveto
            170 hlineto
            1274 1444 rlineto
            -170 hlineto
            return
          </CharString>
          <CharString index="222">
            1554 rmoveto
            -333 -9 hlineto
            272 -393 rlineto
            return
          </CharString>
          <CharString index="223">
            704 0 21 99 -124 20 -16 19 19 88 rlinecurve
            return
          </CharString>
          <CharString index="224">
            -58 callgsubr
            -449 69 -27 callgsubr
            return
          </CharString>
          <CharString index="225">
            -26 -26 -36 hhcurveto
            -24 -22 10 18 -24 hvcurveto
            -26 19 rlineto
            return
          </CharString>
          <CharString index="226">
            1543 rmoveto
            234 137 170 -137 return
          </CharString>
          <CharString index="227">
            -6 -37 -13 vvcurveto
            -132 -9 68 -66 127 hhcurveto
            return
          </CharString>
          <CharString index="228">
            -31 -52 -57 -52 -57 -109 -62 hvcurveto
            117 hlineto
            return
          </CharString>
          <CharString index="229">
            -61 -19 -95 61 -16 51 -17 10 -19 -12 -58 rlinecurve
            return
          </CharString>
          <CharString index="230">
            -64 66 -86 -91 -75 -72 -90 -81 65 -66 87 hvcurveto
            return
          </CharString>
          <CharString index="231">
            -64 66 -87 -91 -74 -72 -90 -81 65 -66 87 hvcurveto
            return
          </CharString>
          <CharString index="232">
            -71 73 -96 -100 -82 -80 -99 -90 71 -73 96 hvcurveto
            return
          </CharString>
          <CharString index="233">
            110 callsubr
            -96 hlineto
            -90 -17 -85 -52 return
          </CharString>
          <CharString index="234">
            1237 1032 -18 136 callsubr
            return
          </CharString>
          <CharString index="235">
            73 -95 -101 -82 -80 -99 -90 72 -73 96 hvcurveto
            return
          </CharString>
          <CharString index="236">
            7 11 -37 hvcurveto
            -38 12 rlineto
            15 -48 -49 12 return
          </CharString>
          <CharString index="237">
            -50 -57 vvcurveto
            -84 68 -62 83 90 72 65 92 return
          </CharString>
          <CharString index="238">
            -96 -77 -283 -36 hvcurveto
            112 hlineto
            107 19 return
          </CharString>
          <CharString index="239">
            rmoveto
            -85 74 -67 91 95 79 70 86 45 -20 41 -31 28 vhcurveto
            7 27 28 4 29 hhcurveto
            149 78 -94 -206 -35 hvcurveto
            -6 -36 -169 -16 rlineto
            -341 -33 -166 -119 -186 vvcurveto
            -155 125 -95 172 184 142 101 206 46 vhcurveto
            -205 45 170 -103 182 hhcurveto
            179 145 77 96 71 hvcurveto
            21 100 rlineto
            -44 -52 -81 -30 -82 hhcurveto
            -150 -95 102 210 -6 hvcurveto
            30 2 413 34 129 118 1 156 rlinecurve
            158 -145 94 -212 -132 -117 -41 -80 -96 vhcurveto
            80 -76 -111 41 -152 hhcurveto
            -259 -171 -109 -152 hvcurveto
            1098 139 rmoveto
            59 26 -54 -66 -2 hvcurveto
            -3 -101 -72 -103 -194 -20 -12 -1 rcurveline
            199 16 79 146 103 hhcurveto
            -860 -647 rmoveto
            95 68 78 170 24 vhcurveto
            65 8 -9 -55 rlineto
            -170 -28 -67 -92 -95 hhcurveto
            -61 -43 39 73 hvcurveto
            endchar
          </CharString>
          <CharString index="240">
            rmoveto
            -1144 hlineto
            -765 -1121 -123 -180 -48 -30 -107 -14 rlinecurve
            -21 -99 465 0 21 99 -129 20 -11 41 106 162 rlinecurve
            159 242 425 0 -63 -320 -20 -106 -21 -20 -144 -19 rlinecurve
            -21 -99 1190 0 107 444 rlineto
            -89 hlineto
            -110 -255 -80 -56 -234 -11 rrcurveto
            -196 -9 110 565 149 -1 88 -3 20 -35 -5 -166 rlinecurve
            87 hlineto
            105 522 rlineto
            -87 hlineto
            -60 -160 -34 -36 -91 -3 rrcurveto
            -149 -2 104 537 176 -8 232 -11 32 -47 14 -231 rlinecurve
            89 hlineto
            -1023 293 rmoveto
            73 hlineto
            -124 -638 rlineto
            -368 hlineto
            endchar
          </CharString>
          <CharString index="241">
            1511 653 226 rmoveto
            95 446 96 0 211 -672 463 0 20 94 -57 26 -27 37 -74 223 rlinecurve
            -192 591 163 143 195 168 64 40 132 23 rlinecurve
            21 99 -511 0 -21 -99 122 -17 11 -43 -122 -122 rlinecurve
            -375 -371 -94 0 91 426 18 88 23 20 121 19 rlinecurve
            21 99 -691 0 -21 -99 124 -20 16 -19 -19 -88 rlinecurve
            -210 -992 -19 -88 62 callsubr
            691 0 21 99 -112 18 -15 21 19 88 rlinecurve
            return
          </CharString>
          <CharString index="242">
            -152 -122 -87 -158 -63 vhcurveto
            55 236 -510 122 callsubr
            -219 -1030 -14 -64 -21 -18 -119 -23 rlinecurve
            -21 -99 691 0 21 99 rlineto
            -157 25 -16 15 13 67 66 329 rcurveline
            -54 39 79 -44 114 hhcurveto
            313 230 299 389 hvcurveto
            -385 8 rmoveto
            -220 -80 -324 -177 -59 -37 29 35 -9 vhcurveto
            96 449 rlineto
            138 31 66 77 72 hhcurveto
            59 39 -50 -134 -1 hvcurveto
            endchar
          </CharString>
          <CharString index="243">
            rmoveto
            120 99 61 77 49 hvcurveto
            21 100 rlineto
            -18 -21 -27 -10 -30 hhcurveto
            -49 -41 36 123 -41 hvcurveto
            -119 358 66 51 159 122 84 42 107 23 rlinecurve
            16 80 -486 0 -16 -80 125 -16 20 -34 -114 -97 rlinecurve
            -303 -256 203 958 -523 -58 -21 -95 63 -17 52 -16 9 -19 -12 -58 rlinecurve
            -264 -1239 377 0 91 426 65 50 59 -198 rlineto
            -199 58 81 -97 143 hhcurveto
            return
          </CharString>
          <CharString index="244">
            125 -137 173 53 callgsubr
            67 -66 125 hhcurveto
            134 124 3 callsubr
            -27 -37 -91 callgsubr
            256 1205 -523 -58 -21 -95 63 -17 rlineto
            51 -16 10 -19 -12 -58 -61 -286 rcurveline
            54 -38 -79 42 -114 hhcurveto
            -313 -230 -299 -388 hvcurveto
            return
          </CharString>
          <CharString index="245">
            135 637 rlineto
            137 30 84 84 76 hhcurveto
            69 36 -56 -104 -22 hvcurveto
            -92 -443 rlineto
            -185 -38 71 -88 155 hhcurveto
            135 126 3 callsubr
            -27 -37 -91 callgsubr
            82 384 rlineto
            232 49 -88 136 -215 hhcurveto
            -169 -134 -96 -174 -74 hvcurveto
            return
          </CharString>
          <CharString index="246">
            rmoveto
            128 97 89 157 31 hvcurveto
            -113 hlineto
            -53 -11 -31 -24 -47 hhcurveto
            -28 -30 8 13 -35 64 callsubr
            -55 hhcurveto
            -127 -97 -89 -157 -32 hvcurveto
            113 hlineto
            53 12 31 24 47 hhcurveto
            28 29 -8 -13 36 hvcurveto
            37 -14 rlineto
            -18 46 47 -14 55 hhcurveto
            -306 -1174 -100 callsubr
          </CharString>
          <CharString index="247">
            -53 -55 -85 -26 -74 hhcurveto
            -149 -108 103 220 244 116 181 159 16 15 -1 -4 15 hvcurveto
            -61 -23 -41 -58 -68 vvcurveto
            -92 73 -66 90 98 78 70 101 144 -125 123 -229 -1 vhcurveto
            -344 -251 -261 -351 return
          </CharString>
          <CharString index="248">
            rmoveto
            360 265 264 340 278 -179 190 -298 -360 -265 -264 -340 -277 179 -191 298 hvcurveto
            12 127 rmoveto
            -72 -42 67 143 165 callsubr
            hvcurveto
            return
          </CharString>
          <CharString index="249">
            rmoveto
            212 112 80 91 85 hvcurveto
            22 98 rlineto
            -54 -70 -112 -38 -116 hhcurveto
            -98 -58 38 68 66 33 44 120 42 hvcurveto
            49 16 rlineto
            204 68 112 87 188 vvcurveto
            176 return
          </CharString>
          <CharString index="250">
            -52 -53 -85 -27 -79 hhcurveto
            -128 -101 74 175 -21 hvcurveto
            62 19 rlineto
            328 94 177 89 185 vvcurveto
            142 -139 95 -214 -337 -269 -257 -356 return
          </CharString>
          <CharString index="251">
            125 631 rlineto
            88 56 113 55 132 hhcurveto
            49 43 -7 -13 32 hvcurveto
            11 27 15 49 54 vvcurveto
            97 -39 66 -87 -113 -76 -102 -235 -122 vhcurveto
            return
          </CharString>
          <CharString index="252">
            23 108 -254 0 37 161 -381 -28 -28 -133 -146 0 -23 -108 146 0 -257 -1208 377 -72 callsubr
            return
          </CharString>
          <CharString index="253">
            -97 hlineto
            -90 -16 -85 -52 -125 hhcurveto
            -106 -74 -85 callgsubr
            -96 hlineto
            -10 -26 -6 -34 -34 vvcurveto
            -143 1 114 -111 168 hhcurveto
            return
          </CharString>
          <CharString index="254">
            6 11 -24 hvcurveto
            25 16 16 27 32 vvcurveto
            53 -40 39 -54 -56 -40 -42 -53 -114 134 -64 131 186 180 95 177 vhcurveto
            return
          </CharString>
          <CharString index="255">
            155 41 64 93 hvcurveto
            82 383 -92 -1 rlineto
            -221 -83 -143 -132 -152 hhcurveto
            -187 -122 168 272 hvcurveto
            endchar
          </CharString>
          <CharString index="256">
            71 -117 30 124 13 113 62 -1 110 rrcurveto
            127 -1 -132 59 -126 hhcurveto
            -147 -133 -76 -159 return
          </CharString>
          <CharString index="257">
            1183 rmoveto
            101 81 80 98 91 -72 128 callsubr
            475 hmoveto
            100 81 80 98 91 -71 128 callsubr
            return
          </CharString>
          <CharString index="258">
            rmoveto
            2 -105 -152 -24 -113 -5 -15 -74 rcurveline
            2 15 15 1 26 hhcurveto
            87 79 -38 -91 hvcurveto
            -106 2 -79 -60 -85 hhcurveto
            return
          </CharString>
          <CharString index="259">
            43 203 -413 0 186 93 234 123 77 64 -1 129 rlinecurve
            126 -110 78 -146 -178 return
          </CharString>
          <CharString index="260">
            251 -6 31 142 -256 -15 52 246 -391 -50 -43 -198 -144 -34 -19 -91 136 0 return
          </CharString>
          <CharString index="261">
            96 57 21 99 rlinecurve
            98 21 -83 63 -132 hhcurveto
            -728 -611 -84 callsubr
            -267 197 return
          </CharString>
          <CharString index="262">
            0 232 1092 19 91 23 18 127 53 callsubr
            122 -18 18 -18 -19 -91 rlinecurve
            endchar
          </CharString>
          <CharString index="263">
            hvcurveto
            -111 hlineto
            -100 -18 -95 30 callgsubr
            -6 -38 -39 vvcurveto
            -163 127 -127 186 vhcurveto
            return
          </CharString>
          <CharString index="264">
            961 740 1040 rmoveto
            -508 122 callsubr
            -92 callsubr
            144 callsubr
            return
          </CharString>
          <CharString index="265">
            47 -51 73 hhcurveto
            403 hmoveto
            72 70 -42 callgsubr
            -17 hlineto
            -72 -69 -51 -73 -16 hvcurveto
            -72 -15 return
          </CharString>
          <CharString index="266">
            455 1218 rmoveto
            -211 -992 rlineto
            -19 -91 -24 -18 -132 -18 -21 -99 rcurveline
            return
          </CharString>
          <CharString index="267">
            hvcurveto
            -30 22 rlineto
            37 -51 -52 23 -63 hhcurveto
            -106 -89 -69 -255 -31 hvcurveto
            104 hlineto
            96 17 return
          </CharString>
          <CharString index="268">
            -20 rlinecurve
            -21 -98 730 0 21 98 -136 21 -17 19 18 87 rlinecurve
            82 389 return
          </CharString>
          <CharString index="269">
            -46 -48 -96 -53 hvcurveto
            101 hlineto
            172 56 81 59 87 vvcurveto
            88 -85 62 -109 vhcurveto
            return
          </CharString>
          <CharString index="270">
            -47 -48 -96 -53 hvcurveto
            101 hlineto
            173 56 80 59 87 vvcurveto
            88 -85 62 -109 vhcurveto
            return
          </CharString>
          <CharString index="271">
            444 hhcurveto
            -26 130 rmoveto
            -147 -89 122 277 -1 callgsubr
            return
          </CharString>
          <CharString index="272">
            235 84 373 154 73 41 -66 -144 -234 -84 -374 -154 return
          </CharString>
          <CharString index="273">
            43 61 13 hvcurveto
            63 13 -46 43 -69 hhcurveto
            -16 hlineto
            -69 -64 -43 -63 -14 hvcurveto
            -61 return
          </CharString>
          <CharString index="274">
            0 -137 -140 -16 -77 rlineto
            1 2 31 1 4 hhcurveto
            69 37 -26 -42 -41 return
          </CharString>
          <CharString index="275">
            1279 1323 665 2 callsubr
            185 callsubr
            return
          </CharString>
          <CharString index="276">
            rmoveto
            -282 -33 138 -172 246 hhcurveto
            173 124 95 169 60 hvcurveto
            -151 3 113 -113 185 hhcurveto
            337 219 300 342 32 hvcurveto
            271 25 -102 159 -164 hhcurveto
            -136 -89 -132 -161 14 hvcurveto
            178 -27 86 -126 -13 -165 rrcurveto
            -161 -13 -105 -113 -121 hhcurveto
            -140 -76 111 311 78 hvcurveto
            45 187 -302 0 -49 -236 rlineto
            -289 -62 -55 -84 -95 hhcurveto
            -101 -34 91 179 20 hvcurveto
            22 222 93 207 140 113 rrcurveto
            -46 70 -321 -55 -240 -250 -34 -310 rlinecurve
            endchar
          </CharString>
          <CharString index="277">
            162 -47 147 -88 115 hvcurveto
            169 159 -76 82 -169 -159 rlineto
            102 -116 -162 62 -202 hhcurveto
            -43 callgsubr
            -3 -163 47 -148 90 -115 rrcurveto
            -167 -157 77 -82 167 158 rlineto
            -102 116 162 -61 202 hhcurveto
            -263 529 rmoveto
            391 163 449 250 117 81 -77 -170 28 vhcurveto
            -639 -602 rlineto
            9 0 0 0 vhcurveto
            236 -399 rmoveto
            -116 -81 77 170 -28 hvcurveto
            639 601 rlineto
            -7 0 0 0 vhcurveto
            -88 callgsubr
            vhcurveto
            endchar
          </CharString>
          <CharString index="278">
            rmoveto
            242 206 87 142 111 hvcurveto
            15 101 rlineto
            -69 -80 -146 -51 -143 hhcurveto
            -140 -72 49 75 2 hvcurveto
            99 1 97 40 174 hhcurveto
            71 hlineto
            -9 223 rlineto
            -65 hlineto
            -181 -45 52 70 3 hvcurveto
            78 3 70 60 162 hhcurveto
            62 54 -9 -14 44 hvcurveto
            -36 -26 -23 -43 -47 vvcurveto
            -76 1 53 -59 93 hhcurveto
            82 60 64 83 121 -101 122 -329 -338 -203 -127 -189 -6 hvcurveto
            -4 -113 74 -87 157 -26 -192 -21 -136 -92 -3 -150 rrcurveto
            -164 -6 149 -103 272 hhcurveto
            endchar
          </CharString>
          <CharString index="279">
            rmoveto
            166 115 91 155 100 hvcurveto
            -162 20 66 -79 141 hhcurveto
            93 94 52 48 46 hvcurveto
            22 100 rlineto
            -8 -12 -28 -7 -25 hhcurveto
            -75 -48 20 220 -38 hvcurveto
            -15 87 337 532 rlineto
            -343 hlineto
            -11 -40 -42 -111 -41 -108 rrcurveto
            178 -35 -91 105 -190 hhcurveto
            -289 -209 -236 -350 -36 hvcurveto
            -311 -38 148 -176 218 hhcurveto
            65 531 rmoveto
            271 27 70 125 94 hhcurveto
            80 23 -93 -300 13 hvcurveto
            2 -104 rlineto
            -156 -76 -69 -69 -75 hhcurveto
            -83 -32 95 231 26 hvcurveto
            endchar
          </CharString>
          <CharString index="280">
            137 641 rlineto
            133 29 75 84 73 hhcurveto
            64 32 -57 -96 -20 hvcurveto
            -147 -705 375 0 135 638 rlineto
            134 29 75 86 74 hhcurveto
            63 32 -57 -99 -20 hvcurveto
            -93 -447 rlineto
            -185 -39 71 -88 155 hhcurveto
            135 127 3 callsubr
            -28 -37 -10 -33 hhcurveto
            -50 -18 33 75 15 hvcurveto
            83 385 rlineto
            233 49 -88 134 -212 hhcurveto
            -157 -133 -102 -155 -59 hvcurveto
            146 12 -86 111 -194 hhcurveto
            -161 -129 -95 -175 -70 hvcurveto
            55 261 -70 callsubr
            return
          </CharString>
          <CharString index="281">
            rmoveto
            357 262 265 339 109 -28 96 -52 75 hvcurveto
            124 113 -72 80 -124 -113 rlineto
            67 -79 -109 39 -133 hhcurveto
            -358 -261 -267 -337 -111 29 -97 54 -77 hvcurveto
            -116 -106 72 -79 117 106 rlineto
            -65 79 107 -37 131 hhcurveto
            135 946 rmoveto
            69 41 -57 -122 6 hvcurveto
            -353 -323 rlineto
            227 21 81 275 135 hhcurveto
            -124 -822 rmoveto
            -67 -42 55 117 -7 hvcurveto
            352 321 rlineto
            -225 -22 -81 -268 -133 hhcurveto
            endchar
          </CharString>
          <CharString index="282">
            rmoveto
            -9 -50 -133 -30 -19 -91 135 0 -139 -884 -32 -203 -48 -94 -70 -30 rlinecurve
            14 22 8 27 28 vvcurveto
            83 -63 67 -78 -83 -67 -66 -87 -121 100 -88 151 279 213 197 656 112 vhcurveto
            85 499 243 -6 31 142 -259 -11 19 123 29 193 57 82 89 7 rlinecurve
            -25 -27 -15 -36 -39 vvcurveto
            -82 65 -65 80 84 68 67 85 127 -124 94 -199 -262 -178 -176 -313 -59 vhcurveto
            endchar
          </CharString>
          <CharString index="283">
            rmoveto
            -104 79 -83 126 186 135 119 304 222 vhcurveto
            567 780 93 128 35 26 121 18 rlinecurve
            21 99 -466 0 -21 -99 149 -18 1 -23 -86 -127 rlinecurve
            -343 -509 -143 525 -31 114 7 20 154 18 rlinecurve
            21 99 -738 0 -20 -99 112 -18 21 -25 36 -114 rlinecurve
            290 -902 -58 -79 -53 -55 -61 -33 rlinecurve
            4 13 2 13 13 vvcurveto
            106 -80 76 -97 -104 -81 -82 -101 vhcurveto
            endchar
          </CharString>
          <CharString index="284">
            697 hlineto
            21 99 -117 19 -17 19 19 89 rlinecurve
            6 28 639 708 -157 -736 -19 -91 -22 -18 -128 -18 -81 callgsubr
            -122 18 -18 18 19 91 rlinecurve
            211 992 19 91 24 18 132 53 callsubr
            118 -18 16 -18 -19 -91 rlinecurve
            -6 -29 -639 -708 157 737 18 89 23 18 128 -92 callgsubr
            59 callgsubr
            endchar
          </CharString>
          <CharString index="285">
            387 hlineto
            129 628 rlineto
            173 39 79 52 71 hhcurveto
            78 37 -64 -123 -26 hvcurveto
            -19 -92 -183 -856 -42 -178 rrcurveto
            396 hlineto
            4 19 221 1098 4 21 rrcurveto
            253 51 -104 118 -207 hhcurveto
            -179 -125 -97 -162 -74 hvcurveto
            170 15 -68 82 -161 hhcurveto
            -96 -98 -30 -38 -70 hvcurveto
            -20 -94 rlineto
            4 12 13 2 20 hhcurveto
            65 39 -36 -102 -20 hvcurveto
            -13 -71 -118 -539 -37 -138 rrcurveto
            endchar
          </CharString>
          <CharString index="286">
            rmoveto
            114 102 63 77 51 hvcurveto
            22 100 rlineto
            -18 -29 -25 -9 -32 hhcurveto
            -54 -42 29 83 -36 hvcurveto
            -162 367 50 51 27 30 23 26 21 22 rlinecurve
            -60 26 57 -42 69 hhcurveto
            98 83 80 99 -1 hvcurveto
            92 -1 -70 77 -103 hhcurveto
            -106 -61 -64 -130 -110 hvcurveto
            -283 -347 113 532 -525 -61 -19 -99 callgsubr
            -92 callsubr
            100 469 107 -258 rlineto
            -159 56 76 -70 142 hhcurveto
            endchar
          </CharString>
          <CharString index="287">
            rmoveto
            97 92 38 54 45 hvcurveto
            20 95 rlineto
            -12 -17 -27 -9 -27 hhcurveto
            -66 -45 67 94 52 16 50 24 37 hvcurveto
            326 30 234 252 319 vvcurveto
            278 -179 190 -298 -361 -264 -264 -340 -252 149 -181 251 -31 vhcurveto
            -145 -76 -74 -95 -103 vvcurveto
            -109 96 -84 153 vhcurveto
            59 590 rmoveto
            -72 -42 67 143 165 callsubr
            hvcurveto
            endchar
          </CharString>
          <CharString index="288">
            49 14 45 26 35 hvcurveto
            487 7 312 371 451 vvcurveto
            374 -247 296 42 callsubr
            vhcurveto
            -6 -342 211 -276 376 -45 rrcurveto
            -149 -77 -77 -97 -100 vvcurveto
            -112 104 -79 148 vhcurveto
            57 588 rmoveto
            -146 -90 122 277 391 163 449 250 147 90 -121 -277 -88 callgsubr
            hvcurveto
            endchar
          </CharString>
          <CharString index="289">
            rmoveto
            -522 -62 -20 -95 68 -19 rlineto
            42 -12 12 -21 -11 -56 -71 -337 rcurveline
            -307 -65 161 -155 337 hhcurveto
            336 261 153 235 208 -177 93 -234 -84 -73 -11 -13 -43 hvcurveto
            -63 -308 rmoveto
            40 194 rlineto
            7 22 35 6 33 hhcurveto
            107 48 -66 -109 -140 -72 -134 -112 -93 -44 70 172 36 hvcurveto
            endchar
          </CharString>
          <CharString index="290">
            -36 -10 -33 hhcurveto
            -50 -19 33 76 16 hvcurveto
            141 663 rlineto
            -2 17 18 -1 20 hhcurveto
            144 112 75 135 103 -66 82 -101 43 hvcurveto
            -85 hlineto
            9 -18 6 -31 -36 vvcurveto
            -155 -123 -118 -312 -37 vhcurveto
            -135 -17 -20 -93 53 -16 rlineto
            50 -19 12 -18 -13 -58 -85 -390 rcurveline
            -132 -29 -76 -78 -80 hhcurveto
            -71 -36 55 105 23 hvcurveto
            return
          </CharString>
          <CharString index="291">
            1550 rmoveto
            43 204 -728 -211 -20 -94 rlineto
            312 -334 rmoveto
            163 121 63 95 20 hvcurveto
            95 20 -94 63 -163 hhcurveto
            -82 hlineto
            -162 -121 -63 -95 -21 hvcurveto
            -95 -20 95 -63 162 hhcurveto
            78 90 rmoveto
            -37 hlineto
            -47 -20 27 41 8 hvcurveto
            41 9 33 28 47 hhcurveto
            37 hlineto
            46 21 -28 -41 -8 hvcurveto
            -41 -9 -33 -27 -47 hhcurveto
            return
          </CharString>
          <CharString index="292">
            -143 -117 -79 -143 -64 vhcurveto
            153 675 -523 -58 -21 -95 63 -17 52 -16 9 -19 -12 -58 rlinecurve
            -264 -1239 225 0 137 116 rlineto
            -74 31 87 -65 142 hhcurveto
            313 230 299 389 hvcurveto
            -384 8 rmoveto
            -220 -1 -80 -324 -177 hhcurveto
            -58 -38 29 35 -9 hvcurveto
            96 71 callgsubr
            return
          </CharString>
          <CharString index="293">
            10 -20 -13 -58 -89 -421 rcurveline
            -233 -48 92 -143 215 hhcurveto
            162 137 96 170 79 hvcurveto
            -3 -13 -7 -37 -13 vvcurveto
            -132 -9 68 -66 128 hhcurveto
            126 129 59 80 64 hvcurveto
            22 99 rlineto
            -21 -31 -35 -91 callgsubr
            158 744 -515 -63 -19 42 callgsubr
            -80 hhcurveto
            -70 -36 55 105 22 hvcurveto
            endchar
          </CharString>
          <CharString index="294">
            627 hlineto
            522 327 160 289 hvcurveto
            -351 650 rmoveto
            -169 -114 -115 -188 vhcurveto
            -95 -1 110 517 57 -2 rlineto
            144 -6 86 -79 -145 vvcurveto
            -88 -650 rmoveto
            -193 -131 -135 -270 -7 vhcurveto
            -58 -1 126 588 94 -2 rlineto
            140 -4 99 -87 -159 vvcurveto
            return
          </CharString>
          <CharString index="295">
            1519 509 rmoveto
            237 -203 141 -341 1 vhcurveto
            -183 hlineto
            70 330 19 89 28 15 145 23 rlinecurve
            21 99 -720 0 -21 -99 rlineto
            122 -20 18 -18 -19 -89 -211 -992 rcurveline
            -18 -88 -24 -18 -133 -21 -21 -99 rcurveline
            741 hlineto
            427 303 192 317 hvcurveto
            return
          </CharString>
          <CharString index="296">
            1508 1525 449 rmoveto
            160 -121 143 -266 28 vhcurveto
            246 18 208 103 1 209 rrcurveto
            207 1 -195 127 -421 hhcurveto
            -622 hlineto
            -21 -99 rlineto
            124 -20 16 -18 -18 -90 -211 -991 rcurveline
            -19 -88 -66 callsubr
            187 callsubr
            return
          </CharString>
          <CharString index="297">
            145 -1141 324 0 624 1124 99 179 32 28 114 17 rlinecurve
            20 99 -457 0 -20 -99 134 -21 16 -34 -88 -168 rlinecurve
            -436 -827 -85 841 -16 152 27 36 144 21 rlinecurve
            20 99 -726 0 -21 -99 102 -16 27 -26 21 -165 rlinecurve
            return
          </CharString>
          <CharString index="298">
            -471 -58 -20 -98 49 -11 rlineto
            56 -17 15 -17 3 -48 52 -795 rcurveline
            281 hlineto
            285 279 298 376 208 vvcurveto
            113 -82 76 -108 -103 -83 -73 -104 -99 79 -79 99 vhcurveto
            3 3 0 2 hhcurveto
            -59 -162 -119 -161 -147 -162 rrcurveto
            return
          </CharString>
          <CharString index="299">
            rmoveto
            368 230 270 330 276 -195 196 -298 -368 -230 -270 -330 -275 195 -197 298 hvcurveto
            -6 127 rmoveto
            -77 -35 70 145 232 84 371 145 76 36 -69 -146 -231 -84 -372 -145 hvcurveto
            endchar
          </CharString>
          <CharString index="300">
            1553 rmoveto
            -225 -140 -150 -246 -7 hvcurveto
            111 hlineto
            100 18 95 58 137 -23 callgsubr
            return
          </CharString>
          <CharString index="301">
            -164 -106 -137 -213 vhcurveto
            -89 hlineto
            -21 -99 rlineto
            132 -24 13 -24 -24 -116 -125 -610 rcurveline
            -260 -54 -144 -131 -188 108 callsubr
            20 90 23 18 138 23 rlinecurve
            20 99 -697 0 -21 -99 114 -22 16 -19 -19 -90 rlinecurve
            return
          </CharString>
          <CharString index="302">
            rmoveto
            -379 hlineto
            -15 -66 75 -12 7 -21 -15 100 callgsubr
            272 9 callgsubr
            2 0 156 272 -88 -478 -8 -45 -14 -13 -79 -10 rlinecurve
            -14 -66 431 0 15 66 -74 76 callgsubr
            14 67 -388 0 -232 -458 rlineto
            return
          </CharString>
          <CharString index="303">
            rmoveto
            -1140 hlineto
            -21 -99 123 -20 17 -18 -19 -89 rlinecurve
            -210 -992 -19 -88 -24 -18 -133 -21 rlinecurve
            -21 -99 731 0 21 99 -148 22 -19 17 19 87 rlinecurve
            234 1106 160 -7 241 -10 38 -45 8 -223 rlinecurve
            89 hlineto
            endchar
          </CharString>
          <CharString index="304">
            93 -97 -193 11 hvcurveto
            87 hlineto
            48 324 -78 45 -131 40 -156 4 rlinecurve
            43 205 -82 0 -44 -205 rlineto
            -393 -17 -165 -68 callgsubr
            104 -67 rlineto
            130 -79 37 -48 2 -84 2 -122 -98 -70 -147 -1 -193 -1 return
          </CharString>
          <CharString index="305">
            1003 69 58 rmoveto
            86 -89 140 158 47 -32 rlineto
            -89 131 78 -33 104 hhcurveto
            154 153 102 233 114 hvcurveto
            -67 59 -49 -73 -55 -31 -54 1 rlinecurve
            -72 -61 25 63 -106 hvcurveto
            -59 36 535 542 21 97 49 callgsubr
            return
          </CharString>
          <CharString index="306">
            -19 19 19 87 rlinecurve
            94 444 139 -2 89 -2 20 -35 -5 -168 rlinecurve
            84 hlineto
            111 522 rlineto
            -85 hlineto
            -63 -161 -34 -36 -92 -3 rrcurveto
            -140 -2 116 549 156 -7 227 -10 43 -47 11 -234 rlinecurve
            91 hlineto
            endchar
          </CharString>
          <CharString index="307">
            67 -62 126 11 217 rlinecurve
            376 11 166 212 222 hhcurveto
            192 109 -139 -258 -12 hvcurveto
            -9 -323 -127 -214 -200 -68 rrcurveto
            -70 -336 650 0 138 406 rlineto
            -79 hlineto
            -99 -150 return
          </CharString>
          <CharString index="308">
            1739 rmoveto
            -118 113 -74 146 192 109 95 113 118 -112 75 -147 -192 -109 -97 -112 vhcurveto
            199 -18 rmoveto
            79 43 58 53 41 26 -31 -54 -78 -44 -59 -53 -40 -26 31 54 vhcurveto
            return
          </CharString>
          <CharString index="309">
            1553 rmoveto
            -226 -139 -150 -246 -8 hvcurveto
            111 hlineto
            100 19 94 58 137 hhcurveto
            117 81 -63 -80 -6 -1 -5 -1 -4 hvcurveto
            111 hlineto
            11 29 7 38 39 vvcurveto
            163 -128 127 -185 vhcurveto
            return
          </CharString>
          <CharString index="310">
            -484 rmoveto
            92 95 32 49 50 hvcurveto
            20 95 rlineto
            -13 -24 -29 -8 -36 hhcurveto
            -63 -43 31 64 77 55 73 126 72 hvcurveto
            96 55 -112 0 -139 -62 rlineto
            -238 -110 -76 -82 -107 vvcurveto
            -93 88 -73 138 vhcurveto
            endchar
          </CharString>
          <CharString index="311">
            1563 rmoveto
            189 168 98 215 62 hvcurveto
            -105 29 rlineto
            -144 -44 -116 -86 -127 hhcurveto
            -19 -19 1 3 -16 hvcurveto
            32 23 23 37 45 vvcurveto
            86 -63 62 -77 -92 -62 -65 -92 -115 93 -97 173 vhcurveto
            return
          </CharString>
          <CharString index="312">
            -19 17 -19 -19 -89 rlinecurve
            -232 -1092 -429 0 233 1096 18 88 20 21 121 14 rlinecurve
            21 99 -675 0 -21 -99 113 -14 13 -21 -19 -88 rlinecurve
            -233 -1096 -429 155 callsubr
          </CharString>
          <CharString index="313">
            144 rlinecurve
            159 805 443 -1095 349 0 257 1165 29 131 25 29 126 20 rlinecurve
            21 99 -445 0 -21 -99 rlineto
            132 -23 13 -23 -25 -134 -147 -758 rcurveline
            return
          </CharString>
          <CharString index="314">
            rrcurveto
            181 2 129 81 136 hhcurveto
            25 24 -3 -4 22 hvcurveto
            -41 -24 -27 -43 -55 vvcurveto
            -86 63 -65 87 87 67 68 87 145 -148 107 -249 -317 -234 -173 -288 -5 vhcurveto
            return
          </CharString>
          <CharString index="315">
            -386 -47 -130 -614 rlineto
            -125 -27 -70 -85 -86 hhcurveto
            -66 -27 55 98 20 hvcurveto
            151 718 -387 -45 -128 -617 rlineto
            -122 -27 -70 -87 -85 hhcurveto
            -66 -26 57 96 20 hvcurveto
            return
          </CharString>
          <CharString index="316">
            413 546 107 26 callgsubr
            -101 -142 rlinecurve
            -285 -405 -119 415 -39 133 18 33 132 17 rlinecurve
            20 99 -719 0 -21 -99 97 -16 26 -28 48 -146 rlinecurve
            return
          </CharString>
          <CharString index="317">
            560 1466 rmoveto
            -109 -56 -65 -117 -7 hvcurveto
            -6 -71 7 -83 11 -123 rrcurveto
            20 -205 63 0 88 171 79 155 54 105 1 81 rlinecurve
            88 1 -51 64 -95 hhcurveto
            return
          </CharString>
          <CharString index="318">
            99 229 65 54 197 12 rrcurveto
            45 3 -234 -1106 -19 -86 -24 -20 -147 -20 rlinecurve
            -21 -99 733 0 21 99 rlineto
            -137 21 -18 18 19 87 91 431 rcurveline
            return
          </CharString>
          <CharString index="319">
            0 -21 -99 rlineto
            153 -17 28 -37 -31 -132 -27 -115 -28 -116 -53 -190 -57 -224 -57 -181 -71 -114 rrcurveto
            76 -22 -64 49 -83 hhcurveto
            -111 -75 -85 -101 return
          </CharString>
          <CharString index="320">
            -34 vvcurveto
            -159 -124 -126 -165 vhcurveto
            -83 -70 27 -113 hhcurveto
            -362 -268 -258 -347 hvcurveto
            375 -131 rmoveto
            165 callsubr
            -72 -42 67 143 vhcurveto
            return
          </CharString>
          <CharString index="321">
            -94 -443 rcurveline
            -205 -44 78 -148 209 hhcurveto
            142 142 72 177 79 hvcurveto
            -150 -8 88 -99 186 hhcurveto
            145 147 86 183 75 hvcurveto
            -3 -12 return
          </CharString>
          <CharString index="322">
            51 vhcurveto
            209 24 205 114 205 vvcurveto
            218 return
          </CharString>
          <CharString index="323">
            20 -17 18 18 89 rlinecurve
            211 992 19 89 24 17 return
          </CharString>
          <CharString index="324">
            6 34 34 vvcurveto
            143 -1 -115 111 -167 hhcurveto
            return
          </CharString>
          <CharString index="325">
            0 207 1822 rmoveto
            69 65 43 61 13 hvcurveto
            63 return
          </CharString>
          <CharString index="326">
            hvcurveto
            82 386 -146 0 -85 -70 rlineto
            44 -19 -53 39 return
          </CharString>
          <CharString index="327">
            rmoveto
            -192 -312 103 0 436 303 rlineto
            9 vlineto
            return
          </CharString>
          <CharString index="328">
            rmoveto
            -191 -312 103 0 435 302 rlineto
            10 vlineto
            return
          </CharString>
          <CharString index="329">
            rmoveto
            233 137 170 -137 113 callgsubr
            return
          </CharString>
          <CharString index="330">
            rrcurveto
            -50 -237 990 0 75 319 rlineto
            -661 hlineto
            return
          </CharString>
          <CharString index="331">
            hlineto
            36 161 rmoveto
            -219 hlineto
            281 293 rlineto
            endchar
          </CharString>
        <CharString name=".notdef">
          2048 -494 vmoveto
          -53 callgsubr
          -109 -2444 rmoveto
          -53 callgsubr
          -110 -2444 rmoveto
          52 callgsubr
          52 callgsubr
          -53 callgsubr
          endchar
        </CharString>
        <CharString name=".null">
          0 endchar
        </CharString>
        <CharString name="A">
          1481 1354 306 -105 callsubr
        </CharString>
        <CharString name="AE">
          2015 2198 1444 133 callsubr
        </CharString>
        <CharString name="AEacute">
          2015 1563 -87 callsubr
          288 -411 133 callsubr
        </CharString>
        <CharString name="AEmacron">
          2015 1190 -5 callsubr
          970 -334 133 callsubr
        </CharString>
        <CharString name="Aacute">
          1481 1114 -71 callsubr
          -107 -1549 -105 callsubr
        </CharString>
        <CharString name="Abreve">
          1481 1077 110 callsubr
          146 callsubr
          277 -1259 -105 callsubr
        </CharString>
        <CharString name="Abreveacute">
          1481 1456 34 callsubr
          293 -268 -53 callsubr
          323 -1224 -105 callsubr
        </CharString>
        <CharString name="Abrevecyrillic">
          1481 1033 204 callsubr
          321 -1257 -105 callsubr
        </CharString>
        <CharString name="Abrevedotbelow">
          1481 1077 110 callsubr
          146 callsubr
          277 -1259 rmoveto
          -44 callsubr
          21 callsubr
          -327 -720 -76 callsubr
        </CharString>
        <CharString name="Abrevegrave">
          1481 757 109 callsubr
          238 -527 -53 callsubr
          323 -1224 -105 callsubr
        </CharString>
        <CharString name="Abrevehookabove">
          1481 1126 2047 rmoveto
          -93 -90 -32 -42 -59 hvcurveto
          -14 -62 rlineto
          14 34 60 13 50 hhcurveto
          82 35 77 callgsubr
          97 48 17 85 rlinecurve
          83 17 -87 53 -134 hhcurveto
          -95 -517 -53 callsubr
          323 -1224 -105 callsubr
        </CharString>
        <CharString name="Abrevetilde">
          1481 1236 1826 rmoveto
          131 96 76 134 26 hvcurveto
          -116 hlineto
          -45 -9 -31 -21 -49 hhcurveto
          -28 -31 7 12 -36 hvcurveto
          -38 11 rlineto
          15 -49 -49 13 -56 hhcurveto
          -130 -97 -76 -134 -51 callgsubr
          31 -7 -11 36 hvcurveto
          38 -12 rlineto
          -15 49 48 -13 57 hhcurveto
          -205 -296 -53 callsubr
          323 -1224 -105 callsubr
        </CharString>
        <CharString name="Acaron">
          1481 1313 -88 callsubr
          -82 callsubr
          -78 -1559 -105 callsubr
        </CharString>
        <CharString name="Acircumflex">
          1481 836 1543 rmoveto
          233 137 170 -137 106 0 -130 311 -234 0 -256 -311 rlineto
          629 -1237 -105 callsubr
        </CharString>
        <CharString name="Acircumflexacute">
          1481 1452 100 callsubr
          -34 callsubr
          661 -1273 -105 callsubr
        </CharString>
        <CharString name="Acircumflexdotbelow">
          1481 836 1543 rmoveto
          233 137 170 -137 106 0 -130 311 -234 0 -256 -311 rlineto
          629 -1237 rmoveto
          -44 callsubr
          21 callsubr
          -327 -720 -76 callsubr
        </CharString>
        <CharString name="Acircumflexgrave">
          1481 753 1865 rmoveto
          681 -73 callgsubr
          -34 callsubr
          661 -1273 -105 callsubr
        </CharString>
        <CharString name="Acircumflexhookabove">
          1481 1424 78 callsubr
          22 callgsubr
          661 -1273 -105 callsubr
        </CharString>
        <CharString name="Acircumflextilde">
          1481 1232 34 callgsubr
          -49 hhcurveto
          -28 -31 7 11 -36 hvcurveto
          -38 12 rlineto
          15 -49 -49 12 84 callsubr
          -52 callgsubr
          56 hhcurveto
          -557 -311 -49 callsubr
          -34 callsubr
          661 -1273 -105 callsubr
        </CharString>
        <CharString name="Acyrillic">
          1481 1354 306 -105 callsubr
        </CharString>
        <CharString name="Adblgrave">
          1481 906 36 callsubr
          99 hlineto
          299 312 rmoveto
          -256 -7 hlineto
          124 -305 rlineto
          91 hlineto
          137 -1235 -105 callsubr
        </CharString>
        <CharString name="Adieresis">
          1481 881 -48 callsubr
          -15 callsubr
          -59 callsubr
          33 callsubr
          112 -1255 -105 callsubr
        </CharString>
        <CharString name="Adieresismacron">
          1481 751 -61 callgsubr
          12 hvcurveto
          62 14 -47 43 -68 hhcurveto
          -16 hlineto
          -23 callsubr
          -14 hvcurveto
          -61 -12 46 -44 69 hhcurveto
          146 -1243 -105 callsubr
        </CharString>
        <CharString name="Adotaccent">
          1481 1062 -89 callsubr
          124 callsubr
          292 -1238 -105 callsubr
        </CharString>
        <CharString name="Adotbelow">
          1481 1354 306 rmoveto
          -44 callsubr
          21 callsubr
          -327 -720 -76 callsubr
        </CharString>
        <CharString name="Adotmacron">
          1481 745 1830 -80 callgsubr
          70 callgsubr
          79 callgsubr
          293 -1235 -105 callsubr
        </CharString>
        <CharString name="Agrave">
          1481 1047 104 callsubr
          222 -1236 -105 callsubr
        </CharString>
        <CharString name="Ahookabove">
          1481 1109 1884 65 callsubr
          38 callsubr
          163 callsubr
          245 -1578 -105 callsubr
        </CharString>
        <CharString name="Ainvertedbreve">
          1481 1073 55 callsubr
          -135 -213 -5 hvcurveto
          96 hlineto
          90 17 85 52 125 hhcurveto
          106 73 -55 103 callsubr
          281 -1607 -105 callsubr
        </CharString>
        <CharString name="Alphagreek">
          1481 1354 306 -105 callsubr
        </CharString>
        <CharString name="Alphatonosgreek">
          1481 1354 306 rmoveto
          -44 callsubr
          15 -152 -26 -36 -144 -21 rlinecurve
          -21 -99 727 0 -40 callgsubr
          -983 1138 rmoveto
          -131 -405 160 0 324 393 rlineto
          12 vlineto
          -173 -859 rmoveto
          297 563 57 -563 rlineto
          endchar
        </CharString>
        <CharString name="Amacron">
          1481 741 -28 callsubr
          38 179 rlineto
          -609 hlineto
          574 -1472 -105 callsubr
        </CharString>
        <CharString name="Aogonek">
          1481 1093 -65 callgsubr
          -23 -9 -26 hhcurveto
          -66 -46 72 102 56 18 53 32 38 hvcurveto
          281 hlineto
          -40 callgsubr
          -44 callsubr
          rlineto
          15 -152 -26 -36 -144 -21 -21 -99 rcurveline
          321 hlineto
          86 callgsubr
          -542 1071 rmoveto
          297 563 57 -563 rlineto
          endchar
        </CharString>
        <CharString name="Aring">
          1481 797 201 callsubr
          358 -1415 -105 callsubr
        </CharString>
        <CharString name="Aringacute">
          1481 1453 1867 rmoveto
          36 173 -738 -180 -16 -79 rlineto
          333 -262 rmoveto
          155 112 47 72 15 hvcurveto
          71 15 -92 47 -155 -28 callgsubr
          31 20 44 hhcurveto
          35 hlineto
          45 20 -20 -31 -6 hvcurveto
          -31 -6 -31 -21 -44 hhcurveto
          293 -1280 -105 callsubr
        </CharString>
        <CharString name="Aringbelow">
          1481 1354 306 rmoveto
          -44 callsubr
          21 callsubr
          -646 -881 rmoveto
          -117 2 127 -73 163 hhcurveto
          213 120 96 108 -5 hvcurveto
          117 -2 -127 73 -163 hhcurveto
          -213 -120 -97 -107 5 hvcurveto
          220 -18 rmoveto
          74 -2 47 55 58 hhcurveto
          45 30 -29 -50 2 hvcurveto
          -75 2 -47 -55 -58 hhcurveto
          -45 -30 29 51 -2 hvcurveto
          endchar
        </CharString>
        <CharString name="Atilde">
          1481 1178 1567 rmoveto
          97 82 63 235 29 hvcurveto
          -99 hlineto
          -86 -15 118 callsubr
          -76 callgsubr
          21 -10 -18 25 -98 callgsubr
          176 -1261 -105 callsubr
        </CharString>
        <CharString name="B">
          1508 1525 449 72 callsubr
        </CharString>
        <CharString name="Bdotaccent">
          1508 1060 -89 callsubr
          -3 callsubr
          465 -1095 72 callsubr
        </CharString>
        <CharString name="Bdotbelow">
          189 callsubr
          -393 -584 rmoveto
          -91 -73 -72 -88 -83 64 -66 87 91 52 callsubr
        </CharString>
        <CharString name="Becyrillic">
          1494 1522 474 rmoveto
          232 -202 140 -341 vhcurveto
          -191 hlineto
          101 482 219 -7 251 -8 42 -47 14 -220 rlinecurve
          93 hlineto
          73 398 -1226 0 -21 -99 rlineto
          127 -21 17 -17 -18 -89 -47 callsubr
          -24 -18 -137 -21 -21 -99 rcurveline
          746 hlineto
          423 305 177 297 hvcurveto
          -427 11 rmoveto
          -198 -133 -159 -252 -10 vhcurveto
          -77 -2 130 612 92 -1 rlineto
          147 -2 93 -75 -165 vvcurveto
          endchar
        </CharString>
        <CharString name="Betagreek">
          1508 1525 449 72 callsubr
        </CharString>
        <CharString name="Blinebelow">
          189 callsubr
          -733 -829 -90 callsubr
        </CharString>
        <CharString name="C">
          1428 674 544 -55 callsubr
          -13 callsubr
        </CharString>
        <CharString name="Cacute">
          1428 1228 -71 callsubr
          -901 -1311 -55 callsubr
          -13 callsubr
        </CharString>
        <CharString name="Ccaron">
          1428 1427 -88 callsubr
          -172 -77 callgsubr
          -873 -1321 -55 callsubr
          -13 callsubr
        </CharString>
        <CharString name="Ccedilla">
          1428 674 544 -55 callsubr
          -5 -415 271 -220 327 -41 rrcurveto
          -115 -117 -50 callsubr
          -53 -45 16 18 -29 -38 callgsubr
          111 callsubr
          60 58 rlineto
          180 148 callsubr
        </CharString>
        <CharString name="Ccedillaacute">
          1428 1228 -71 callsubr
          -901 -1311 -55 callsubr
          -5 -415 271 -220 327 -41 rrcurveto
          -115 -117 -50 callsubr
          -53 -45 16 18 -29 -38 callgsubr
          111 callsubr
          60 58 rlineto
          180 148 callsubr
        </CharString>
        <CharString name="Ccircumflex">
          1428 950 -60 callsubr
          -165 -999 -55 callsubr
          -13 callsubr
        </CharString>
        <CharString name="Cdotaccent">
          1428 1176 -89 callsubr
          123 callsubr
          -502 -1000 -55 callsubr
          -13 callsubr
        </CharString>
        <CharString name="Checyrillic">
          1646 1091 226 rmoveto
          -20 -91 -29 -16 -148 -20 rrcurveto
          -21 -99 725 0 21 99 -123 18 -18 18 20 91 rlinecurve
          210 992 20 91 24 18 132 53 callsubr
          rlineto
          117 -18 17 -18 -20 -91 -98 -465 rcurveline
          -23 -74 -69 -15 -87 hhcurveto
          -142 -69 94 209 45 hvcurveto
          43 204 19 86 18 24 118 13 rlinecurve
          21 99 -683 0 -21 -99 rlineto
          124 -16 15 -21 -19 -86 -40 -188 rcurveline
          -323 -69 156 -150 355 hhcurveto
          144 95 30 33 92 hvcurveto
          endchar
        </CharString>
        <CharString name="Chigreek">
          1447 348 321 9 callsubr
        </CharString>
        <CharString name="D">
          1648 -21 callsubr
          endchar
        </CharString>
        <CharString name="Dbar">
          1648 195 687 rmoveto
          149 hlineto
          -98 -461 rlineto
          -19 -88 -66 callsubr
          617 hlineto
          606 444 323 500 -1 hvcurveto
          -39 callsubr
          -91 -425 rcurveline
          -149 hlineto
          1049 99 rmoveto
          -420 -232 -337 -350 -19 vhcurveto
          -55 -2 122 573 209 0 23 106 -210 0 114 538 48 -3 rlineto
          208 -12 123 -174 -250 vvcurveto
          endchar
        </CharString>
        <CharString name="Dcaron">
          1648 1314 -88 callsubr
          -82 callsubr
          282 -1042 rmoveto
          -39 callsubr
          -47 callsubr
          -66 callsubr
          117 callsubr
          endchar
        </CharString>
        <CharString name="Dcircumflexbelow">
          1648 -21 callsubr
          -867 -1362 rmoveto
          245 15 callgsubr
        </CharString>
        <CharString name="Dcommaaccent">
          1648 -21 callsubr
          -666 -1372 -86 callsubr
          -84 -71 -31 -46 -42 hvcurveto
          -18 -77 rlineto
          5 18 33 5 26 hhcurveto
          51 -6 callsubr
          -19 -83 rlineto
          -36 44 74 -25 88 hhcurveto
          endchar
        </CharString>
        <CharString name="Ddotaccent">
          1648 1063 -89 callsubr
          -3 callsubr
          652 -721 rmoveto
          -39 callsubr
          -47 callsubr
          -66 callsubr
          117 callsubr
          endchar
        </CharString>
        <CharString name="Ddotbelow">
          1648 -21 callsubr
          -618 -1027 25 callsubr
        </CharString>
        <CharString name="Decyrillic">
          1543 652 820 rmoveto
          35 127 54 221 36 149 rrcurveto
          421 hlineto
          -254 -1190 rlineto
          -581 hlineto
          112 138 87 206 90 349 rrcurveto
          904 -693 rmoveto
          -204 hlineto
          232 1091 19 89 25 18 132 20 rlinecurve
          21 99 -1311 0 -21 -99 rlineto
          157 -18 25 -37 -34 -150 -23 -95 -30 -118 -32 -106 -88 -334 -96 -226 -131 -134 rrcurveto
          -144 hlineto
          -105 -451 rlineto
          98 hlineto
          259 121 70 65 238 hhcurveto
          604 hlineto
          238 48 -61 -263 9 hvcurveto
          98 hlineto
          endchar
        </CharString>
        <CharString name="Deltagreek">
          1365 34 hmoveto
          1275 hlineto
          17 87 -199 1358 -313 0 -762 -1358 rlineto
          169 31 rmoveto
          548 1017 119 -1017 rlineto
          endchar
        </CharString>
        <CharString name="Djecyrillic">
          1811 1831 431 rmoveto
          269 -188 137 -291 -126 -91 -22 -27 -82 vhcurveto
          60 callgsubr
          74 411 -1288 0 -97 -411 rlineto
          90 hlineto
          211 callsubr
          18 62 59 10 72 hhcurveto
          132 77 -75 -156 -300 -151 -298 -296 -161 hvcurveto
          28 -82 rlineto
          527 152 296 294 373 vvcurveto
          endchar
        </CharString>
        <CharString name="Dlinebelow">
          1648 -21 callsubr
          -959 -1272 -90 callsubr
        </CharString>
        <CharString name="Dzecyrillic">
          1220 620 -30 67 callsubr
          endchar
        </CharString>
        <CharString name="Dzhecyrillic">
          1671 159 callsubr
          541 hlineto
          121 18 -34 -286 -10 hvcurveto
          98 hlineto
          286 112 32 34 121 hhcurveto
          541 hlineto
          21 99 -123 216 callsubr
          133 21 rlinecurve
          21 99 -697 0 -21 -99 117 -19 16 -19 -19 -89 rlinecurve
          -232 -1092 -463 155 callsubr
        </CharString>
        <CharString name="E">
          1320 1515 1444 -103 callsubr
          -99 callsubr
        </CharString>
        <CharString name="Eacute">
          1320 1065 -71 callsubr
          103 -411 -103 callsubr
          -99 callsubr
        </CharString>
        <CharString name="Ebreve">
          1320 1028 126 callsubr
          -125 hhcurveto
          -106 -73 -85 callgsubr
          -97 99 callsubr
          487 -121 -103 callsubr
          -99 callsubr
        </CharString>
        <CharString name="Ecaron">
          1320 1264 -88 callsubr
          -82 callsubr
          132 -421 -103 callsubr
          -99 callsubr
        </CharString>
        <CharString name="Ecedilla">
          1320 602 -40 callsubr
          87 85 rlineto
          3 484 vlineto
          77 callsubr
          -51 callsubr
          74 411 -1157 0 -21 -99 124 -20 -55 callgsubr
          598 167 callsubr
          -39 -25 -69 102 callsubr
        </CharString>
        <CharString name="Ecedillabreve">
          1320 1028 126 callsubr
          -125 hhcurveto
          -106 -73 -85 callgsubr
          -97 99 callsubr
          -426 -2045 rmoveto
          111 callsubr
          87 85 rlineto
          3 484 vlineto
          77 callsubr
          -51 callsubr
          74 411 -1157 0 -21 -99 124 -20 -55 callgsubr
          598 167 callsubr
          -39 -25 -69 102 callsubr
        </CharString>
        <CharString name="Ecircumflex">
          1320 787 -60 callsubr
          839 -99 -103 callsubr
          -99 callsubr
        </CharString>
        <CharString name="Ecircumflexacute">
          1320 1403 100 callsubr
          43 callsubr
          872 -135 -103 callsubr
          -99 callsubr
        </CharString>
        <CharString name="Ecircumflexbelow">
          1320 1515 1444 -103 callsubr
          -51 callsubr
          -1054 -1503 -29 callsubr
        </CharString>
        <CharString name="Ecircumflexdotbelow">
          1320 787 -60 callsubr
          839 -99 -103 callsubr
          -51 callsubr
          -805 -1168 -30 callsubr
          92 52 callsubr
        </CharString>
        <CharString name="Ecircumflexgrave">
          1320 703 1865 rmoveto
          682 -73 callgsubr
          43 callsubr
          872 -135 -103 callsubr
          -99 callsubr
        </CharString>
        <CharString name="Ecircumflexhookabove">
          1320 1375 78 callsubr
          92 49 19 84 rlinecurve
          83 17 -83 53 -129 -37 callgsubr
          43 callsubr
          872 -135 -103 callsubr
          -99 callsubr
        </CharString>
        <CharString name="Ecircumflextilde">
          1320 1182 1807 rmoveto
          131 96 76 134 27 hvcurveto
          -116 hlineto
          -46 -9 -31 -20 -49 hhcurveto
          -29 -30 129 callsubr
          84 callsubr
          -52 callgsubr
          55 hhcurveto
          -556 -311 -49 callsubr
          43 callsubr
          872 -135 -103 callsubr
          -99 callsubr
        </CharString>
        <CharString name="Ecyrillic">
          1434 675 544 rmoveto
          42 2 43 5 41 vhcurveto
          533 -9 32 146 -544 -9 rlineto
          297 66 178 243 222 hhcurveto
          176 99 -127 -236 7 hvcurveto
          90 -3 64 368 rlineto
          70 -100 -192 63 -215 hhcurveto
          -494 -363 -328 -492 -5 hvcurveto
          -462 -5 336 -221 375 hhcurveto
          181 155 41 64 93 hvcurveto
          82 383 -91 -1 rlineto
          -221 -84 -142 -132 -152 hhcurveto
          -188 -121 168 272 hvcurveto
          endchar
        </CharString>
        <CharString name="Edblgrave">
          1320 857 36 callsubr
          99 101 callgsubr
          90 hlineto
          347 -97 -103 callsubr
          -99 callsubr
        </CharString>
        <CharString name="Edieresis">
          1320 832 -48 callsubr
          33 callsubr
          -54 callgsubr
          -66 -64 -81 -74 56 -58 78 hvcurveto
          321 -117 -103 callsubr
          -99 callsubr
        </CharString>
        <CharString name="Edotaccent">
          1320 1013 -89 callsubr
          -64 66 -86 -92 -74 -72 -90 -81 65 -66 87 hvcurveto
          502 -100 -103 callsubr
          -99 callsubr
        </CharString>
        <CharString name="Edotbelow">
          1320 1515 1444 -103 callsubr
          -51 callsubr
          -805 -1168 -30 callsubr
          92 52 callsubr
        </CharString>
        <CharString name="Efcyrillic">
          2061 183 673 rmoveto
          -262 220 -160 477 -27 vhcurveto
          -7 -34 -17 -80 -22 -20 -141 -17 rlinecurve
          -21 -98 700 0 21 98 rlineto
          -131 17 -16 19 17 81 7 33 rcurveline
          654 29 254 231 287 vvcurveto
          263 -220 160 -478 27 vhcurveto
          8 34 17 80 23 21 139 16 rlinecurve
          21 98 -699 0 -22 -98 rlineto
          132 -17 16 -19 -17 -81 -7 -33 rcurveline
          -654 -30 -254 -231 -287 vvcurveto
          445 -12 rmoveto
          230 114 164 322 37 vhcurveto
          -156 -736 rlineto
          -206 35 -74 113 157 vvcurveto
          1105 121 rmoveto
          -230 -114 -164 -322 -36 vhcurveto
          155 736 rlineto
          207 -35 74 -113 -158 vvcurveto
          endchar
        </CharString>
        <CharString name="Egrave">
          1320 998 104 callsubr
          432 -98 -103 callsubr
          -99 callsubr
        </CharString>
        <CharString name="Ehookabove">
          1320 1060 1884 65 callsubr
          38 callsubr
          -46 -48 -96 -53 hvcurveto
          92 callgsubr
          455 -440 -103 callsubr
          -99 callsubr
        </CharString>
        <CharString name="Einvertedbreve">
          1320 1024 55 callsubr
          93 callsubr
          103 callsubr
          491 -469 -103 callsubr
          -99 callsubr
        </CharString>
        <CharString name="Elcyrillic">
          1588 236 -29 rmoveto
          232 116 239 528 136 hvcurveto
          65 245 47 195 33 140 rrcurveto
          401 hlineto
          -233 -1092 -19 -91 -22 -18 -128 -18 rlinecurve
          -20 -99 696 0 22 99 -123 18 -18 18 19 91 rlinecurve
          211 992 19 91 25 18 131 18 rlinecurve
          21 99 -1290 212 callsubr
          -110 73 -77 125 hvcurveto
          endchar
        </CharString>
        <CharString name="Emacron">
          1320 692 -28 callsubr
          7 callsubr
          784 -334 -103 callsubr
          -99 callsubr
        </CharString>
        <CharString name="Emacronacute">
          1320 1407 34 callsubr
          -45 -213 -79 callgsubr
          842 -280 -103 callsubr
          -99 callsubr
        </CharString>
        <CharString name="Emacrongrave">
          1320 708 109 callsubr
          -100 -472 -79 callgsubr
          842 -280 -103 callsubr
          -99 callsubr
        </CharString>
        <CharString name="Emcyrillic">
          1905 972 1444 10 callsubr
        </CharString>
        <CharString name="Encyrillic">
          -1 callsubr
          -25 callsubr
          -59 callgsubr
          endchar
        </CharString>
        <CharString name="Eogonek">
          1320 963 -65 callgsubr
          -22 -9 -27 hhcurveto
          -66 -46 72 102 56 18 53 32 38 hvcurveto
          179 hlineto
          77 callsubr
          -51 callsubr
          74 411 -1157 0 -21 -99 rlineto
          124 -20 17 -19 -19 -88 -47 callsubr
          -66 callsubr
          897 hlineto
          86 callgsubr
          endchar
        </CharString>
        <CharString name="Epsilongreek">
          1320 1515 1444 -103 callsubr
          -99 callsubr
        </CharString>
        <CharString name="Epsilontonosgreek">
          1755 1951 1444 -103 callsubr
          -85 hlineto
          -63 -161 -35 -36 -93 -3 rrcurveto
          -162 40 callgsubr
          -1518 411 -9 callsubr
        </CharString>
        <CharString name="Ercyrillic">
          1474 776 hmoveto
          13 callsubr
        </CharString>
        <CharString name="Ereversedcyrillic">
          1477 415 1351 rmoveto
          -82 -356 rlineto
          91 hlineto
          239 95 135 110 157 hhcurveto
          207 93 -208 -288 hvcurveto
          -19 -1 -18 -18 vvcurveto
          -532 10 -31 -147 550 8 rlineto
          -303 -47 -163 -262 -258 hhcurveto
          -200 -103 141 208 -1 hvcurveto
          -91 hlineto
          -55 -353 rlineto
          -62 72 194 -62 210 hhcurveto
          545 352 341 467 453 -334 241 -380 -160 -161 -42 -80 -102 hvcurveto
          endchar
        </CharString>
        <CharString name="Escyrillic">
          1428 674 544 -55 callsubr
          -13 callsubr
        </CharString>
        <CharString name="Etagreek">
          -1 callsubr
          -25 callsubr
          -59 callgsubr
          endchar
        </CharString>
        <CharString name="Etatonosgreek">
          2119 1090 111 callgsubr
          -23 -19 -126 -18 -81 callgsubr
          -124 18 -17 20 19 90 rlinecurve
          211 990 19 90 24 20 133 53 callsubr
          20 callgsubr
          127 20 rlinecurve
          20 99 -697 0 -21 -99 124 -20 17 -20 -19 -88 rlinecurve
          -210 -990 -19 -88 -25 -20 -133 -20 -81 callgsubr
          -116 19 -16 20 18 88 rlinecurve
          -731 1218 -9 callsubr
        </CharString>
        <CharString name="Etilde">
          1320 1129 -8 callsubr
          118 callsubr
          34 -46 -48 20 -58 hhcurveto
          -96 -100 callgsubr
          26 25 35 hhcurveto
          25 112 callsubr
          386 -123 -103 callsubr
          -99 callsubr
        </CharString>
        <CharString name="Etildebelow">
          1320 1515 1444 -103 callsubr
          -51 callsubr
          -690 -1480 28 callsubr
          -24 11 21 -29 hvcurveto
          -30 22 rlineto
          37 -50 -53 23 -63 hhcurveto
          -105 -89 -69 -255 -10 callgsubr
        </CharString>
        <CharString name="F">
          1250 1493 1444 rmoveto
          -1133 hlineto
          -21 -99 124 -20 16 -19 -18 63 callsubr
          62 callsubr
          721 0 21 98 -138 21 199 callsubr
        </CharString>
        <CharString name="Fdotaccent">
          1250 1040 -89 callsubr
          123 callsubr
          453 -100 rmoveto
          -1133 hlineto
          -21 -99 124 -20 16 -19 -18 63 callsubr
          62 callsubr
          721 0 21 98 -138 21 199 callsubr
        </CharString>
        <CharString name="G">
          1590 236 653 -45 callsubr
        </CharString>
        <CharString name="Gacute">
          1590 1228 -71 callsubr
          -1339 -1202 -45 callsubr
        </CharString>
        <CharString name="Gammagreek">
          1253 1507 1444 rmoveto
          -1147 hlineto
          -21 -99 128 -21 17 -17 -19 -89 rlinecurve
          -210 -992 -19 -88 -24 -18 -138 -21 rlinecurve
          -21 -99 730 0 21 99 -142 21 -19 18 19 87 rlinecurve
          234 1106 164 -7 240 -10 37 -45 8 -223 rlinecurve
          89 hlineto
          endchar
        </CharString>
        <CharString name="Gbreve">
          1590 1191 126 callsubr
          -125 hhcurveto
          -106 -73 55 72 hvcurveto
          5 0 6 4 vvcurveto
          -96 99 callsubr
          -955 -912 -45 callsubr
        </CharString>
        <CharString name="Gcaron">
          1590 1427 -88 callsubr
          -82 callsubr
          -1310 -1212 -45 callsubr
        </CharString>
        <CharString name="Gcircumflex">
          1590 950 -60 callsubr
          -603 -890 -45 callsubr
        </CharString>
        <CharString name="Gcommaaccent">
          1590 236 653 rmoveto
          -460 -5 339 -222 371 hhcurveto
          185 210 48 80 117 hvcurveto
          86 401 18 84 20 22 118 17 rlinecurve
          21 98 -630 0 -21 -98 rlineto
          126 -17 13 -21 -17 -84 -76 -365 rcurveline
          -21 -29 -49 -10 -49 hhcurveto
          -185 -124 157 282 398 212 396 284 177 99 -127 -236 7 hvcurveto
          1 callgsubr
          574 -1133 -86 callsubr
          -84 -71 -31 -46 -42 hvcurveto
          -19 -77 rlineto
          5 19 33 5 26 -82 callgsubr
          -70 -44 -42 14 16 -35 -45 callgsubr
        </CharString>
        <CharString name="Gdotaccent">
          1590 1176 -89 callsubr
          124 callsubr
          -940 -891 -45 callsubr
        </CharString>
        <CharString name="Geacutecyrillic">
          1241 1036 -87 callsubr
          114 -411 196 callsubr
        </CharString>
        <CharString name="Gecyrillic">
          1241 1497 1444 196 callsubr
        </CharString>
        <CharString name="Germandbls">
          1635 618 hmoveto
          277 1331 143 -6 rlineto
          214 -10 80 -87 -138 vvcurveto
          -130 -95 -82 -151 -12 vhcurveto
          -56 -259 rlineto
          169 -68 81 -115 -137 vvcurveto
          -123 -70 -69 -102 -120 -75 106 197 7 vhcurveto
          -91 hlineto
          -65 -326 rlineto
          -59 72 136 -42 151 hhcurveto
          281 238 159 285 193 -91 156 -171 91 hvcurveto
          178 18 145 94 171 vvcurveto
          195 -177 111 -352 vhcurveto
          -812 hlineto
          -21 -99 rlineto
          125 -20 18 -21 -18 -86 -208 -992 rcurveline
          -18 -89 -24 -17 -134 -21 -20 -99 rcurveline
          endchar
        </CharString>
        <CharString name="Geupturncyrillic">
          1223 1453 1323 rmoveto
          104 458 rlineto
          -97 hlineto
          -268 -125 -72 -69 -229 hhcurveto
          -677 hlineto
          -21 -99 123 -20 17 -18 -19 -89 rlinecurve
          -211 -992 -19 -88 -23 -18 -133 -21 rlinecurve
          -21 -99 729 0 21 99 rlineto
          -127 21 -38 18 18 87 234 1098 rcurveline
          endchar
        </CharString>
        <CharString name="Gmacron">
          1590 855 -28 callsubr
          7 callsubr
          -658 -1125 -45 callsubr
        </CharString>
        <CharString name="H">
          -1 callsubr
          -25 callsubr
          -59 callgsubr
          endchar
        </CharString>
        <CharString name="Hacyrillic">
          1447 348 321 9 callsubr
        </CharString>
        <CharString name="Hardsigncyrillic">
          1714 1784 509 rmoveto
          237 -204 141 -340 1 vhcurveto
          -183 hlineto
          69 330 19 89 28 15 145 23 rlinecurve
          21 99 -977 0 -93 -395 rlineto
          93 hlineto
          105 237 57 33 200 8 rrcurveto
          19 1 -234 -1103 rlineto
          -19 -87 -23 -18 -135 -21 -21 -99 rcurveline
          743 hlineto
          427 303 192 317 hvcurveto
          -428 14 rmoveto
          -217 -134 -178 -251 -10 vhcurveto
          -78 -2 139 654 rlineto
          84 hlineto
          148 -3 92 -77 -167 vvcurveto
          endchar
        </CharString>
        <CharString name="Hbar">
          -1 callsubr
          -22 -19 -126 -18 rlinecurve
          -21 -99 695 0 21 99 -124 18 -16 19 19 90 rlinecurve
          167 788 149 0 22 106 -148 0 21 98 19 90 24 19 132 18 rlinecurve
          21 99 -695 0 -21 -99 117 -18 15 -19 -19 -90 rlinecurve
          -21 -98 -473 0 21 98 18 88 23 19 126 20 rlinecurve
          21 99 -695 0 -21 -99 124 -20 16 -19 -19 -88 rlinecurve
          -21 -98 -148 0 -23 -106 149 0 -168 -788 49 callsubr
          695 0 21 99 -116 19 -16 20 19 88 rlinecurve
          121 571 rmoveto
          46 217 473 0 -46 -217 rlineto
          endchar
        </CharString>
        <CharString name="Hbrevebelow">
          -1 callsubr
          -25 callsubr
          -59 callgsubr
          130 -693 -62 callgsubr
          -16 -88 -52 -127 hhcurveto
          -109 -76 56 73 5 0 5 1 4 hvcurveto
          -103 hlineto
          -10 -26 -6 -35 1 -35 rrcurveto
          -147 1 119 -114 172 hhcurveto
          endchar
        </CharString>
        <CharString name="Hcaron">
          1681 1449 1865 rmoveto
          -234 17 callgsubr
          -917 -1639 rmoveto
          29 callsubr
          -59 callgsubr
          endchar
        </CharString>
        <CharString name="Hcedilla">
          1681 289 -40 callsubr
          87 86 rlineto
          2 290 vlineto
          21 99 -116 19 -17 20 19 88 rlinecurve
          29 callsubr
          288 0 -137 -140 -16 -77 rlineto
          1 2 31 1 4 hhcurveto
          70 36 -26 -42 -41 -40 -25 -68 -53 107 callsubr
        </CharString>
        <CharString name="Hcircumflex">
          1681 972 1542 rmoveto
          233 137 170 -137 106 0 -130 312 -233 0 -257 -312 rlineto
          -209 -1316 rmoveto
          29 callsubr
          -59 callgsubr
          endchar
        </CharString>
        <CharString name="Hdieresis">
          1681 1018 1560 rmoveto
          79 66 65 79 74 -56 59 -76 -81 -66 -64 -81 -73 56 -59 78 hvcurveto
          361 hmoveto
          79 66 65 79 74 -56 59 -76 -80 -66 -64 -81 -1 hvcurveto
          -73 57 -59 77 vhcurveto
          -727 -1334 rmoveto
          29 callsubr
          -59 callgsubr
          endchar
        </CharString>
        <CharString name="Hdotaccent">
          1681 1198 1544 rmoveto
          91 73 72 88 82 -64 66 -86 -91 -75 -71 -90 -82 65 -65 87 hvcurveto
          -546 -1318 rmoveto
          29 callsubr
          -59 callgsubr
          endchar
        </CharString>
        <CharString name="Hdotbelow">
          -1 callsubr
          -25 callsubr
          -59 callgsubr
          134 -361 -76 callsubr
        </CharString>
        <CharString name="I">
          802 653 226 -95 callsubr
        </CharString>
        <CharString name="IAcyrillic">
          1523 328 978 rmoveto
          -153 87 -99 151 -40 vhcurveto
          -236 -297 -128 -159 -101 -110 -72 -27 rlinecurve
          -21 -93 447 0 469 608 rlineto
          -1 6 6 0 7 hhcurveto
          106 hlineto
          -81 -381 -19 -91 -24 -18 -126 -18 -81 callgsubr
          rlineto
          -124 18 -17 18 20 91 210 992 rcurveline
          19 91 23 18 134 18 21 99 rcurveline
          -736 hlineto
          -476 -242 -183 -283 hvcurveto
          417 -18 rmoveto
          203 122 154 252 9 vhcurveto
          82 2 -128 -603 -94 1 rlineto
          -142 2 -92 84 148 vvcurveto
          endchar
        </CharString>
        <CharString name="IJ">
          1608 1467 14 callgsubr
          123 -21 17 -18 -18 -89 rlinecurve
          -197 -925 -70 88 callsubr
          -814 -54 -95 callsubr
        </CharString>
        <CharString name="IJacute">
          1608 807 1856 221 callsubr
          447 -1 220 callsubr
          -481 -1575 rmoveto
          200 938 19 88 23 -75 callgsubr
          -18 -89 rlinecurve
          -197 -925 -70 88 callsubr
          -814 -54 -95 callsubr
        </CharString>
        <CharString name="IUcyrillic">
          2372 48 hmoveto
          697 hlineto
          21 99 rlineto
          -117 19 -17 19 19 89 95 449 rcurveline
          184 hlineto
          -13 -1 -14 -14 vvcurveto
          -362 234 -301 453 496 336 370 470 361 -234 302 -452 -1 vhcurveto
          -438 -1 -312 -286 -68 -389 rrcurveto
          -172 hlineto
          90 421 18 89 23 18 128 -92 callgsubr
          59 callgsubr
          1542 hmoveto
          -155 -81 150 261 362 135 473 256 155 81 -150 -261 -362 -135 -473 -256 hvcurveto
          endchar
        </CharString>
        <CharString name="Iacute">
          802 807 1856 221 callsubr
          -501 -1630 -95 callsubr
        </CharString>
        <CharString name="Ibreve">
          802 770 1566 rmoveto
          204 122 134 213 5 hvcurveto
          -97 hlineto
          -89 -16 -85 -53 -125 hhcurveto
          -106 -74 55 72 hvcurveto
          6 1 5 4 vvcurveto
          -96 hlineto
          -10 -25 -6 -34 -35 vvcurveto
          -142 1 114 -111 168 hhcurveto
          -117 -1340 -95 callsubr
        </CharString>
        <CharString name="Icaron">
          802 1006 1866 rmoveto
          -235 17 callgsubr
          -472 -1640 -95 callsubr
        </CharString>
        <CharString name="Icircumflex">
          802 529 1544 rmoveto
          233 136 170 -136 113 callgsubr
          235 -1318 -95 callsubr
        </CharString>
        <CharString name="Icyrillic">
          802 653 226 -95 callsubr
        </CharString>
        <CharString name="Idblgrave">
          802 599 1853 68 callgsubr
          -256 -7 hlineto
          125 -304 rlineto
          90 hlineto
          -257 -1316 -95 callsubr
        </CharString>
        <CharString name="Idieresis">
          802 574 -48 callsubr
          94 callsubr
          -59 callsubr
          1 hvcurveto
          75 -57 59 -76 -80 -66 -65 -81 -73 56 -59 77 vhcurveto
          -282 -1335 -95 callsubr
        </CharString>
        <CharString name="Idieresisacute">
          802 1149 34 callsubr
          118 -248 rmoveto
          69 65 43 62 12 hvcurveto
          61 14 -47 43 -68 hhcurveto
          -16 hlineto
          -69 -65 -43 -61 -13 hvcurveto
          -62 -13 46 -43 69 hhcurveto
          383 hmoveto
          69 65 43 62 13 hvcurveto
          61 13 -46 43 -69 hhcurveto
          -16 hlineto
          -68 -65 -43 -61 -14 hvcurveto
          -62 -12 45 -43 69 hhcurveto
          -247 -1324 -95 callsubr
        </CharString>
        <CharString name="Idotaccent">
          802 755 1545 56 callgsubr
          -102 -1319 -95 callsubr
        </CharString>
        <CharString name="Idotbelow">
          802 653 226 rmoveto
          -94 callgsubr
          59 callsubr
          -211 -992 49 callsubr
          116 callsubr
          -306 -361 25 callsubr
        </CharString>
        <CharString name="Iecyrillic">
          1320 1515 1444 -103 callsubr
          -99 callsubr
        </CharString>
        <CharString name="Igrave">
          802 740 1854 rmoveto
          -327 -9 hlineto
          317 -303 rlineto
          95 hlineto
          -172 -1316 -95 callsubr
        </CharString>
        <CharString name="Ihookabove">
          802 802 1885 65 callsubr
          -71 rlineto
          16 27 45 13 47 hhcurveto
          69 37 -26 -44 -49 -47 -48 -96 -53 hvcurveto
          101 hlineto
          173 57 80 58 88 vvcurveto
          87 -85 63 -109 vhcurveto
          -149 -1659 -95 callsubr
        </CharString>
        <CharString name="Iicyrillic">
          1694 48 hmoveto
          177 callsubr
        </CharString>
        <CharString name="Iinvertedbreve">
          802 766 55 callsubr
          -134 -213 -5 hvcurveto
          97 hlineto
          89 16 85 53 125 hhcurveto
          106 73 -55 -72 -6 0 -5 -1 -4 hvcurveto
          97 hlineto
          10 25 217 callsubr
          -113 -1687 -95 callsubr
        </CharString>
        <CharString name="Iishortcyrillic">
          1694 1187 204 callsubr
          -1139 -1563 rmoveto
          177 callsubr
        </CharString>
        <CharString name="Imacron">
          802 434 -28 callsubr
          7 callsubr
          180 -1552 -95 callsubr
        </CharString>
        <CharString name="Iocyrillic">
          1320 832 -48 callsubr
          33 callsubr
          -54 callgsubr
          -66 -64 -81 -74 56 -58 78 hvcurveto
          321 -117 -103 callsubr
          -99 callsubr
        </CharString>
        <CharString name="Iogonek">
          802 366 -65 callgsubr
          -22 -9 -28 hhcurveto
          -65 -46 72 102 56 18 53 32 38 hvcurveto
          277 hlineto
          21 99 -124 20 -16 19 19 88 rlinecurve
          -94 callgsubr
          rlineto
          124 -15 16 -24 -19 -88 -211 -992 rcurveline
          -18 -88 -24 -19 -133 -20 -21 -99 rcurveline
          302 hlineto
          86 callgsubr
          endchar
        </CharString>
        <CharString name="Iotadieresisgreek">
          802 574 -48 callsubr
          94 callsubr
          -59 callsubr
          1 hvcurveto
          75 -57 59 -76 -80 -66 -65 -81 -73 56 -59 77 vhcurveto
          -282 -1335 -95 callsubr
        </CharString>
        <CharString name="Iotagreek">
          802 653 226 -95 callsubr
        </CharString>
        <CharString name="Iotatonosgreek">
          1251 1101 226 rmoveto
          211 992 18 88 24 19 134 20 rlinecurve
          20 99 -704 0 -21 -99 124 -15 16 -24 -18 63 callsubr
          -24 -19 -133 -20 rlinecurve
          -21 -99 116 callsubr
          -742 1218 -9 callsubr
        </CharString>
        <CharString name="Itilde">
          802 871 1567 rmoveto
          97 1 83 62 28 236 rrcurveto
          -99 hlineto
          -86 -15 118 callsubr
          33 -46 -48 20 -58 hhcurveto
          -96 -100 callgsubr
          25 26 36 hhcurveto
          25 22 -10 -18 24 hvcurveto
          25 -20 rlineto
          -33 47 48 -21 57 hhcurveto
          -218 -1341 -95 callsubr
        </CharString>
        <CharString name="Itildebelow">
          802 653 226 rmoveto
          -94 callgsubr
          59 callsubr
          -211 -992 49 callsubr
          116 callsubr
          -191 -673 28 callsubr
          -25 11 21 -28 160 callsubr
          28 -93 callgsubr
          -41 callgsubr
        </CharString>
        <CharString name="J">
          806 665 280 85 callsubr
        </CharString>
        <CharString name="Jacute">
          806 798 -71 callsubr
          -480 -1575 85 callsubr
        </CharString>
        <CharString name="Jcircumflex">
          806 520 -60 callsubr
          256 -1263 85 callsubr
        </CharString>
        <CharString name="Jecyrillic">
          806 665 280 85 callsubr
        </CharString>
        <CharString name="K">
          1511 653 226 -27 callsubr
        </CharString>
        <CharString name="Kaacutecyrillic">
          1511 1233 -87 callsubr
          -927 -1629 -27 callsubr
        </CharString>
        <CharString name="Kacute">
          1511 1233 -87 callsubr
          -927 -1629 -27 callsubr
        </CharString>
        <CharString name="Kacyrillic">
          1511 653 226 -27 callsubr
        </CharString>
        <CharString name="Kappagreek">
          1511 653 226 -27 callsubr
        </CharString>
        <CharString name="Kcaron">
          1511 1432 -88 callsubr
          -82 callsubr
          -898 -1639 -27 callsubr
        </CharString>
        <CharString name="Kcommaaccent">
          134 callsubr
          105 -706 -86 callsubr
          -83 -50 callgsubr
          26 hhcurveto
          51 -6 callsubr
          -19 -83 rlineto
          -36 44 75 -25 87 hhcurveto
          endchar
        </CharString>
        <CharString name="Kdotbelow">
          134 callsubr
          153 -361 25 callsubr
        </CharString>
        <CharString name="Klinebelow">
          134 callsubr
          -188 -606 -90 callsubr
        </CharString>
        <CharString name="L">
          -14 callsubr
          endchar
        </CharString>
        <CharString name="Lacute">
          1246 802 -87 callsubr
          37 -1855 rmoveto
          -38 callsubr
          -24 callsubr
          endchar
        </CharString>
        <CharString name="Lambdagreek">
          1493 1359 295 rmoveto
          -145 1150 -322 0 -627 -1135 -95 -171 -31 -24 -115 -16 rlinecurve
          -21 -99 460 0 20 99 -141 22 -13 31 93 176 rlinecurve
          430 813 85 -843 15 -145 -24 -34 -146 -20 rlinecurve
          -21 -99 729 0 21 99 -107 16 -25 26 -20 154 rlinecurve
          endchar
        </CharString>
        <CharString name="Lcaron">
          1246 1232 1124 39 callsubr
          58 -1124 rmoveto
          -38 callsubr
          -24 callsubr
          endchar
        </CharString>
        <CharString name="Lcircumflexbelow">
          -14 callsubr
          296 -470 rmoveto
          246 166 170 -166 109 0 -125 362 -241 0 -275 -362 rlineto
          endchar
        </CharString>
        <CharString name="Lcommaaccent">
          -14 callsubr
          497 -480 -86 callsubr
          -83 -50 callgsubr
          27 hhcurveto
          50 43 -21 -40 -40 -39 -23 -70 -45 -42 14 16 -34 hvcurveto
          48 callsubr
        </CharString>
        <CharString name="Ldot">
          -14 callsubr
          1096 678 rmoveto
          107 86 84 104 97 -76 77 -101 -107 -88 -84 -105 -97 76 -76 103 hvcurveto
          endchar
        </CharString>
        <CharString name="Ldotbelow">
          -14 callsubr
          545 -135 -30 callsubr
          91 75 72 90 82 -65 65 -87 hvcurveto
          endchar
        </CharString>
        <CharString name="Ldotbelowmacron">
          1246 429 -5 callsubr
          719 -1778 rmoveto
          -38 callsubr
          -24 callsubr
          545 -135 -30 callsubr
          91 75 72 90 82 -65 65 -87 hvcurveto
          endchar
        </CharString>
        <CharString name="Ljecyrillic">
          2216 38 158 rmoveto
          -110 73 -77 125 232 116 239 528 136 vhcurveto
          65 245 47 195 33 140 rrcurveto
          378 hlineto
          -232 -1093 rlineto
          -19 -87 -24 -18 -139 -21 -21 -99 rcurveline
          748 hlineto
          427 303 192 317 237 -203 142 -341 hvcurveto
          -184 hlineto
          71 330 18 89 28 15 145 23 rlinecurve
          21 99 -1284 212 callsubr
          hvcurveto
          1820 365 rmoveto
          -217 -133 -178 -253 -10 vhcurveto
          -77 -2 139 654 rlineto
          84 hlineto
          147 -2 93 -78 -167 vvcurveto
          endchar
        </CharString>
        <CharString name="Llinebelow">
          -14 callsubr
          205 -380 -90 callsubr
        </CharString>
        <CharString name="Lslash">
          1246 177 609 rmoveto
          158 38 -89 -421 -19 -87 -23 -19 -134 -21 rlinecurve
          -21 -99 1137 0 -38 callsubr
          135 639 317 77 25 115 -317 -78 74 352 19 88 24 18 141 22 rlinecurve
          21 98 -712 0 -21 -99 123 -20 16 -23 -21 -98 rlinecurve
          -94 -442 -156 -38 rlineto
          endchar
        </CharString>
        <CharString name="M">
          1905 972 1444 10 callsubr
        </CharString>
        <CharString name="Macute">
          1905 1365 -87 callsubr
          -740 -411 10 callsubr
        </CharString>
        <CharString name="Mdotaccent">
          1905 1312 1544 rmoveto
          91 73 73 87 83 -64 66 -86 -91 -74 -72 -90 -81 64 -66 87 hvcurveto
          -340 -100 10 callsubr
        </CharString>
        <CharString name="Mdotbelow">
          1905 972 1444 rmoveto
          -598 hlineto
          -21 -99 126 -19 13 -37 -27 -115 rlinecurve
          -209 -892 -33 -133 -25 -33 -136 -17 rlinecurve
          -21 -99 454 0 20 99 -129 17 -12 30 30 137 rlinecurve
          176 849 140 -1132 215 0 260 508 339 639 -172 -926 -16 -84 -23 -21 -136 -17 rlinecurve
          -20 -99 698 0 21 99 -126 16 -14 21 16 85 rlinecurve
          189 1002 16 83 22 22 136 17 rlinecurve
          21 99 -613 0 -458 -927 rlineto
          -301 -652 -30 callsubr
          91 74 72 90 82 -64 65 -87 hvcurveto
          endchar
        </CharString>
        <CharString name="Mugreek">
          1905 972 1444 10 callsubr
        </CharString>
        <CharString name="N">
          1533 -32 callsubr
          4 callsubr
          endchar
        </CharString>
        <CharString name="Nacute">
          1533 1171 -71 callsubr
          -635 -411 -52 callsubr
          4 callsubr
          endchar
        </CharString>
        <CharString name="Ncaron">
          1533 1370 -88 callsubr
          -82 callsubr
          -606 -421 -52 callsubr
          4 callsubr
          endchar
        </CharString>
        <CharString name="Ncircumflexbelow">
          1533 -32 callsubr
          4 callsubr
          -879 -877 -29 callsubr
        </CharString>
        <CharString name="Ncommaaccent">
          1533 -32 callsubr
          4 callsubr
          -677 -887 -86 callsubr
          45 callsubr
          33 5 26 -82 callgsubr
          44 callsubr
        </CharString>
        <CharString name="Ndotaccent">
          1533 1119 -89 callsubr
          -64 66 -86 -92 -74 -72 -90 -81 65 -66 87 hvcurveto
          -236 -100 -52 callsubr
          4 callsubr
          endchar
        </CharString>
        <CharString name="Ndotbelow">
          1533 -32 callsubr
          4 callsubr
          -630 -542 -76 callsubr
        </CharString>
        <CharString name="Ngrave">
          1533 1104 104 callsubr
          -306 -98 -52 callsubr
          4 callsubr
          endchar
        </CharString>
        <CharString name="Njecyrillic">
          2322 659 226 rmoveto
          103 484 458 0 -103 -484 rlineto
          -18 -88 -24 -18 -133 -21 -21 -99 rcurveline
          741 hlineto
          427 302 179 294 227 -203 136 -341 hvcurveto
          -194 hlineto
          82 382 18 89 29 15 145 23 rlinecurve
          20 99 -719 0 -21 -99 -86 callgsubr
          -81 -382 -459 0 82 382 18 88 23 19 128 -92 callgsubr
          -86 callgsubr
          -211 -992 -18 -88 -24 -18 -133 -21 -81 callgsubr
          -117 20 -17 18 19 89 rlinecurve
          1305 260 rmoveto
          -198 -134 -160 -252 -10 vhcurveto
          -77 -2 128 602 94 -1 rlineto
          149 -1 92 -73 -157 vvcurveto
          endchar
        </CharString>
        <CharString name="Nlinebelow">
          1533 -32 callsubr
          4 callsubr
          -970 -787 -90 callsubr
        </CharString>
        <CharString name="Ntilde">
          1533 1235 -8 callsubr
          -26 -26 -36 hhcurveto
          -24 -22 10 18 -24 95 callsubr
          35 hhcurveto
          25 112 callsubr
          -352 -123 -52 callsubr
          4 callsubr
          endchar
        </CharString>
        <CharString name="Nugreek">
          1533 -32 callsubr
          4 callsubr
          endchar
        </CharString>
        <CharString name="O">
          1664 923 -28 -104 callsubr
        </CharString>
        <CharString name="OE">
          2091 237 649 rmoveto
          -419 290 -258 394 vhcurveto
          133 78 28 144 hhcurveto
          748 hlineto
          105 444 rlineto
          -88 hlineto
          -111 -256 -81 -57 -232 -10 rrcurveto
          -183 -8 120 565 149 -1 89 -3 18 -35 -5 -167 rlinecurve
          86 hlineto
          111 524 rlineto
          -86 hlineto
          -63 -161 -34 -36 -90 -3 rrcurveto
          -150 -2 114 537 162 -7 229 -11 32 -49 11 -230 rlinecurve
          90 hlineto
          75 410 rlineto
          -826 hlineto
          -140 -87 29 -151 hhcurveto
          -515 -336 -363 -461 hvcurveto
          421 -90 rmoveto
          382 179 403 317 53 45 -9 -15 32 vhcurveto
          -257 -1212 rlineto
          -6 -19 -20 -2 -21 hhcurveto
          -190 -119 156 303 hvcurveto
          endchar
        </CharString>
        <CharString name="Oacute">
          1664 1188 -87 callsubr
          -612 -1883 -104 callsubr
        </CharString>
        <CharString name="Obreve">
          1664 1150 126 callsubr
          -124 hhcurveto
          -107 -73 -85 callgsubr
          -97 hlineto
          -9 -26 -7 -34 -34 vvcurveto
          -143 1 115 -111 167 hhcurveto
          -227 -1593 -104 callsubr
        </CharString>
        <CharString name="Ocaron">
          1664 1386 -88 callsubr
          -172 -77 callgsubr
          -583 -1893 -104 callsubr
        </CharString>
        <CharString name="Ocircumflex">
          1664 909 -60 callsubr
          125 -1571 -104 callsubr
        </CharString>
        <CharString name="Ocircumflexacute">
          1664 1525 100 callsubr
          -34 callsubr
          157 -1607 -104 callsubr
        </CharString>
        <CharString name="Ocircumflexdotbelow">
          1664 909 -60 callsubr
          125 -1571 rmoveto
          497 319 374 456 374 -247 296 42 callsubr
          hvcurveto
          -374 -6 252 -296 164 callsubr
          -77 -237 23 callsubr
        </CharString>
        <CharString name="Ocircumflexgrave">
          1664 826 1865 rmoveto
          681 -73 callgsubr
          -34 callsubr
          157 -1607 -104 callsubr
        </CharString>
        <CharString name="Ocircumflexhookabove">
          1664 1497 78 callsubr
          22 callgsubr
          157 -1607 -104 callsubr
        </CharString>
        <CharString name="Ocircumflextilde">
          1664 1305 34 callgsubr
          -48 hhcurveto
          -29 -31 7 11 -36 hvcurveto
          -38 12 rlineto
          15 -49 -49 12 84 callsubr
          -52 callgsubr
          56 hhcurveto
          -557 -311 -49 callsubr
          -34 callsubr
          157 -1607 -104 callsubr
        </CharString>
        <CharString name="Ocyrillic">
          1664 923 -28 -104 callsubr
        </CharString>
        <CharString name="Odblgrave">
          1664 980 36 callsubr
          98 101 callgsubr
          91 hlineto
          -368 -1569 -104 callsubr
        </CharString>
        <CharString name="Odieresis">
          1664 954 -48 callsubr
          1 hvcurveto
          74 -39 callgsubr
          77 vhcurveto
          -54 callgsubr
          -101 callgsubr
          -393 -1589 -104 callsubr
        </CharString>
        <CharString name="Odieresismacron">
          1664 824 1858 rmoveto
          701 hlineto
          29 112 callgsubr
          1 callsubr
          -69 -64 -43 -62 -14 hvcurveto
          -61 -12 45 -44 69 hhcurveto
          384 hmoveto
          68 65 44 61 13 hvcurveto
          62 13 -46 43 -68 hhcurveto
          -17 hlineto
          -68 -65 -43 -62 60 callsubr
          -358 -1577 -104 callsubr
        </CharString>
        <CharString name="Odotaccent">
          1664 1135 -89 callsubr
          123 callsubr
          -212 -1572 -104 callsubr
        </CharString>
        <CharString name="Odotaccentmacron">
          1664 818 1830 -80 callgsubr
          -700 hlineto
          286 -428 rmoveto
          72 57 47 66 -1 hvcurveto
          66 -2 -59 47 -73 hhcurveto
          -72 -56 -47 -66 1 hvcurveto
          -66 1 59 -47 73 hhcurveto
          -211 -1569 -104 callsubr
        </CharString>
        <CharString name="Odotbelow">
          1664 923 -28 rmoveto
          497 319 374 456 374 -247 296 42 callsubr
          hvcurveto
          -374 -6 252 -296 164 callsubr
          -77 -237 23 callsubr
        </CharString>
        <CharString name="Ograve">
          1664 1121 -60 callgsubr
          95 hlineto
          -282 -1570 -104 callsubr
        </CharString>
        <CharString name="Ohookabove">
          1664 1183 -104 callgsubr
          -16 38 callsubr
          162 callsubr
          -260 -1912 -104 callsubr
        </CharString>
        <CharString name="Ohorn">
          1699 233 642 11 callsubr
        </CharString>
        <CharString name="Ohornacute">
          1699 1189 -87 callsubr
          -1303 -1213 11 callsubr
        </CharString>
        <CharString name="Ohorndotbelow">
          1699 233 642 rmoveto
          -374 -6 252 -296 445 hhcurveto
          -87 callgsubr
          239 -102 206 -184 116 hvcurveto
          -7 43 48 -4 50 hhcurveto
          190 144 84 144 105 -66 94 -95 48 hvcurveto
          -83 callgsubr
          -163 -111 -138 -172 vhcurveto
          -123 -84 28 -148 hhcurveto
          -43 callgsubr
          428 -141 rmoveto
          391 163 449 250 147 90 -121 -277 -88 callgsubr
          -147 -89 122 277 vhcurveto
          178 -636 -76 callsubr
        </CharString>
        <CharString name="Ohorngrave">
          1699 1122 -60 callgsubr
          96 hlineto
          -974 -900 11 callsubr
        </CharString>
        <CharString name="Ohornhookabove">
          1699 1184 -104 callgsubr
          -15 -70 rlineto
          16 27 45 13 46 hhcurveto
          70 37 -26 -45 -48 163 callsubr
          -951 -1242 11 callsubr
        </CharString>
        <CharString name="Ohorntilde">
          1699 1253 1567 rmoveto
          96 83 63 235 29 hvcurveto
          -99 hlineto
          -86 -16 -25 -26 -36 hhcurveto
          -24 -22 10 18 -24 hvcurveto
          -26 19 rlineto
          34 -46 -49 20 -57 hhcurveto
          -96 -83 -63 -234 -29 hvcurveto
          100 hlineto
          86 15 25 25 36 hhcurveto
          25 21 -10 -18 25 -98 callgsubr
          -1020 -925 11 callsubr
        </CharString>
        <CharString name="Ohungarumlaut">
          1664 978 1854 rmoveto
          -74 -312 98 0 241 305 rlineto
          7 vlineto
          99 hmoveto
          -165 -312 110 0 346 305 rlineto
          7 vlineto
          -710 -1882 -104 callsubr
        </CharString>
        <CharString name="Oinvertedbreve">
          1664 1147 1913 rmoveto
          -205 -122 -135 -213 -5 hvcurveto
          97 hlineto
          90 16 85 52 125 hhcurveto
          106 74 -55 -71 -6 -1 -6 -1 -4 hvcurveto
          97 hlineto
          10 26 6 34 34 vvcurveto
          143 -1 -114 111 -167 hhcurveto
          -224 -1941 -104 callsubr
        </CharString>
        <CharString name="Omacron">
          1664 815 -5 callsubr
          70 -1806 -104 callsubr
        </CharString>
        <CharString name="Omacronacute">
          1664 1530 1884 rmoveto
          36 173 -738 -180 -17 -79 rlineto
          -45 -213 -80 callgsubr
          -700 hlineto
          127 -1752 -104 callsubr
        </CharString>
        <CharString name="Omacrongrave">
          1664 830 1884 rmoveto
          682 -86 16 79 -662 180 rlineto
          -100 -472 -80 callgsubr
          -700 hlineto
          127 -1752 -104 callsubr
        </CharString>
        <CharString name="Omegagreek">
          1704 125 hmoveto
          644 hlineto
          70 340 -123 200 callsubr
          -119 -49 -337 -34 callgsubr
          171 -222 297 -66 rrcurveto
          -13 -64 -344 6 -79 52 -32 146 rlinecurve
          -79 hlineto
          endchar
        </CharString>
        <CharString name="Omegatonosgreek">
          1983 404 hmoveto
          644 hlineto
          71 340 -124 200 callsubr
          -118 -49 -338 -34 callgsubr
          172 -222 296 -66 rrcurveto
          -12 -64 -345 6 -79 52 -32 146 rlinecurve
          -79 hlineto
          -85 1038 -9 callsubr
        </CharString>
        <CharString name="Omicrongreek">
          1664 923 -28 -104 callsubr
        </CharString>
        <CharString name="Omicrontonosgreek">
          1921 1180 -28 rmoveto
          497 318 374 456 374 -247 296 -443 -497 -311 -374 -456 -8 hvcurveto
          -374 -6 253 -296 444 hhcurveto
          -821 1472 rmoveto
          -131 -405 161 0 323 393 rlineto
          12 vlineto
          441 -1342 rmoveto
          -146 -90 122 277 390 163 450 251 146 90 -121 -277 -396 -167 -445 -247 hvcurveto
          endchar
        </CharString>
        <CharString name="Oogonek">
          1664 840 -486 32 callgsubr
          181 callsubr
        </CharString>
        <CharString name="Oogonekmacron">
          1664 815 -5 callsubr
          -13 -2264 32 callgsubr
          181 callsubr
        </CharString>
        <CharString name="Oslash">
          1664 924 -28 rmoveto
          -87 callgsubr
          170 callsubr
        </CharString>
        <CharString name="Oslashacute">
          1664 1188 -87 callsubr
          -611 -1883 rmoveto
          -87 callgsubr
          170 callsubr
        </CharString>
        <CharString name="Otilde">
          1664 1251 -8 callsubr
          -25 -26 -36 hhcurveto
          -25 -21 10 18 -25 95 callsubr
          36 hhcurveto
          24 112 callsubr
          -328 -1595 -104 callsubr
        </CharString>
        <CharString name="Otildeacute">
          1664 1530 102 callgsubr
          439 -243 rmoveto
          131 97 76 133 26 hvcurveto
          -115 hlineto
          -45 -10 -31 -20 -48 hhcurveto
          -29 -31 129 callsubr
          -56 hhcurveto
          -130 -97 22 callsubr
          49 49 -12 55 hhcurveto
          -327 -1582 -104 callsubr
        </CharString>
        <CharString name="Otildedieresis">
          1664 986 1822 rmoveto
          70 64 43 61 13 hvcurveto
          63 63 callgsubr
          69 hhcurveto
          384 hmoveto
          68 65 166 callsubr
          -12 45 -43 69 hhcurveto
          -88 -268 rmoveto
          131 97 76 133 26 hvcurveto
          -115 hlineto
          -45 -10 -31 -20 -48 hhcurveto
          -29 -31 129 callsubr
          -56 hhcurveto
          -130 -97 22 callsubr
          49 49 -12 55 hhcurveto
          -327 -1582 -104 callsubr
        </CharString>
        <CharString name="Otildemacron">
          1664 824 1858 rmoveto
          700 hlineto
          30 138 rlineto
          -700 hlineto
          396 -442 rmoveto
          131 97 76 133 26 hvcurveto
          -115 hlineto
          -45 -10 -31 -20 -48 hhcurveto
          -29 -31 129 callsubr
          -56 hhcurveto
          -130 -97 22 callsubr
          49 49 -12 55 hhcurveto
          -327 -1582 -104 callsubr
        </CharString>
        <CharString name="P">
          1474 776 hmoveto
          13 callsubr
        </CharString>
        <CharString name="Pacute">
          1474 1133 1856 221 callsubr
          -704 -1856 rmoveto
          13 callsubr
        </CharString>
        <CharString name="Pdotaccent">
          1474 1081 1545 rmoveto
          90 74 72 88 83 -64 65 -86 -91 -75 -71 -90 -82 65 -65 87 hvcurveto
          -305 -1545 rmoveto
          13 callsubr
        </CharString>
        <CharString name="Pecyrillic">
          1685 1522 226 rmoveto
          211 992 19 91 24 18 132 18 rlinecurve
          21 99 -1574 0 -21 -99 123 -21 17 -17 -18 -89 rlinecurve
          -211 -992 -19 -89 -24 -17 -133 -21 -81 callgsubr
          -116 19 -17 19 19 89 rlinecurve
          232 1092 463 0 -232 -1092 -19 -91 -23 -18 -127 -18 -81 callgsubr
          -122 18 -18 18 19 91 rlinecurve
          endchar
        </CharString>
        <CharString name="Phigreek">
          1913 229 717 rmoveto
          -34 -314 217 -170 430 -15 rrcurveto
          -1 -8 -19 -87 -24 -21 -125 -21 rlinecurve
          -18 -86 602 0 19 86 rlineto
          -116 20 -16 22 18 87 2 8 rcurveline
          517 14 273 173 35 321 35 319 -249 164 -399 15 rrcurveto
          1 5 18 87 24 21 125 21 rlinecurve
          17 86 -602 0 -18 -86 116 -18 17 -24 -19 -87 rlinecurve
          -1 -5 -486 -13 -304 -167 -35 -327 rlinecurve
          416 1 rmoveto
          24 232 137 161 225 5 rrcurveto
          -165 -785 -165 29 -80 140 24 218 rlinecurve
          930 11 rmoveto
          -27 -239 -135 -159 -227 -5 rrcurveto
          166 784 165 -29 80 -142 -22 -210 rlinecurve
          endchar
        </CharString>
        <CharString name="Pigreek">
          1690 1535 228 rmoveto
          209 987 19 88 21 23 141 19 rlinecurve
          21 99 -1588 0 -21 -99 130 -21 14 -19 -19 -89 rlinecurve
          -209 -988 -19 -89 -24 -19 -138 -22 rlinecurve
          -20 -98 705 0 21 98 -123 20 -14 22 19 88 rlinecurve
          231 1094 468 0 -231 -1094 -19 -89 -21 -20 -132 -20 rlinecurve
          -20 -99 703 0 21 99 -132 18 -12 22 19 89 rlinecurve
          endchar
        </CharString>
        <CharString name="Psigreek">
          1942 615 hmoveto
          686 hlineto
          21 98 rlineto
          -140 20 -19 23 19 86 52 246 rcurveline
          371 18 194 132 137 371 67 182 rcurveline
          45 121 33 31 98 7 21 99 rcurveline
          5 -36 -71 6 -65 hhcurveto
          -202 -100 -62 -222 -80 hvcurveto
          -69 -186 -90 -245 -72 -105 -155 -27 rlinecurve
          131 618 19 88 22 22 117 19 rlinecurve
          21 99 -614 0 -21 -99 rlineto
          108 -19 15 -22 -19 -88 -131 -618 rcurveline
          -143 28 -26 105 14 244 10 182 rcurveline
          221 12 -74 67 -204 hhcurveto
          -63 -75 -6 -5 -37 hvcurveto
          -21 -99 95 -7 23 -31 -6 -121 rlinecurve
          -11 -182 -20 -370 136 -133 364 -18 rlinecurve
          -52 -246 -19 -86 -27 -23 -148 -20 rlinecurve
          endchar
        </CharString>
        <CharString name="Q">
          1679 1337 -416 rmoveto
          116 103 28 43 69 hvcurveto
          19 91 rlineto
          -126 -6 -81 29 -149 152 -92 93 rcurveline
          338 109 205 313 366 vvcurveto
          374 -247 296 42 callsubr
          vhcurveto
          -5 -319 182 -261 329 -71 155 -171 rcurveline
          -182 165 126 -54 152 hhcurveto
          -440 518 rmoveto
          -147 -89 122 277 -1 callgsubr
          endchar
        </CharString>
        <CharString name="R">
          1511 1088 hmoveto
          12 callsubr
          endchar
        </CharString>
        <CharString name="Racute">
          1511 1079 -71 callsubr
          -338 -1855 rmoveto
          12 callsubr
          endchar
        </CharString>
        <CharString name="Rcaron">
          1511 1278 -88 callsubr
          -82 callsubr
          -309 -1865 rmoveto
          12 callsubr
          endchar
        </CharString>
        <CharString name="Rcommaaccent">
          1511 1088 hmoveto
          12 callsubr
          -422 -1545 -86 callsubr
          45 callsubr
          33 5 26 -82 callgsubr
          44 callsubr
        </CharString>
        <CharString name="Rdblgrave">
          1511 871 36 callsubr
          54 callgsubr
          -94 -1541 rmoveto
          12 callsubr
          endchar
        </CharString>
        <CharString name="Rdotaccent">
          1511 1027 -89 callsubr
          124 callsubr
          61 -1544 rmoveto
          12 callsubr
          endchar
        </CharString>
        <CharString name="Rdotbelow">
          1511 1088 hmoveto
          12 callsubr
          -375 -1200 -76 callsubr
        </CharString>
        <CharString name="Rdotbelowmacron">
          1511 706 -28 callsubr
          7 callsubr
          343 -1778 rmoveto
          12 callsubr
          -375 -1200 -76 callsubr
        </CharString>
        <CharString name="Rhogreek">
          1474 776 hmoveto
          13 callsubr
        </CharString>
        <CharString name="Rinvertedbreve">
          1511 1038 55 callsubr
          93 callsubr
          103 callsubr
          50 -1913 rmoveto
          12 callsubr
          endchar
        </CharString>
        <CharString name="Rlinebelow">
          1511 1088 hmoveto
          12 callsubr
          -715 -1445 -90 callsubr
        </CharString>
        <CharString name="S">
          1220 620 -30 67 callsubr
          endchar
        </CharString>
        <CharString name="Sacute">
          1220 1013 -87 callsubr
          -740 -1885 67 callsubr
          endchar
        </CharString>
        <CharString name="Sacutedotaccent">
          1220 1010 1781 rmoveto
          72 57 47 66 -2 hvcurveto
          66 -1 -59 46 -73 hhcurveto
          -72 -57 -46 -66 2 hvcurveto
          -66 1 59 -47 73 hhcurveto
          288 -161 -44 callgsubr
          40 -1563 67 callsubr
          endchar
        </CharString>
        <CharString name="Scaron">
          1220 1211 1865 rmoveto
          -234 -136 -82 callsubr
          -711 -1895 67 callsubr
          endchar
        </CharString>
        <CharString name="Scarondotaccent">
          1220 1014 1803 rmoveto
          73 56 47 66 -1 hvcurveto
          66 -1 -60 47 -72 hhcurveto
          -73 -56 -47 -66 1 hvcurveto
          -66 2 59 -47 72 hhcurveto
          331 -7 rmoveto
          -376 -84 -339 84 -18 -82 289 -168 68 0 359 168 rlineto
          -708 -1744 67 callsubr
          endchar
        </CharString>
        <CharString name="Scedilla">
          1220 505 -480 rmoveto
          187 115 83 123 107 -88 72 -134 7 hvcurveto
          60 58 rlineto
          345 9 245 194 282 vvcurveto
          167 -82 122 -189 117 vhcurveto
          -87 56 rlineto
          -126 80 -52 62 92 vvcurveto
          111 94 77 131 172 103 -118 -233 10 vhcurveto
          90 hlineto
          63 363 rlineto
          61 -79 -168 61 -210 hhcurveto
          -399 -200 -219 -246 -174 81 -115 194 -120 hvcurveto
          86 -57 rlineto
          131 -82 43 -65 -96 vvcurveto
          -121 -100 -74 -138 -176 -140 120 234 -3 vhcurveto
          -90 hlineto
          -60 -380 78 -48 148 -44 167 -12 rlinecurve
          -111 -114 -50 callsubr
          -54 107 callsubr
        </CharString>
        <CharString name="Schwa">
          1578 819 -30 rmoveto
          487 324 343 471 428 -292 260 -422 -163 -181 -37 -65 -118 hvcurveto
          -82 -382 rlineto
          93 hlineto
          243 107 152 107 161 hhcurveto
          217 92 -183 -302 -44 -2 -44 -2 -41 hvcurveto
          -939 hlineto
          -25 -71 -15 -80 -77 vvcurveto
          -271 169 -255 439 vhcurveto
          -233 441 rmoveto
          66 8 70 16 58 vhcurveto
          568 1 rlineto
          -312 -44 -130 -195 -183 hhcurveto
          -160 -75 133 179 hvcurveto
          endchar
        </CharString>
        <CharString name="Scircumflex">
          1220 734 119 callsubr
          105 0 -130 311 -233 0 -257 -311 rlineto
          -3 -1573 67 callsubr
          endchar
        </CharString>
        <CharString name="Scommaaccent">
          1220 620 -30 67 callsubr
          -129 -450 rmoveto
          192 96 77 120 115 -90 70 -110 -84 -50 callgsubr
          27 -82 callgsubr
          -70 -44 -43 14 16 -34 hvcurveto
          48 callsubr
        </CharString>
        <CharString name="Sdotaccent">
          1220 960 1544 rmoveto
          91 114 callgsubr
          87 hvcurveto
          -340 -1574 67 callsubr
          endchar
        </CharString>
        <CharString name="Sdotbelow">
          1220 620 -30 67 callsubr
          -81 -105 23 callsubr
        </CharString>
        <CharString name="Sdotbelowdotaccent">
          1220 960 1544 rmoveto
          91 114 callgsubr
          87 hvcurveto
          -340 -1574 67 callsubr
          -81 -105 23 callsubr
        </CharString>
        <CharString name="Shacyrillic">
          2478 455 1218 rmoveto
          -211 -992 -19 -91 -24 -18 -132 -18 rlinecurve
          -21 -99 2377 0 21 99 -122 216 callsubr
          132 21 rlinecurve
          21 99 -697 0 -21 -99 117 205 callsubr
        </CharString>
        <CharString name="Shchacyrillic">
          2495 159 callsubr
          1995 hlineto
          229 31 -57 -267 17 hvcurveto
          98 hlineto
          84 450 -198 97 callgsubr
          -697 0 -21 -99 117 205 callsubr
        </CharString>
        <CharString name="Sigmagreek">
          84 callgsubr
          -94 364 -667 -596 -587 -20 -96 1188 0 127 539 rlineto
          -105 hlineto
          -231 -102 -75 -42 -255 hhcurveto
          -386 hlineto
          577 558 6 29 -261 478 275 -6 260 -6 38 -51 9 -222 rlinecurve
          91 hlineto
          endchar
        </CharString>
        <CharString name="Softsigncyrillic">
          1449 188 callsubr
          -427 14 -20 callgsubr
        </CharString>
        <CharString name="T">
          -42 callsubr
          endchar
        </CharString>
        <CharString name="Taugreek">
          -42 callsubr
          endchar
        </CharString>
        <CharString name="Tbar">
          1397 355 687 rmoveto
          286 hlineto
          -98 -462 -19 -87 -25 -20 -147 -20 rlinecurve
          -20 -98 -95 callgsubr
          18 19 88 rlinecurve
          98 462 288 0 22 106 -287 0 114 537 36 -1 rlineto
          209 -12 52 -55 -229 vvcurveto
          90 hlineto
          74 411 -1283 0 31 callsubr
          1 -114 -537 rlineto
          -286 hlineto
          endchar
        </CharString>
        <CharString name="Tcaron">
          1397 1310 -88 callsubr
          -82 callsubr
          217 -421 rmoveto
          -1283 hlineto
          31 callsubr
          106 callsubr
          -95 callgsubr
          91 callsubr
          endchar
        </CharString>
        <CharString name="Tcedilla">
          1397 614 -40 callsubr
          87 86 rlineto
          2 286 vlineto
          21 98 -138 21 -18 91 callsubr
          74 411 -1283 0 31 callsubr
          106 callsubr
          329 167 callsubr
          -40 -25 -68 -53 -44 16 18 -30 -38 callgsubr
          endchar
        </CharString>
        <CharString name="Tcircumflexbelow">
          -42 callsubr
          -1173 -1503 -4 callgsubr
        </CharString>
        <CharString name="Tcommaaccent">
          -42 callsubr
          -972 -1513 -86 callsubr
          -83 -50 callgsubr
          26 hhcurveto
          51 -6 callsubr
          48 callsubr
        </CharString>
        <CharString name="Tdotaccent">
          1397 1059 -89 callsubr
          124 callsubr
          587 -100 rmoveto
          -1283 hlineto
          31 callsubr
          106 callsubr
          -95 callgsubr
          91 callsubr
          endchar
        </CharString>
        <CharString name="Tdotbelow">
          -42 callsubr
          -924 -1168 25 callsubr
        </CharString>
        <CharString name="Tecyrillic">
          -42 callsubr
          endchar
        </CharString>
        <CharString name="Thetagreek">
          1750 942 -29 rmoveto
          483 360 345 438 32 hvcurveto
          33 419 -272 301 -466 -1 -483 -1 -359 -345 -33 -438 rrcurveto
          -418 -33 272 -300 466 hhcurveto
          14 116 rmoveto
          -220 -104 225 372 35 hvcurveto
          391 36 136 282 259 hhcurveto
          222 103 -224 -374 -35 hvcurveto
          -392 -36 -138 -280 -258 hhcurveto
          -236 376 rmoveto
          76 hlineto
          142 52 40 39 75 hhcurveto
          89 hlineto
          75 24 -39 -142 -9 hvcurveto
          76 hlineto
          107 504 rlineto
          -76 hlineto
          -143 -54 -39 -37 -74 hhcurveto
          -89 hlineto
          -74 -23 37 143 7 hvcurveto
          -76 hlineto
          endchar
        </CharString>
        <CharString name="Thorn">
          1469 229 225 rmoveto
          -18 -89 -24 -18 -133 -21 rrcurveto
          -21 -98 704 0 21 98 rlineto
          -122 21 -18 18 19 89 20 97 rcurveline
          173 hlineto
          358 346 136 314 223 -175 150 -372 hvcurveto
          -155 hlineto
          15 72 19 88 25 19 132 20 rlinecurve
          21 99 -704 0 -21 -99 -86 callgsubr
          668 -428 rmoveto
          -173 -109 -169 -241 -9 vhcurveto
          -77 -3 127 596 74 -2 rlineto
          146 -6 80 -102 -132 vvcurveto
          endchar
        </CharString>
        <CharString name="Tlinebelow">
          -42 callsubr
          -1265 -1413 -90 callsubr
        </CharString>
        <CharString name="Tsecyrillic">
          1691 159 callsubr
          1195 hlineto
          230 31 -57 -267 18 hvcurveto
          98 hlineto
          83 450 -203 97 callgsubr
          -696 0 -21 -99 117 -19 16 -19 -19 -89 rlinecurve
          -232 -1092 -463 155 callsubr
        </CharString>
        <CharString name="Tshecyrillic">
          1920 1650 1444 rmoveto
          -1288 hlineto
          -97 -411 rlineto
          90 hlineto
          211 callsubr
          17 61 60 11 77 hhcurveto
          163 66 -94 -199 -42 hvcurveto
          -84 -391 556 0 21 99 rlineto
          -125 16 -13 21 17 86 29 136 rcurveline
          329 66 -168 149 -353 hhcurveto
          -129 -92 -21 -27 -82 hvcurveto
          60 callgsubr
          endchar
        </CharString>
        <CharString name="U">
          1538 811 -29 -96 callsubr
        </CharString>
        <CharString name="Uacute">
          1538 1238 -71 callsubr
          -774 -1884 -96 callsubr
        </CharString>
        <CharString name="Ubreve">
          1538 1201 110 callsubr
          146 callsubr
          -390 -1594 -96 callsubr
        </CharString>
        <CharString name="Ubrevecyrillic">
          1505 1170 1563 rmoveto
          190 168 98 215 61 hvcurveto
          -104 29 rlineto
          -144 -45 -115 -86 -127 hhcurveto
          -20 -18 1 3 -17 hvcurveto
          32 23 23 37 45 vvcurveto
          86 -63 62 -77 -92 -61 -65 -92 -115 92 -97 173 vhcurveto
          -942 -1406 176 callsubr
        </CharString>
        <CharString name="Ucaron">
          1538 1437 -88 callsubr
          -82 callsubr
          -745 -1894 -96 callsubr
        </CharString>
        <CharString name="Ucircumflex">
          1538 960 -60 callsubr
          -38 -1572 -96 callsubr
        </CharString>
        <CharString name="Ucircumflexbelow">
          71 callsubr
          -293 -441 -29 callsubr
        </CharString>
        <CharString name="Ucyrillic">
          1505 228 157 176 callsubr
        </CharString>
        <CharString name="Udblgrave">
          1538 1030 36 callsubr
          54 callgsubr
          -530 -1570 -96 callsubr
        </CharString>
        <CharString name="Udieresis">
          1538 1005 -48 callsubr
          -15 callsubr
          -59 callsubr
          33 callsubr
          -555 -1590 -96 callsubr
        </CharString>
        <CharString name="Udieresisacute">
          1538 1581 102 callgsubr
          118 -248 rmoveto
          69 65 44 61 1 callsubr
          -23 callsubr
          60 callsubr
          -521 -1578 -96 callsubr
        </CharString>
        <CharString name="Udieresisbelow">
          71 callsubr
          -275 -414 rmoveto
          93 75 72 87 -1 hvcurveto
          83 -67 65 -89 -93 -76 -71 -90 1 vhcurveto
          -81 67 -65 90 vhcurveto
          441 hmoveto
          94 74 72 87 hvcurveto
          83 -1 -67 65 -88 hhcurveto
          -94 -75 -71 -90 hvcurveto
          -81 1 67 -65 89 hhcurveto
          endchar
        </CharString>
        <CharString name="Udieresiscaron">
          1538 1615 -30 callgsubr
          1 callsubr
          -23 callsubr
          60 callsubr
          -521 -1578 -96 callsubr
        </CharString>
        <CharString name="Udieresisgrave">
          1538 881 13 callgsubr
          1 callsubr
          -23 callsubr
          60 callsubr
          -521 -1578 -96 callsubr
        </CharString>
        <CharString name="Udieresismacron">
          1538 875 -61 callgsubr
          1 callsubr
          -23 callsubr
          60 callsubr
          -521 -1578 -96 callsubr
        </CharString>
        <CharString name="Udotbelow">
          71 callsubr
          -44 -106 -76 callsubr
        </CharString>
        <CharString name="Ugrave">
          1538 1171 104 callsubr
          -445 -1571 -96 callsubr
        </CharString>
        <CharString name="Uhookabove">
          1538 1233 1884 65 callsubr
          38 callsubr
          163 callsubr
          -422 -1913 -96 callsubr
        </CharString>
        <CharString name="Uhorn">
          1687 309 642 15 callsubr
        </CharString>
        <CharString name="Uhornacute">
          1687 1237 -87 callsubr
          -1275 -1213 15 callsubr
        </CharString>
        <CharString name="Uhorndotbelow">
          1687 309 642 rmoveto
          -471 -100 265 -200 337 hhcurveto
          347 227 213 372 81 hvcurveto
          177 805 rlineto
          -4 22 22 -2 24 hhcurveto
          174 1 116 84 141 vvcurveto
          107 -67 94 -83 45 vhcurveto
          -83 callgsubr
          194 callsubr
          303 -1349 -76 callsubr
        </CharString>
        <CharString name="Uhorngrave">
          1687 1170 -60 callgsubr
          95 hlineto
          -945 -900 15 callsubr
        </CharString>
        <CharString name="Uhornhookabove">
          1687 1232 -104 callgsubr
          -15 -70 rlineto
          16 26 45 13 47 hhcurveto
          69 37 -26 -45 -48 162 callsubr
          -923 -1242 15 callsubr
        </CharString>
        <CharString name="Uhorntilde">
          1687 1301 1567 rmoveto
          96 83 63 235 29 hvcurveto
          -100 hlineto
          -86 -15 -25 -26 -36 hhcurveto
          -25 -21 10 18 -25 95 callsubr
          36 hhcurveto
          24 22 -10 -18 24 hvcurveto
          26 -19 rlineto
          -33 46 48 -21 58 hhcurveto
          -992 -925 15 callsubr
        </CharString>
        <CharString name="Uhungarumlaut">
          1538 1028 1854 rmoveto
          -74 -312 99 0 241 305 rlineto
          7 vlineto
          98 hmoveto
          -164 -312 109 0 346 305 rlineto
          7 vlineto
          -872 -1883 -96 callsubr
        </CharString>
        <CharString name="Uinvertedbreve">
          1538 1197 55 callsubr
          93 callsubr
          103 callsubr
          -386 -1942 -96 callsubr
        </CharString>
        <CharString name="Umacron">
          1538 865 -28 callsubr
          7 callsubr
          -93 -1807 -96 callsubr
        </CharString>
        <CharString name="Umacrondieresis">
          1538 1038 1822 rmoveto
          69 65 43 61 12 hvcurveto
          63 14 -46 43 -69 hhcurveto
          -16 hlineto
          -69 -64 -43 -63 -14 hvcurveto
          -61 -13 46 -43 69 hhcurveto
          383 hmoveto
          69 65 166 callsubr
          -12 45 -43 69 hhcurveto
          85 callgsubr
          -61 -1753 -96 callsubr
        </CharString>
        <CharString name="Uogonek">
          1538 787 -486 32 callgsubr
          50 14 46 27 35 hvcurveto
          303 29 199 208 76 344 rrcurveto
          135 612 29 129 23 26 128 22 rlinecurve
          21 99 -444 0 -21 -99 rlineto
          132 -24 13 -24 -25 -129 -121 -596 rcurveline
          -260 -53 -145 -132 -187 108 callsubr
          95 callgsubr
          112 -22 17 -19 -20 -90 rlinecurve
          -121 -572 -93 -443 228 -203 307 -23 rlinecurve
          -142 -76 -73 -94 -98 vvcurveto
          -112 104 -79 148 vhcurveto
          endchar
        </CharString>
        <CharString name="Upsilondieresisgreek">
          1421 946 -48 callsubr
          1 hvcurveto
          74 -39 callgsubr
          77 vhcurveto
          -54 callgsubr
          -101 callgsubr
          -850 -406 -78 callsubr
        </CharString>
        <CharString name="Upsilongreek">
          1421 458 1155 -78 callsubr
        </CharString>
        <CharString name="Upsilontonosgreek">
          1901 937 1155 rmoveto
          179 -541 -81 -389 -19 -86 -24 -21 -146 161 callsubr
          414 546 106 26 callgsubr
          -100 -142 rlinecurve
          -286 -405 -119 415 -39 133 19 33 131 17 rlinecurve
          21 99 -720 0 -21 -99 97 -16 26 -28 48 -146 rlinecurve
          -578 289 -9 callsubr
        </CharString>
        <CharString name="Uring">
          1538 921 201 callsubr
          -309 -1750 -96 callsubr
        </CharString>
        <CharString name="Utilde">
          1538 1302 -8 callsubr
          118 callsubr
          -76 callgsubr
          22 -10 -18 24 -98 callgsubr
          -491 -1596 -96 callsubr
        </CharString>
        <CharString name="Utildeacute">
          1538 1581 102 callgsubr
          439 -243 rmoveto
          131 93 callgsubr
          -28 -31 129 callsubr
          -56 hhcurveto
          -131 -96 22 callsubr
          49 49 -12 55 hhcurveto
          -490 -1583 -96 callsubr
        </CharString>
        <CharString name="Utildebelow">
          71 callsubr
          72 -418 rmoveto
          106 88 70 256 32 hvcurveto
          -104 hlineto
          -97 -17 -29 -29 -40 hhcurveto
          -29 -24 11 21 -28 hvcurveto
          -30 22 rlineto
          37 -51 -53 23 -62 hhcurveto
          -106 -89 -69 -255 -31 hvcurveto
          104 hlineto
          96 17 28 -93 callgsubr
          -41 callgsubr
        </CharString>
        <CharString name="V">
          103 callgsubr
          endchar
        </CharString>
        <CharString name="Vdotbelow">
          103 callgsubr
          268 -1273 -30 callsubr
          92 52 callsubr
        </CharString>
        <CharString name="Vecyrillic">
          1508 1525 449 72 callsubr
        </CharString>
        <CharString name="Vtilde">
          1485 1282 -8 callsubr
          118 callsubr
          -76 callgsubr
          22 -10 -18 24 -98 callgsubr
          -847 -429 rmoveto
          190 callsubr
          endchar
        </CharString>
        <CharString name="W">
          2253 421 1139 -26 callsubr
        </CharString>
        <CharString name="Wacute">
          2253 1661 -87 callsubr
          -1587 -716 -26 callsubr
        </CharString>
        <CharString name="Wcircumflex">
          2253 1382 119 callsubr
          -64 callgsubr
          -850 -404 -26 callsubr
        </CharString>
        <CharString name="Wdieresis">
          2253 1428 1561 rmoveto
          79 66 65 79 -15 callsubr
          -59 callsubr
          33 callsubr
          -1368 -422 -26 callsubr
        </CharString>
        <CharString name="Wdotaccent">
          2253 1609 -89 callsubr
          -3 callsubr
          -1188 -405 -26 callsubr
        </CharString>
        <CharString name="Wdotbelow">
          2253 421 1139 rmoveto
          105 -1142 310 0 499 996 75 -996 321 0 569 1125 92 182 39 25 111 16 rlinecurve
          21 99 -452 0 -20 -99 126 -13 9 -37 -76 -164 rlinecurve
          -366 -786 -49 790 -11 162 17 28 134 20 rlinecurve
          21 99 -683 0 -21 -99 125 -14 9 -52 -68 -144 rlinecurve
          -368 -791 -47 792 -9 155 18 34 137 20 rlinecurve
          21 99 -709 0 -21 -99 98 -15 28 -26 15 -165 rlinecurve
          652 -1274 -76 callsubr
        </CharString>
        <CharString name="Wgrave">
          2253 1594 -60 callgsubr
          96 hlineto
          -1258 -403 -26 callsubr
        </CharString>
        <CharString name="X">
          1447 348 321 9 callsubr
        </CharString>
        <CharString name="Xdieresis">
          1447 999 1561 rmoveto
          79 66 65 79 74 -56 59 -76 -81 -101 callgsubr
          -59 callsubr
          -15 callsubr
          -1012 -1240 9 callsubr
        </CharString>
        <CharString name="Xdotaccent">
          1447 1180 -89 callsubr
          -3 callsubr
          -832 -1223 9 callsubr
        </CharString>
        <CharString name="Xigreek">
          1405 1629 1444 rmoveto
          -1233 hlineto
          -126 -492 rlineto
          94 hlineto
          199 91 65 26 239 hhcurveto
          394 hlineto
          239 53 -26 -199 6 hvcurveto
          94 hlineto
          -782 -290 rmoveto
          169 hlineto
          125 29 -44 -144 -4 hvcurveto
          89 hlineto
          105 499 rlineto
          -89 hlineto
          -144 -57 -48 -43 -125 hhcurveto
          -169 hlineto
          -125 -31 43 144 5 hvcurveto
          -89 hlineto
          -105 -499 rlineto
          89 hlineto
          144 56 49 44 126 hhcurveto
          577 -662 rmoveto
          90 callgsubr
          -373 hlineto
          -258 -53 34 233 -5 hvcurveto
          -94 hlineto
          -94 -538 rlineto
          endchar
        </CharString>
        <CharString name="Xigreek.1">
          1422 69 hmoveto
          1276 hlineto
          90 callgsubr
          -144 hlineto
          83 391 rlineto
          43 hlineto
          124 30 -44 -144 -4 hvcurveto
          89 hlineto
          104 499 rlineto
          -88 hlineto
          -144 -57 -49 -43 -124 hhcurveto
          -42 hlineto
          82 391 rlineto
          155 hlineto
          239 53 -26 -199 7 hvcurveto
          94 hlineto
          84 492 -1243 0 -125 -492 rlineto
          94 hlineto
          199 91 65 26 239 hhcurveto
          156 hlineto
          -82 -391 rlineto
          -46 hlineto
          -125 -30 43 144 4 hvcurveto
          -89 hlineto
          -104 -499 rlineto
          88 hlineto
          144 57 49 44 125 hhcurveto
          45 hlineto
          -83 -391 rlineto
          -148 hlineto
          -258 -53 34 233 -4 hvcurveto
          -94 hlineto
          endchar
        </CharString>
        <CharString name="Y">
          1422 458 1155 -78 callsubr
        </CharString>
        <CharString name="Yacute">
          1421 1180 -87 callsubr
          -1069 -700 -78 callsubr
        </CharString>
        <CharString name="Ycircumflex">
          1421 901 -60 callsubr
          -332 -388 -78 callsubr
        </CharString>
        <CharString name="Ydieresis">
          1421 946 -48 callsubr
          1 hvcurveto
          74 -39 callgsubr
          77 vhcurveto
          -54 callgsubr
          -101 callgsubr
          -850 -406 -78 callsubr
        </CharString>
        <CharString name="Ydotaccent">
          1421 1127 1544 rmoveto
          91 73 73 87 83 123 callsubr
          -669 -389 -78 callsubr
        </CharString>
        <CharString name="Ydotbelow">
          1421 458 1155 rmoveto
          179 -541 -82 -389 -18 -86 -25 -21 -145 161 callsubr
          209 callsubr
          214 -1290 23 callsubr
        </CharString>
        <CharString name="Yericyrillic">
          2191 188 callsubr
          523 -283 rmoveto
          211 87 callgsubr
          -22 -99 125 -15 15 -24 -18 63 callsubr
          -23 -19 -134 -20 rlinecurve
          -20 -99 704 0 21 99 -125 20 -15 19 18 88 rlinecurve
          -950 297 -20 callgsubr
        </CharString>
        <CharString name="Ygrave">
          1421 1113 -60 callgsubr
          95 hlineto
          -739 -387 -78 callsubr
        </CharString>
        <CharString name="Yhookabove">
          1421 1175 -104 callgsubr
          -16 38 callsubr
          162 callsubr
          -717 -729 -78 callsubr
        </CharString>
        <CharString name="Yicyrillic">
          802 574 -48 callsubr
          94 callsubr
          -59 callsubr
          1 hvcurveto
          75 -57 59 -76 -80 -66 -65 -81 -73 56 -59 77 vhcurveto
          -282 -1335 -95 callsubr
        </CharString>
        <CharString name="Ymacron">
          1421 807 -5 callsubr
          -387 -623 -78 callsubr
        </CharString>
        <CharString name="Ytilde">
          1421 1243 -8 callsubr
          -25 -26 -36 hhcurveto
          -25 -21 10 18 -25 95 callsubr
          36 hhcurveto
          24 112 callsubr
          -785 -412 -78 callsubr
        </CharString>
        <CharString name="Z">
          1286 1213 hmoveto
          -16 callsubr
        </CharString>
        <CharString name="Zacute">
          1286 1036 -87 callsubr
          -170 -1855 rmoveto
          -16 callsubr
        </CharString>
        <CharString name="Zcaron">
          1286 1235 -88 callsubr
          -82 callsubr
          -141 -1865 rmoveto
          -16 callsubr
        </CharString>
        <CharString name="Zcircumflex">
          1286 757 119 callsubr
          -64 callgsubr
          567 -1543 rmoveto
          -16 callsubr
        </CharString>
        <CharString name="Zdotaccent">
          1286 984 -89 callsubr
          -3 callsubr
          229 -1544 rmoveto
          -16 callsubr
        </CharString>
        <CharString name="Zdotbelow">
          -2 callgsubr
          535 -135 25 callsubr
        </CharString>
        <CharString name="Zecyrillic">
          1381 634 -29 rmoveto
          419 338 181 315 183 -162 102 -225 21 hvcurveto
          269 36 197 120 220 vvcurveto
          215 -199 109 -332 -205 -172 -50 -70 -113 vhcurveto
          -84 -358 rlineto
          93 hlineto
          243 103 138 102 164 hhcurveto
          124 70 -83 -128 -197 -123 -131 -210 hvcurveto
          -140 hlineto
          -26 -122 rlineto
          139 hlineto
          172 90 -81 -150 -180 -119 -163 -224 -1 hvcurveto
          -175 -1 -108 113 -7 232 rrcurveto
          -93 hlineto
          -56 -355 rlineto
          -63 86 168 -59 203 hhcurveto
          endchar
        </CharString>
        <CharString name="Zetagreek">
          1286 1213 hmoveto
          -16 callsubr
        </CharString>
        <CharString name="Zhecyrillic">
          2242 469 hmoveto
          511 669 86 0 -94 -443 -19 -89 -25 -17 -136 -21 rlinecurve
          -21 -99 713 0 21 99 -126 21 -19 17 19 89 rlinecurve
          94 443 86 0 225 -669 460 0 20 94 -58 29 -28 35 -79 222 rlinecurve
          -200 585 168 149 196 171 65 38 140 22 rlinecurve
          22 99 -516 0 -21 -99 123 -19 8 -40 -114 -112 rlinecurve
          -385 -382 -86 0 91 426 18 89 26 17 136 21 rlinecurve
          20 99 -713 0 -21 -99 128 -15 17 -23 -19 -89 rlinecurve
          -90 -427 -84 1 -230 383 -70 117 32 36 124 17 rlinecurve
          20 99 -520 0 -19 -99 132 -23 53 -32 121 -175 rlinecurve
          101 -143 -449 -586 rlineto
          -173 -225 -41 -39 -69 -28 -20 -94 rcurveline
          endchar
        </CharString>
        <CharString name="Zlinebelow">
          -2 callgsubr
          194 -380 -90 callsubr
        </CharString>
        <CharString name="a">
          1283 174 362 -107 callsubr
          -106 callsubr
          -102 callsubr
        </CharString>
        <CharString name="a.dnum">
          816 119 205 rmoveto
          -141 1 77 -77 104 hhcurveto
          95 73 55 92 35 hvcurveto
          -3 5 callgsubr
          -19 hhcurveto
          -30 -11 18 47 10 219 callsubr
          -85 hhcurveto
          -183 108 callgsubr
          -1 40 175 98 hhcurveto
          31 19 -13 -16 6 hvcurveto
          -53 -249 rlineto
          -61 -15 -32 -37 -39 hhcurveto
          -30 -22 23 65 -2 hvcurveto
          endchar
        </CharString>
        <CharString name="a.numr">
          816 256 850 rmoveto
          -141 1 77 -77 104 hhcurveto
          94 74 55 92 34 hvcurveto
          -2 5 callgsubr
          -20 hhcurveto
          -29 -12 18 47 11 219 callsubr
          -86 hhcurveto
          -182 108 callgsubr
          -2 40 175 99 hhcurveto
          31 19 -13 -16 5 hvcurveto
          -53 -249 rlineto
          -61 -14 -32 -37 -39 hhcurveto
          -30 -22 23 65 -2 hvcurveto
          endchar
        </CharString>
        <CharString name="a.sups">
          816 293 1022 rmoveto
          -140 1 77 -78 103 hhcurveto
          95 74 55 93 34 hvcurveto
          -2 -9 -2 -15 -10 vvcurveto
          -74 -2 42 -36 74 hhcurveto
          85 75 36 49 41 hvcurveto
          14 65 rlineto
          -9 -15 -19 -5 -20 hhcurveto
          -29 -12 19 46 10 hvcurveto
          82 386 -145 0 -85 -69 rlineto
          44 -20 -52 39 -86 hhcurveto
          -183 -137 -162 -225 2 hvcurveto
          247 -3 rmoveto
          113 -2 40 175 98 hhcurveto
          31 20 -14 -15 5 hvcurveto
          -53 -249 rlineto
          -62 -14 -32 -37 -39 hhcurveto
          -31 -21 23 66 -2 hvcurveto
          endchar
        </CharString>
        <CharString name="aacute">
          1283 952 -93 callsubr
          -67 callsubr
          -1185 -1193 -107 callsubr
          -106 callsubr
          -102 callsubr
        </CharString>
        <CharString name="abreve">
          1283 905 -17 callsubr
          -731 -804 -107 callsubr
          -106 callsubr
          -102 callsubr
        </CharString>
        <CharString name="abreveacute">
          1283 1281 -36 callsubr
          272 -327 -54 callsubr
          -675 -757 -107 callsubr
          -106 callsubr
          -102 callsubr
        </CharString>
        <CharString name="abrevecyrillic">
          1283 857 86 callsubr
          -15 callgsubr
          -683 -806 -107 callsubr
          -106 callsubr
          -102 callsubr
        </CharString>
        <CharString name="abrevedotbelow">
          1283 905 -17 callsubr
          -731 -804 -107 callsubr
          -106 callsubr
          14 callsubr
          90 -807 -68 callsubr
          -64 callsubr
        </CharString>
        <CharString name="abrevegrave">
          1283 598 -37 callsubr
          208 -631 -54 callsubr
          -675 -757 -107 callsubr
          -106 callsubr
          -102 callsubr
        </CharString>
        <CharString name="abrevehookabove">
          1283 964 32 callsubr
          -103 callgsubr
          95 57 22 99 rlinecurve
          98 20 -82 63 -132 hhcurveto
          -115 -615 -54 callsubr
          -675 -757 -107 callsubr
          -106 callsubr
          -102 callsubr
        </CharString>
        <CharString name="abrevetilde">
          1283 1062 83 callsubr
          -32 hvcurveto
          114 hlineto
          54 12 30 23 -48 callgsubr
          -213 -353 -54 callsubr
          -675 -757 -107 callsubr
          -106 callsubr
          -102 callsubr
        </CharString>
        <CharString name="acaron">
          1283 1164 -80 callsubr
          -1114 -1203 -107 callsubr
          -106 callsubr
          -102 callsubr
        </CharString>
        <CharString name="acircumflex">
          1283 635 41 callsubr
          105 callsubr
          -337 -792 -107 callsubr
          -106 callsubr
          -102 callsubr
        </CharString>
        <CharString name="acircumflexacute">
          1283 1281 -36 callsubr
          -68 -323 -84 callsubr
          -2 callsubr
          -357 -859 -107 callsubr
          -106 callsubr
          -102 callsubr
        </CharString>
        <CharString name="acircumflexdotbelow">
          1283 635 41 callsubr
          105 callsubr
          -337 -792 -107 callsubr
          -106 callsubr
          14 callsubr
          90 -807 -68 callsubr
          -64 callsubr
        </CharString>
        <CharString name="acircumflexgrave">
          1283 598 -37 callsubr
          -132 -627 -84 callsubr
          -2 callsubr
          -357 -859 -107 callsubr
          -106 callsubr
          -102 callsubr
        </CharString>
        <CharString name="acircumflexhookabove">
          1283 1237 32 callsubr
          -103 callgsubr
          154 callsubr
          -65 0 -349 -197 rlineto
          -357 -859 -107 callsubr
          -106 callsubr
          -102 callsubr
        </CharString>
        <CharString name="acircumflextilde">
          1283 1062 83 callsubr
          -32 hvcurveto
          114 hlineto
          54 12 30 23 -48 callgsubr
          -553 -349 -84 callsubr
          -2 callsubr
          -357 -859 -107 callsubr
          -106 callsubr
          -102 callsubr
        </CharString>
        <CharString name="acute">
          1024 853 -93 callsubr
          -67 callsubr
          endchar
        </CharString>
        <CharString name="acutecmb">
          0 341 -93 callsubr
          -67 callsubr
          endchar
        </CharString>
        <CharString name="acutecmb.short">
          0 319 1438 221 callsubr
          endchar
        </CharString>
        <CharString name="acutedotaccentcmb">
          4 callgsubr
          89 callgsubr
          endchar
        </CharString>
        <CharString name="acutedotaccentcmb.short">
          0 405 1781 rmoveto
          73 56 47 66 -1 hvcurveto
          66 -2 -59 46 -73 hhcurveto
          -72 -56 -46 -66 1 hvcurveto
          -66 1 60 -47 72 hhcurveto
          289 -161 -44 callgsubr
          endchar
        </CharString>
        <CharString name="acyrillic">
          1283 174 362 -107 callsubr
          -106 callsubr
          -102 callsubr
        </CharString>
        <CharString name="adblgrave">
          1283 703 1554 rmoveto
          -334 -9 hlineto
          272 -393 rlineto
          123 hlineto
          375 402 rmoveto
          -316 -9 hlineto
          149 -393 rlineto
          113 hlineto
          -911 -790 -107 callsubr
          -106 callsubr
          -102 callsubr
        </CharString>
        <CharString name="adieresis">
          1283 655 37 callsubr
          125 callsubr
          -955 -821 -107 callsubr
          -106 callsubr
          -102 callsubr
        </CharString>
        <CharString name="adieresismacron">
          1283 587 1496 -63 callsubr
          42 -519 -69 callsubr
          54 callsubr
          48 -51 72 hhcurveto
          -861 -778 -107 callsubr
          -106 callsubr
          -102 callsubr
        </CharString>
        <CharString name="adotaccent">
          1283 892 -75 callsubr
          -88 -84 -106 -96 76 -77 103 hvcurveto
          -718 -810 -107 callsubr
          -106 callsubr
          -102 callsubr
        </CharString>
        <CharString name="adotbelow">
          1283 174 362 -107 callsubr
          -106 callsubr
          14 callsubr
          90 -807 -68 callsubr
          -64 callsubr
        </CharString>
        <CharString name="adotmacron">
          1283 585 1483 rmoveto
          683 hlineto
          34 163 rlineto
          -683 hlineto
          262 -510 96 callsubr
          -707 -774 -107 callsubr
          -106 callsubr
          -102 callsubr
        </CharString>
        <CharString name="ae">
          1620 248 788 132 callsubr
        </CharString>
        <CharString name="aeacute">
          1620 1155 -93 callsubr
          -85 callsubr
          -1314 -767 132 callsubr
        </CharString>
        <CharString name="aemacron">
          1620 738 -35 callsubr
          -533 -651 132 callsubr
        </CharString>
        <CharString name="agrave">
          1283 911 -7 callsubr
          -819 -790 -107 callsubr
          -106 callsubr
          -102 callsubr
        </CharString>
        <CharString name="ahookabove">
          1283 954 1564 rmoveto
          -120 82 callsubr
          92 69 102 vvcurveto
          104 -98 74 -123 vhcurveto
          -780 -1202 -107 callsubr
          -106 callsubr
          -102 callsubr
        </CharString>
        <CharString name="ainvertedbreve">
          1283 902 193 callsubr
          -728 -1191 -107 callsubr
          -106 callsubr
          -102 callsubr
        </CharString>
        <CharString name="alphagreek">
          1341 497 -22 172 callsubr
        </CharString>
        <CharString name="alphatonosgreek">
          1341 912 48 callgsubr
          -768 -1583 172 callsubr
        </CharString>
        <CharString name="amacron">
          1283 535 -35 callsubr
          -404 -1077 -107 callsubr
          -106 callsubr
          -102 callsubr
        </CharString>
        <CharString name="ampersand">
          1594 112 346 rmoveto
          -209 151 -166 277 168 139 69 150 154 vhcurveto
          157 -190 447 0 15 70 -93 74 -84 91 -102 125 rlinecurve
          -75 93 137 145 155 159 48 30 112 15 rlinecurve
          20 98 -457 0 -20 -98 128 -16 14 -35 -91 -109 rlinecurve
          -103 -119 -266 327 rlineto
          248 70 131 104 147 vvcurveto
          181 -157 122 -278 -297 -183 -164 -225 -2 vhcurveto
          -106 37 -91 79 -111 vhcurveto
          -268 -71 -141 -144 -216 vvcurveto
          641 846 rmoveto
          95 59 54 82 87 46 -68 -101 -97 -48 -86 -97 -62 vhcurveto
          -93 121 -36 70 74 vvcurveto
          -287 -706 rmoveto
          95 46 68 70 48 vhcurveto
          7 -9 7 -8 7 -9 339 -410 rcurveline
          -39 -57 -55 -18 -64 hhcurveto
          -173 -127 120 162 hvcurveto
          endchar
        </CharString>
        <CharString name="anoteleiagreek">
          585 468 659 7 callgsubr
          endchar
        </CharString>
        <CharString name="aogonek">
          1283 174 362 -107 callsubr
          -106 callsubr
          14 14 1 1 13 hvcurveto
          -199 -109 -78 -88 -104 vvcurveto
          -104 88 -65 129 101 93 40 52 39 vhcurveto
          20 95 rlineto
          -13 -19 -27 -8 -30 hhcurveto
          -44 -34 30 60 97 84 111 159 140 hvcurveto
          21 100 rlineto
          -21 -28 -37 -10 -33 hhcurveto
          -49 -19 34 74 16 hvcurveto
          156 732 -224 0 -137 -116 rlineto
          74 -32 -87 64 -142 23 callgsubr
          2 callgsubr
          endchar
        </CharString>
        <CharString name="approxequal">
          1279 1067 847 rmoveto
          -155 -129 214 -210 hhcurveto
          -186 -136 -142 -277 -31 hvcurveto
          161 hlineto
          149 26 71 67 95 156 129 -215 209 hhcurveto
          184 136 142 276 32 hvcurveto
          -162 hlineto
          -148 -26 -72 -66 -92 hhcurveto
          -111 -523 rmoveto
          -156 -128 215 -211 hhcurveto
          -185 -137 -142 -277 -31 hvcurveto
          162 hlineto
          149 26 71 67 95 156 130 -215 209 hhcurveto
          182 137 142 276 32 hvcurveto
          -162 hlineto
          -148 -26 -72 -67 -92 hhcurveto
          endchar
        </CharString>
        <CharString name="aring">
          1283 589 20 callsubr
          -635 -968 -107 callsubr
          -106 callsubr
          -102 callsubr
        </CharString>
        <CharString name="aringacute">
          1283 1282 184 callsubr
          -711 -843 -107 callsubr
          -106 callsubr
          -102 callsubr
        </CharString>
        <CharString name="aringbelow">
          1283 174 362 -107 callsubr
          -106 callsubr
          14 callsubr
          -218 -650 rmoveto
          -117 2 127 -73 164 hhcurveto
          212 120 96 108 -4 hvcurveto
          117 -3 -126 28 callgsubr
          58 hhcurveto
          46 29 -29 -50 2 hvcurveto
          -75 3 -47 -55 -58 hhcurveto
          -46 -29 29 51 -2 hvcurveto
          endchar
        </CharString>
        <CharString name="asciicircum">
          1286 856 1444 rmoveto
          -553 -599 117 -106 502 508 289 -508 136 106 -298 599 rlineto
          endchar
        </CharString>
        <CharString name="asciitilde">
          1279 1009 574 rmoveto
          -155 -129 215 -210 hhcurveto
          -186 -136 -143 -277 -31 hvcurveto
          161 hlineto
          150 26 71 66 95 157 129 -214 209 hhcurveto
          183 136 141 276 32 hvcurveto
          -162 hlineto
          -147 -26 -71 -67 -93 hhcurveto
          endchar
        </CharString>
        <CharString name="asterisk">
          920 749 1474 rmoveto
          -68 -42 -47 -86 -21 1 -22 4 -28 hvcurveto
          31 -187 24 0 111 183 rlineto
          27 42 9 36 30 vvcurveto
          60 -41 40 -56 vhcurveto
          -303 -134 rmoveto
          -63 -45 -48 -57 -53 35 -45 102 -27 hvcurveto
          182 -50 13 20 -86 157 rlineto
          76 -41 -52 27 -45 hhcurveto
          545 -56 rmoveto
          -48 -37 -21 -58 -64 hvcurveto
          -139 -125 9 -22 161 9 rlineto
          159 5 58 51 66 vvcurveto
          55 -40 40 -59 vhcurveto
          -614 -455 rmoveto
          48 37 21 58 64 hvcurveto
          139 126 -9 21 -161 -9 rlineto
          -159 -6 -58 -50 -66 vvcurveto
          -55 40 -40 59 vhcurveto
          653 48 rmoveto
          53 -35 47 -102 26 vhcurveto
          -182 50 -13 -20 86 -157 rlineto
          -77 40 53 -26 45 hhcurveto
          63 45 48 56 hvcurveto
          -411 -239 rmoveto
          68 42 48 86 20 -1 23 -4 27 hvcurveto
          -31 188 -24 0 -111 -183 rlineto
          -27 -43 -9 -36 -29 vvcurveto
          -60 41 -41 56 vhcurveto
          endchar
        </CharString>
        <CharString name="at">
          2121 1524 -299 rmoveto
          -1 99 rlineto
          -75 -131 -140 -21 -162 hhcurveto
          -416 -319 277 459 497 377 406 521 474 287 -266 -389 -311 -184 -193 -174 -86 -19 48 95 20 hvcurveto
          143 664 -206 0 -128 -122 rlineto
          92 -34 -82 55 -118 hhcurveto
          -276 -186 -302 -320 -221 96 -121 155 132 111 81 166 78 hvcurveto
          -4 -19 -1 -19 -16 vvcurveto
          -131 -3 101 -94 185 hhcurveto
          375 252 301 387 451 -368 312 -541 -617 -428 -470 -565 -535 388 -326 470 181 184 49 77 94 hvcurveto
          -496 699 rmoveto
          190 91 300 133 58 35 -45 -84 -9 vhcurveto
          -69 -324 rlineto
          -114 -24 -64 -78 -68 hhcurveto
          -59 -24 56 99 hvcurveto
          endchar
        </CharString>
        <CharString name="atilde">
          1283 1029 -62 callsubr
          35 -61 callsubr
          5 callsubr
          26 callsubr
          98 callsubr
          -855 -819 -107 callsubr
          -106 callsubr
          -102 callsubr
        </CharString>
        <CharString name="austral">
          1451 82 380 rmoveto
          217 hlineto
          -57 -105 -72 -135 -33 -27 -113 -14 rlinecurve
          -21 -99 436 0 21 99 -117 15 -19 30 64 127 rlinecurve
          57 109 474 0 11 -117 11 -116 -18 -31 -135 -17 rlinecurve
          -20 -99 675 0 22 99 -105 13 -22 27 -14 125 rlinecurve
          -14 116 219 0 17 79 -246 0 -23 196 311 0 17 79 -337 0 -85 711 -305 0 -387 -711 -333 0 -17 -79 307 0 -106 -196 rlineto
          -242 hlineto
          530 275 rmoveto
          215 412 40 -412 rlineto
          -399 -275 rmoveto
          102 196 304 0 19 -196 rlineto
          endchar
        </CharString>
        <CharString name="austral.tnum">
          1325 97 452 rmoveto
          -18 -79 185 0 -50 -98 -68 -134 -29 -30 -94 -12 rlinecurve
          -21 -99 407 0 21 99 -114 15 -15 27 63 130 rlinecurve
          50 102 412 0 7 -110 6 -117 -17 -30 -130 -17 rlinecurve
          -21 -99 652 0 21 99 -86 11 -17 29 -10 125 rlinecurve
          -9 109 181 0 18 79 -206 0 -16 196 263 0 17 79 -287 0 -60 718 -324 0 -365 -718 -288 0 -17 -79 265 0 -99 -196 rlineto
          282 275 rmoveto
          197 406 23 -406 rlineto
          -354 -275 rmoveto
          95 196 264 0 11 -196 rlineto
          endchar
        </CharString>
        <CharString name="b">
          168 callsubr
          endchar
        </CharString>
        <CharString name="backslash">
          829 504 -284 rmoveto
          200 hlineto
          -104 1868 rlineto
          -199 hlineto
          endchar
        </CharString>
        <CharString name="baht">
          -22 callgsubr
          171 -133 115 -310 25 vhcurveto
          47 223 -79 0 -46 -218 rlineto
          1 -21 -22 0 -22 hhcurveto
          -596 hlineto
          -21 -99 rlineto
          125 -20 16 -18 -19 -90 -197 -931 rcurveline
          -18 -87 -24 -20 -133 -20 -22 -99 rcurveline
          629 hlineto
          10 11 0 10 hhcurveto
          -47 -219 79 0 47 222 rlineto
          418 22 252 152 254 vvcurveto
          -610 840 rmoveto
          56 -2 rlineto
          27 24 -4 -5 22 hvcurveto
          -101 -474 rlineto
          -1 -13 -13 -1 -14 hhcurveto
          -92 hlineto
          391 268 rmoveto
          -121 -62 -92 -115 -37 vhcurveto
          92 429 rlineto
          56 -36 29 -60 -83 vvcurveto
          -414 -381 rmoveto
          90 -1 rlineto
          13 -1 14 -1 12 -2 -116 -548 rcurveline
          -23 -3 -23 -1 -25 -1 -62 -1 rcurveline
          447 314 rmoveto
          -141 -71 -110 -161 -42 vhcurveto
          109 512 rlineto
          80 -37 43 -76 -106 vvcurveto
          endchar
        </CharString>
        <CharString name="baht.tnum">
          -19 callgsubr
          159 -123 111 -282 24 vhcurveto
          48 222 -79 0 -47 -218 rlineto
          1 -15 -16 0 -16 hhcurveto
          -553 hlineto
          6 callgsubr
          599 0 -47 -219 79 0 47 221 rlineto
          392 18 239 153 258 vvcurveto
          -549 840 rmoveto
          52 -2 rlineto
          20 -1 18 -2 17 -4 -101 -477 rcurveline
          -1 -9 -8 0 -9 hhcurveto
          -83 hlineto
          356 288 rmoveto
          -124 -58 -103 -106 -42 vhcurveto
          91 430 rlineto
          48 -33 25 -53 -75 vvcurveto
          -380 -401 rmoveto
          71 -1 rlineto
          13 -1 12 -1 12 -2 -117 -550 rcurveline
          -1 -13 -14 -1 -14 hhcurveto
          -70 -2 rlineto
          413 343 rmoveto
          -153 -73 -123 -147 -46 vhcurveto
          109 511 rlineto
          73 -34 38 -68 -87 vvcurveto
          endchar
        </CharString>
        <CharString name="bar">
          829 254 -284 rmoveto
          200 hlineto
          397 1868 rlineto
          -200 hlineto
          endchar
        </CharString>
        <CharString name="bdotaccent">
          1279 719 1590 rmoveto
          107 87 85 103 98 -76 77 -102 -107 -87 -85 -105 -96 76 -77 102 hvcurveto
          604 -925 2 callsubr
          185 callsubr
          endchar
        </CharString>
        <CharString name="bdotbelow">
          168 callsubr
          -349 -1126 -68 callsubr
          -64 callsubr
        </CharString>
        <CharString name="becyrillic">
          1261 1289 561 rmoveto
          266 -168 184 -276 -218 -167 -122 -169 -84 vhcurveto
          -1 6 0 7 8 vvcurveto
          6 238 103 158 362 19 rrcurveto
          3 137 7 3 hhcurveto
          310 15 113 95 57 267 rrcurveto
          -98 hlineto
          -24 -48 -83 -18 -162 -6 rrcurveto
          -571 -19 -338 -402 -550 vvcurveto
          -331 175 -189 301 357 263 252 332 vhcurveto
          -375 120 rmoveto
          -223 -85 -354 -149 -73 -40 68 141 223 85 354 149 73 40 -68 -141 vhcurveto
          endchar
        </CharString>
        <CharString name="betagreek">
          1282 16 -460 rmoveto
          396 hlineto
          97 578 rlineto
          -80 59 112 -60 134 hhcurveto
          279 201 197 249 26 hvcurveto
          31 251 -134 166 -223 25 204 60 112 109 15 157 rrcurveto
          198 22 -134 145 -299 hhcurveto
          -309 -200 -180 -373 -80 hvcurveto
          400 166 rmoveto
          165 36 42 87 92 hhcurveto
          70 47 -63 -157 -21 hvcurveto
          -18 -163 -68 -91 -148 -8 rrcurveto
          -50 -242 167 -6 81 -86 -17 -187 rlinecurve
          -180 -15 -105 -85 -113 hhcurveto
          -73 -59 33 61 -43 hvcurveto
          46 225 141 662 8 35 rrcurveto
          endchar
        </CharString>
        <CharString name="bitcoin">
          -22 callgsubr
          149 -101 106 -230 42 vhcurveto
          51 237 -80 0 -48 -226 rlineto
          6 -54 -59 3 -65 hhcurveto
          -7 hlineto
          46 218 -79 -1 -47 -217 -509 0 -21 -99 125 -20 16 -18 -19 -90 rlinecurve
          -197 -931 -18 -87 -24 -20 -133 -20 rlinecurve
          -22 -99 509 0 -47 -219 79 0 47 219 rlineto
          41 hlineto
          51 49 2 3 46 hvcurveto
          -47 -224 79 0 49 232 rlineto
          347 43 206 146 229 vvcurveto
          -323 621 rmoveto
          -159 -106 -108 -193 -1 vhcurveto
          -92 hlineto
          104 487 56 -2 rlineto
          151 -5 80 -75 -137 vvcurveto
          -87 -626 rmoveto
          -180 -115 -128 -270 -5 vhcurveto
          -62 -1 120 559 90 -1 rlineto
          151 -5 86 -90 -149 vvcurveto
          endchar
        </CharString>
        <CharString name="bitcoin.tnum">
          -19 callgsubr
          137 -91 101 -206 41 vhcurveto
          51 237 -80 0 -48 -225 rlineto
          5 -47 -52 3 -57 hhcurveto
          -29 hlineto
          46 218 -79 -1 -46 -217 -445 0 6 callgsubr
          444 0 -47 -219 79 0 47 219 rlineto
          75 hlineto
          39 37 1 3 36 hvcurveto
          -47 -223 79 0 49 230 rlineto
          325 41 193 147 232 vvcurveto
          -296 641 rmoveto
          -162 -97 -125 -176 -1 vhcurveto
          -83 hlineto
          103 487 52 -2 rlineto
          132 -8 69 -64 -125 vvcurveto
          -87 -617 rmoveto
          -190 -113 -144 -230 -7 vhcurveto
          -70 -2 120 559 71 -1 rlineto
          146 -6 76 -86 -123 vvcurveto
          endchar
        </CharString>
        <CharString name="blinebelow">
          168 callsubr
          -677 -1053 rmoveto
          630 hlineto
          38 183 rlineto
          -629 hlineto
          endchar
        </CharString>
        <CharString name="braceleft">
          829 847 1044 rmoveto
          51 233 rlineto
          138 30 51 59 142 hhcurveto
          23 110 rlineto
          -48 hlineto
          -318 -170 -105 -237 -53 hvcurveto
          -58 -265 rlineto
          -154 -34 -82 -54 -122 hhcurveto
          -23 -109 rlineto
          127 55 -52 -164 -35 hvcurveto
          -68 -327 rlineto
          -265 -56 116 -136 323 hhcurveto
          48 hlineto
          23 110 rlineto
          -154 -5 96 153 32 hvcurveto
          46 217 rlineto
          49 231 -65 145 -238 43 245 26 121 92 47 215 rrcurveto
          endchar
        </CharString>
        <CharString name="braceright">
          829 426 1044 rmoveto
          -44 -215 81 -92 234 -26 -257 -43 -126 -145 -49 -231 -46 -217 rcurveline
          -153 -33 -46 -96 -155 hhcurveto
          -23 -110 rlineto
          48 hlineto
          322 175 136 265 57 hvcurveto
          70 327 rlineto
          164 35 77 52 127 hhcurveto
          24 109 rlineto
          -123 -58 54 154 31 hvcurveto
          55 265 rlineto
          237 47 -124 105 -319 hhcurveto
          -48 hlineto
          -24 -110 rlineto
          142 26 -59 -138 -28 hvcurveto
          endchar
        </CharString>
        <CharString name="bracketleft">
          829 186 -284 rmoveto
          560 hlineto
          23 111 -268 0 351 1646 269 0 23 111 rlineto
          -559 hlineto
          endchar
        </CharString>
        <CharString name="bracketright">
          829 919 1584 rmoveto
          -559 hlineto
          -24 -111 268 0 -351 -1646 -268 0 -24 -111 rlineto
          559 hlineto
          endchar
        </CharString>
        <CharString name="breve">
          1024 806 -17 callsubr
          endchar
        </CharString>
        <CharString name="breveacutecmb">
          -84 callgsubr
          272 -327 -54 callsubr
          endchar
        </CharString>
        <CharString name="breveacutecmb.short">
          0 750 34 callsubr
          293 -268 -53 callsubr
          endchar
        </CharString>
        <CharString name="brevebelowcmb">
          0 -60 -467 -62 callgsubr
          -36 callgsubr
        </CharString>
        <CharString name="brevecmb">
          0 294 -17 callsubr
          endchar
        </CharString>
        <CharString name="brevecmb.short">
          0 282 1148 rmoveto
          204 122 134 213 5 hvcurveto
          -96 hlineto
          -89 -17 -85 -52 -125 hhcurveto
          -106 -73 55 71 6 0 5 1 5 hvcurveto
          -97 99 callsubr
          endchar
        </CharString>
        <CharString name="brevecyrilliccmb">
          0 246 86 callsubr
          -15 callgsubr
          endchar
        </CharString>
        <CharString name="brevecyrilliccmb.short">
          0 312 1495 rmoveto
          189 169 98 214 61 hvcurveto
          -104 29 rlineto
          -143 -45 -116 -87 -127 hhcurveto
          -19 -19 1 3 -16 hvcurveto
          32 23 23 38 45 vvcurveto
          85 -63 62 -77 -92 -62 -65 -92 -115 93 -96 173 vhcurveto
          endchar
        </CharString>
        <CharString name="brevegravecmb">
          0 -13 -37 callsubr
          208 -631 -54 callsubr
          endchar
        </CharString>
        <CharString name="brevegravecmb.short">
          0 51 109 callsubr
          238 -527 -53 callsubr
          endchar
        </CharString>
        <CharString name="brevehookabovecmb">
          0 353 32 callsubr
          -103 callgsubr
          95 57 22 99 rlinecurve
          98 20 -82 63 -132 hhcurveto
          -115 -615 -54 callsubr
          endchar
        </CharString>
        <CharString name="brevehookabovecmb.short">
          0 419 2047 rmoveto
          -93 -89 -32 -42 -59 hvcurveto
          -14 -62 rlineto
          14 34 60 13 50 hhcurveto
          81 36 77 callgsubr
          96 48 18 85 rlinecurve
          83 17 -87 53 -135 hhcurveto
          -94 -517 -53 callsubr
          endchar
        </CharString>
        <CharString name="brevetildecmb">
          0 451 83 callsubr
          -31 -63 callgsubr
          -47 callgsubr
          -213 -353 -54 callsubr
          endchar
        </CharString>
        <CharString name="brevetildecmb.short">
          0 530 1826 rmoveto
          130 96 76 134 27 hvcurveto
          -116 hlineto
          -45 -9 -31 -21 -49 hhcurveto
          -29 -30 7 12 -37 hvcurveto
          -38 11 rlineto
          15 -48 -49 13 -56 hhcurveto
          -131 -96 -76 -134 -51 callgsubr
          30 -7 -11 37 hvcurveto
          38 -12 rlineto
          -15 49 48 -13 57 hhcurveto
          -205 -296 -53 callsubr
          endchar
        </CharString>
        <CharString name="brokenbar">
          829 483 790 rmoveto
          199 hlineto
          169 794 rlineto
          -199 hlineto
          -398 -1868 rmoveto
          200 hlineto
          168 794 rlineto
          -199 hlineto
          endchar
        </CharString>
        <CharString name="bullet">
          871 559 -35 callgsubr
        </CharString>
</ttFont>
